<svg width="36" height="22" viewBox="0 0 36 22" fill="none" xmlns="http://www.w3.org/2000/svg">
<path d="M25.0196 0.666672H11.1373C5.38693 0.666672 0.725494 5.28147 0.725494 11.0784C0.725494 16.8754 5.38693 21.4902 11.1373 21.4902H25.0196C30.7678 21.4902 35.4314 16.8288 35.4314 11.0784C35.4314 5.32811 30.7678 0.666672 25.0196 0.666672ZM14.1252 12.3799H12.3899V14.1152C12.3899 14.831 11.8053 15.4167 11.0895 15.4167C10.3737 15.4167 9.78698 14.831 9.78698 14.1152V12.3799L8.10049 12.3311C7.38469 12.3311 6.75022 11.7942 6.75022 11.0784C6.75022 10.3626 7.33859 9.77642 8.0544 9.77642L9.78698 9.77697V8.04167C9.78698 7.32586 10.3737 6.7402 11.0895 6.7402C11.8053 6.7402 12.3899 7.32586 12.3899 8.04167V9.77697H14.1252C14.841 9.77697 15.4278 10.3626 15.4278 11.0784C15.4267 11.7942 14.8898 12.3799 14.1252 12.3799ZM24.1032 15.8505C22.9036 15.8505 21.9828 14.8814 21.9828 13.7302C21.9828 12.5789 22.9519 11.5611 24.1032 11.5611C25.2544 11.5611 26.2235 12.5307 26.2235 13.7302C26.2235 14.9297 25.3504 15.8505 24.1032 15.8505ZM27.5737 10.6446C26.3742 10.6446 25.4534 9.67556 25.4534 8.5243C25.4534 7.37304 26.4225 6.35518 27.5737 6.35518C28.7733 6.35518 29.6941 7.32478 29.6941 8.5243C29.6941 9.72382 28.821 10.6446 27.5737 10.6446Z" fill="white"/>
</svg>
