<svg width="406" height="306" viewBox="0 0 406 306" fill="none" xmlns="http://www.w3.org/2000/svg">
<g clip-path="url(#clip0)">
<path opacity="0.18" d="M170.083 44.3012C148.001 62.708 130.207 86.184 106.72 102.838C84.9974 118.182 58.7757 127.38 40.0837 146.284C24.1197 162.421 15.1736 184.21 15.1914 206.91C15.2092 229.609 24.1895 251.384 40.1788 267.497C62.5353 290.022 95.5895 298.513 127.281 300.181C158.973 301.85 190.75 297.699 222.442 299.4C252.434 301.015 282.256 307.848 312.206 305.588C342.155 303.328 373.868 289.209 385.696 261.614C398.791 231.074 383.785 196.71 373.435 165.145C365.623 141.277 360.467 116.621 358.059 91.6226C354.469 54.228 347.858 2.30219 300.8 0.232344C254.06 -1.89031 205.915 14.3834 170.083 44.3012Z" fill="#FD5523"/>
<path d="M296.09 252.142C298.034 253.134 298.319 255.986 297.22 257.855C296.122 259.724 294.052 260.843 292.12 261.762C287.469 263.92 282.586 265.54 277.567 266.588C275.297 267.074 272.287 268.363 272.857 270.622C273.269 272.428 275.603 272.861 277.451 272.893C304.908 273.315 332.059 265.944 359.506 266.557C361.323 266.557 363.34 266.757 364.586 268.088C366.159 269.767 365.737 272.471 364.85 274.593C359.95 286.379 345.841 290.972 333.232 293.011C304.518 297.668 275.223 296.337 246.14 296.01C188.215 295.376 130.133 298.787 72.4199 293.739C71.1977 293.742 69.9987 293.406 68.9561 292.768C67.9274 291.856 67.2948 290.58 67.1925 289.209C66.2104 282.186 71.8285 275.586 78.4394 273.02C85.0502 270.454 92.3897 270.908 99.4652 271.425C129.446 273.537 159.554 275.332 189.525 273.073C209.154 271.761 228.569 268.218 247.396 262.512C256.045 259.819 264.8 254.518 273.639 252.902C276.364 252.406 279.13 252.744 281.876 252.606C285.868 252.406 292.373 250.251 296.09 252.142Z" fill="url(#paint0_linear)"/>
<path d="M15.1927 201.684C15.2983 205.221 17.0408 208.474 18.7832 211.558C26.7142 225.55 35.5849 239.321 47.8351 249.713C65.8724 264.973 89.4961 271.541 112.307 277.708C110.258 276.716 107.808 266.208 106.9 263.895C105.136 259.365 103.489 254.792 101.788 250.251C99.1167 243.06 93.4774 237.272 88.0599 231.982C75.6446 220.044 60.5847 211.208 44.1072 206.193C34.7293 203.337 24.9951 201.818 15.1927 201.684Z" fill="#37966F"/>
<path d="M104.439 209.498C102.581 196.488 100.669 183.298 95.4311 171.238C90.1931 159.178 81.1216 148.248 68.7976 143.622L67.7415 199.54C67.5303 210.301 67.3508 221.273 70.4345 231.591C75.8625 249.67 94.6602 270.886 112.782 276.864C115.464 268.172 110.955 255.025 109.614 246.006L104.439 209.498Z" fill="#B9E4C9"/>
<path d="M329.113 192.707C329.018 196.235 327.265 199.498 325.523 202.571C317.613 216.563 308.731 230.345 296.46 240.726C278.423 255.986 254.81 262.565 232.041 268.722C234.079 267.729 236.529 257.221 237.438 254.909C239.201 250.378 240.849 245.816 242.549 241.264C245.221 234.073 250.86 228.296 256.341 223.005C268.732 211.068 283.771 202.231 300.23 197.217C309.595 194.351 319.32 192.833 329.113 192.707Z" fill="#37966F"/>
<path d="M239.867 200.533C241.725 187.522 243.637 174.322 248.875 162.272C254.113 150.223 263.184 139.229 275.508 134.646C275.867 153.289 276.219 171.924 276.564 190.553C276.765 201.325 276.955 212.297 273.861 222.615C268.443 240.694 249.635 261.91 231.524 267.877C228.831 259.196 233.34 246.038 234.629 237.019L239.867 200.533Z" fill="#B9E4C9"/>
<path d="M221.101 18.4174L123.342 28.038C113.247 29.0307 105.052 37.5424 105.052 46.9941V266.176C105.052 275.681 113.247 282.524 123.342 281.531L221.101 271.911C231.207 270.918 239.402 262.406 239.402 252.965V33.7829C239.402 24.2996 231.207 17.4248 221.101 18.4174ZM230.067 253.43C230.067 259.27 225.019 264.497 218.799 265.11L123.807 274.456C117.576 275.068 112.529 270.834 112.529 264.951V46.3499C112.529 40.5099 117.576 35.2825 123.807 34.67L138.043 33.2655V34.5644C138.043 38.3028 141.274 41.0168 145.255 40.6261L197.794 35.5254C199.699 35.3642 201.48 34.5177 202.809 33.1428C204.137 31.7679 204.922 29.9579 205.017 28.0486V26.8025L218.746 25.4507C224.966 24.8382 230.014 29.073 230.014 34.9551L230.067 253.43Z" fill="#37966F"/>
<path d="M225.705 22.4621L127.936 32.0827C117.84 33.0753 109.646 41.5871 109.646 51.0915V270.221C109.646 279.726 117.84 286.569 127.936 285.576L225.705 275.966C235.801 274.973 243.996 266.462 243.996 257.01V37.8276C243.996 28.3548 235.811 21.5222 225.705 22.4621ZM234.671 257.475C234.671 263.315 229.623 268.542 223.392 269.154L128.348 278.501C122.117 279.113 117.07 274.878 117.07 268.996V50.3945C117.07 44.5546 122.117 39.3166 128.348 38.7041L142.636 37.3629V38.6513C142.636 42.3897 145.868 45.1037 149.849 44.713L202.398 39.5489C204.298 39.3813 206.073 38.5338 207.398 37.1622C208.723 35.7906 209.509 33.987 209.611 32.0827V30.8048L223.392 29.4425C229.623 28.83 234.671 33.0753 234.671 38.947V257.475Z" fill="white"/>
<path d="M234.671 38.9153V257.517C234.671 263.357 229.623 268.584 223.392 269.197L128.348 278.543C122.117 279.155 117.069 274.921 117.069 269.038V50.4368C117.069 44.5968 122.117 39.3588 128.348 38.7463L142.636 37.3629V38.6513C142.636 42.3897 145.868 45.1037 149.849 44.713L202.398 39.5489C204.298 39.3813 206.073 38.5338 207.398 37.1622C208.723 35.7907 209.509 33.987 209.611 32.0827V30.8049L223.392 29.4426C229.623 28.83 234.671 33.0754 234.671 38.9153Z" stroke="url(#paint1_linear)" stroke-width="0.665309" stroke-miterlimit="10"/>
<path d="M234.671 38.9153V257.517C234.671 263.357 229.623 268.584 223.392 269.197L128.348 278.543C122.117 279.155 117.069 274.921 117.069 269.038V50.4368C117.069 44.5968 122.117 39.3588 128.348 38.7463L142.636 37.3629V38.6513C142.636 42.3897 145.868 45.1037 149.849 44.713L202.398 39.5489C204.298 39.3813 206.073 38.5338 207.398 37.1622C208.723 35.7907 209.509 33.987 209.611 32.0827V30.8049L223.392 29.4426C229.623 28.83 234.671 33.0754 234.671 38.9153Z" fill="#37966F"/>
<path d="M202.229 246.333L154.496 250.906C153.823 250.962 153.146 250.877 152.508 250.657C151.869 250.438 151.284 250.088 150.787 249.631C150.291 249.173 149.895 248.617 149.625 247.999C149.354 247.381 149.215 246.713 149.216 246.038V234.094C149.215 232.865 149.672 231.68 150.498 230.77C151.324 229.86 152.46 229.291 153.683 229.173L201.395 224.6C202.073 224.535 202.756 224.613 203.402 224.828C204.048 225.043 204.642 225.392 205.145 225.85C205.649 226.309 206.05 226.867 206.325 227.491C206.599 228.114 206.74 228.787 206.738 229.468V241.412C206.735 242.647 206.271 243.836 205.437 244.746C204.603 245.657 203.459 246.223 202.229 246.333Z" fill="url(#paint2_linear)"/>
<path d="M183.284 36.7082L165.225 38.4824V36.9828L183.284 35.2086V36.7082Z" fill="url(#paint3_linear)"/>
<path d="M188.949 36.8035C189.911 36.2413 190.285 35.0917 189.784 34.2357C189.284 33.3797 188.099 33.1416 187.137 33.7038C186.175 34.266 185.801 35.4156 186.302 36.2716C186.802 37.1276 187.987 37.3657 188.949 36.8035Z" fill="url(#paint4_linear)"/>
<path d="M140.767 204.334L209.632 197.734C211.954 197.525 214.112 196.449 215.677 194.722C217.242 192.994 218.1 190.74 218.08 188.409V110.716C218.069 109.304 217.767 107.909 217.192 106.619C216.617 105.329 215.782 104.171 214.739 103.219C213.696 102.266 212.468 101.539 211.131 101.083C209.795 100.626 208.378 100.451 206.971 100.567L138.106 107.168C135.785 107.375 133.627 108.448 132.061 110.174C130.496 111.9 129.638 114.152 129.658 116.482V194.186C129.669 195.598 129.971 196.993 130.546 198.283C131.121 199.573 131.956 200.731 132.999 201.683C134.042 202.636 135.27 203.363 136.607 203.819C137.943 204.275 139.36 204.451 140.767 204.334Z" fill="#C9D9DF"/>
<path d="M144.833 205.433L213.698 198.832C216.019 198.625 218.177 197.552 219.742 195.826C221.308 194.1 222.166 191.848 222.146 189.518V111.814C222.135 110.402 221.832 109.007 221.257 107.717C220.683 106.427 219.848 105.269 218.805 104.317C217.762 103.364 216.534 102.637 215.197 102.181C213.861 101.725 212.444 101.549 211.037 101.666L142.172 108.266C139.85 108.475 137.692 109.551 136.126 111.278C134.561 113.006 133.703 115.26 133.723 117.591V195.284C133.735 196.696 134.037 198.091 134.612 199.381C135.187 200.671 136.022 201.829 137.065 202.781C138.107 203.734 139.336 204.461 140.672 204.917C142.009 205.374 143.425 205.549 144.833 205.433Z" fill="url(#paint5_linear)"/>
<path d="M147.484 122.501L172.195 120.516V145.323L147.484 147.308V122.501ZM168.098 141.51V125.015L151.581 126.345V142.936L168.098 141.51Z" fill="#473F47"/>
<path d="M188.859 119.154L213.55 117.168V141.996L188.859 144.024V119.154ZM209.463 138.226V121.635L192.936 122.966V139.557L209.463 138.226Z" fill="#473F47"/>
<path d="M172.195 186.846L147.484 188.832V164.089L172.195 162.103V186.846ZM151.56 184.386L168.119 183.097V166.517L151.56 167.848V184.386Z" fill="#473F47"/>
<path d="M180.485 123.959L184.604 123.631V131.879L180.517 132.206V136.325L176.451 136.652V120.178L180.485 119.851V123.959Z" fill="#473F47"/>
<path d="M213.56 154.457L205.387 155.112V150.994L197.128 151.648V147.583L213.56 146.262V154.457Z" fill="#473F47"/>
<path d="M209.474 171.481V175.557L213.55 175.23V183.478L205.408 184.132V171.84L209.474 171.481Z" fill="#473F47"/>
<path d="M155.679 150.909V154.996L159.776 154.669V158.808L147.494 159.801V151.606L155.679 150.909Z" fill="#473F47"/>
<path d="M180.517 148.881L192.851 147.889V156.137L184.635 156.802V152.578L180.517 152.905V148.786V148.881Z" fill="#473F47"/>
<path d="M188.859 160.646L192.946 160.318V156.221L201.141 155.556V163.751L188.859 164.733V160.646Z" fill="#473F47"/>
<path d="M184.635 156.802V165.049L176.419 165.715V157.467L184.678 156.802H184.635Z" fill="#473F47"/>
<path d="M184.625 177.659L186.842 177.437L192.26 177.004H192.872V185.209L184.678 185.875V178.271C184.678 178.071 184.678 177.88 184.678 177.68L184.625 177.659Z" fill="#473F47"/>
<path d="M176.419 157.467L168.193 158.122V154.024L172.259 153.697V149.547L176.409 149.209V157.499L176.419 157.467Z" fill="#473F47"/>
<path d="M213.56 166.898L209.516 167.225V163.117L205.418 163.444V159.357L213.56 158.703V166.898Z" fill="#473F47"/>
<path d="M180.548 177.954V173.73L176.451 174.058V170.002L184.625 169.348V177.638C183.991 177.638 183.368 177.638 182.745 177.722C182.122 177.806 181.266 177.87 180.527 177.944L180.548 177.954Z" fill="#473F47"/>
<path d="M180.559 144.752V136.462L184.604 136.135V144.414L180.538 144.742L180.559 144.752Z" fill="#473F47"/>
<path d="M180.538 177.944V185.495V186.17L176.472 186.498V178.292L180.58 177.954L180.538 177.944Z" fill="#473F47"/>
<path d="M168.055 149.916V153.961L159.913 154.616V150.571L168.055 149.916Z" fill="#473F47"/>
<path d="M197.128 172.368V168.313L205.281 167.658V171.681L197.128 172.368Z" fill="#473F47"/>
<path d="M197.128 184.829V176.655L201.141 176.328V184.502L197.128 184.829Z" fill="#473F47"/>
<path d="M176.409 149.209V145.08L180.559 144.742C180.559 146.125 180.559 147.498 180.559 148.881L176.419 149.219L176.409 149.209Z" fill="#473F47"/>
<path d="M188.849 173.033V168.999L192.862 168.682V172.706L188.849 173.033Z" fill="#473F47"/>
<path d="M184.709 169.21V165.145L188.733 164.817V168.851L184.709 169.21Z" fill="#473F47"/>
<path d="M197.002 176.539L192.999 176.867V172.822L197.002 172.495V176.539Z" fill="#473F47"/>
<path d="M163.926 129.492L155.763 130.147V138.321L163.926 137.666V129.492Z" fill="#473F47"/>
<path d="M205.281 134.361V126.166L197.15 126.821V135.016L205.281 134.361Z" fill="#473F47"/>
<path d="M155.742 179.855L163.905 179.2V171.016L155.742 171.671V179.855Z" fill="#473F47"/>
<path d="M163.926 129.492V137.687L155.763 138.342V130.168L163.926 129.492Z" fill="#473F47"/>
<path d="M205.281 134.361L197.15 135.016V126.821L205.281 126.166V134.361Z" fill="#473F47"/>
<path d="M155.742 179.855V171.671L163.905 171.016V179.2L155.742 179.855Z" fill="#473F47"/>
<path d="M204.616 244.749L156.904 249.311C156.226 249.378 155.543 249.302 154.897 249.087C154.251 248.873 153.657 248.526 153.153 248.069C152.65 247.611 152.248 247.053 151.974 246.43C151.699 245.807 151.558 245.134 151.56 244.454V232.51C151.56 231.281 152.017 230.096 152.843 229.186C153.669 228.276 154.804 227.707 156.027 227.589L203.739 223.016C204.417 222.951 205.101 223.029 205.747 223.244C206.393 223.459 206.986 223.807 207.49 224.266C207.993 224.725 208.395 225.283 208.669 225.907C208.944 226.53 209.084 227.203 209.083 227.884V239.828C209.083 241.057 208.626 242.242 207.8 243.152C206.974 244.062 205.839 244.631 204.616 244.749Z" fill="white"/>
<path d="M165.732 239.585L167.696 239.395C167.7 239.495 167.725 239.594 167.771 239.683C167.817 239.773 167.881 239.851 167.96 239.913C168.174 240.046 168.429 240.099 168.678 240.06C168.928 240.041 169.168 239.957 169.375 239.818C169.469 239.76 169.545 239.679 169.597 239.583C169.649 239.486 169.674 239.378 169.671 239.268C169.678 239.216 169.678 239.163 169.671 239.11C169.611 239.032 169.535 238.968 169.449 238.92C169.276 238.818 169.087 238.747 168.89 238.709L167.95 238.498C167.582 238.437 167.226 238.319 166.894 238.149C166.636 238.024 166.414 237.835 166.25 237.6C166.009 237.256 165.88 236.847 165.88 236.428C165.875 236.091 165.943 235.756 166.079 235.448C166.216 235.14 166.418 234.865 166.672 234.643C167.23 234.151 167.936 233.857 168.678 233.809C169.375 233.702 170.087 233.868 170.664 234.273C170.919 234.469 171.123 234.725 171.258 235.017C171.392 235.31 171.453 235.631 171.435 235.952L169.492 236.132C169.492 235.657 169.217 235.446 168.657 235.498C168.431 235.504 168.213 235.581 168.034 235.72C167.965 235.776 167.909 235.847 167.87 235.927C167.832 236.007 167.812 236.096 167.813 236.185C167.813 236.459 168.055 236.649 168.552 236.744L169.47 236.945C170.949 237.241 171.688 238.001 171.688 239.057C171.697 239.566 171.529 240.063 171.213 240.462C170.92 240.841 170.534 241.139 170.094 241.328C169.659 241.52 169.195 241.638 168.721 241.676C167.985 241.787 167.234 241.626 166.609 241.222C166.338 241.044 166.115 240.801 165.962 240.515C165.809 240.229 165.73 239.91 165.732 239.585Z" fill="#68E1FD"/>
<path d="M178.394 238.012L179.989 238.93C179.619 239.511 179.12 239.999 178.531 240.356C177.944 240.723 177.278 240.947 176.588 241.011C176.072 241.075 175.549 241.029 175.052 240.876C174.555 240.723 174.096 240.467 173.705 240.124C173.32 239.793 173.013 239.381 172.806 238.917C172.6 238.453 172.499 237.949 172.512 237.441C172.513 236.354 172.942 235.311 173.705 234.537C174.45 233.714 175.482 233.208 176.588 233.122C177.253 233.048 177.926 233.146 178.542 233.407C179.123 233.656 179.627 234.058 179.999 234.569L178.384 235.794C178.197 235.513 177.933 235.293 177.623 235.16C177.293 235.01 176.928 234.951 176.567 234.991C175.99 235.04 175.453 235.308 175.068 235.741C174.672 236.148 174.452 236.694 174.455 237.262C174.445 237.527 174.495 237.791 174.601 238.034C174.707 238.277 174.866 238.493 175.068 238.666C175.269 238.847 175.508 238.983 175.767 239.063C176.025 239.143 176.298 239.166 176.567 239.131C176.943 239.104 177.305 238.984 177.623 238.783C177.936 238.588 178.199 238.324 178.394 238.012Z" fill="#68E1FD"/>
<path d="M186.093 239.987L185.417 238.286L182.903 238.519L182.228 240.346L180.115 240.536L183.072 232.573L185.185 232.383L188.12 239.775L186.093 239.987ZM184.139 234.263L183.421 236.861L184.92 236.723L184.139 234.263Z" fill="#68E1FD"/>
<path d="M193.063 231.675L194.995 231.496V239.195L193.306 239.342L190.855 235.372V239.596L188.912 239.775V232.077L190.665 231.918L193.063 235.836V231.675Z" fill="#68E1FD"/>
<path d="M268.158 124.497L216.359 100.525L131.558 110.779L133.713 201.261L140.767 204.334L218.07 198.135L222.136 189.518L267.387 128.046L268.158 124.497Z" fill="url(#paint6_linear)"/>
<path d="M266.141 130.041V122.459C266.14 122.208 266.206 121.961 266.333 121.744C266.459 121.527 266.641 121.347 266.859 121.224L271.083 118.869C271.527 118.615 273.28 119.639 273.28 120.146L272.087 133.157L269.119 135.448L266.152 133.706L266.141 130.041Z" fill="white"/>
<path d="M266.141 130.041V122.459C266.14 122.208 266.206 121.961 266.333 121.744C266.459 121.527 266.641 121.347 266.859 121.224L271.083 118.869C271.527 118.615 273.28 119.639 273.28 120.146L272.087 133.157L269.119 135.448L266.152 133.706L266.141 130.041Z" fill="url(#paint7_linear)"/>
<path d="M267.387 130.981V123.388C267.386 123.139 267.452 122.893 267.579 122.678C267.705 122.462 267.887 122.285 268.105 122.163L272.33 119.798C272.432 119.741 272.547 119.712 272.663 119.713C272.78 119.714 272.895 119.746 272.996 119.804C273.097 119.863 273.181 119.946 273.24 120.047C273.299 120.148 273.331 120.262 273.333 120.379V134.107L270.365 136.388L267.398 134.656L267.387 130.981Z" fill="white"/>
<path d="M268.158 130.665V124.497L272.963 121.466V131.668L271.907 135.1L269.668 135.839C269.668 135.839 268.475 135.332 268.475 135.174" fill="#68E1FD"/>
<path d="M335.323 186.836L334.689 187.691L336.97 155.207L337.424 148.681L337.646 145.513L338.839 148.079C341.078 152.799 345.725 162.673 347.024 165.377C348.513 168.482 338.037 183.097 335.323 186.836Z" fill="white"/>
<path opacity="0.1" d="M335.323 186.836C335.059 186.213 334.961 185.533 335.037 184.861C335.316 183.378 335.954 181.985 336.896 180.806C339.409 177.11 342.556 173.192 344.003 168.904C345.904 163.233 339.673 159.716 336.97 155.175C336.278 154.113 335.868 152.892 335.777 151.627C335.732 151.024 335.863 150.421 336.156 149.892C336.449 149.363 336.889 148.931 337.424 148.649C337.863 148.377 338.34 148.17 338.839 148.037C341.078 152.757 345.725 162.631 347.024 165.335C348.513 168.482 338.037 183.097 335.323 186.836Z" fill="#020202"/>
<path d="M319.851 276.209C318.848 276.668 318.018 277.438 317.486 278.405C317.376 278.62 317.342 278.866 317.391 279.102C317.468 279.278 317.583 279.433 317.727 279.559C317.871 279.685 318.041 279.778 318.225 279.831C320.886 280.887 323.896 280.687 326.674 280.18C329.461 279.497 332.308 279.083 335.175 278.944C335.417 278.983 335.666 278.969 335.903 278.904C336.14 278.838 336.36 278.722 336.548 278.564C336.724 278.299 336.81 277.984 336.79 277.666C336.906 275.174 336.473 272.687 335.523 270.38C335.587 270.527 327.994 270.834 327.339 271.277C326.135 272.111 325.132 273.178 323.843 273.949C322.555 274.72 321.193 275.449 319.851 276.209Z" fill="#282328"/>
<path d="M329.947 221.854C329.896 231.574 330.659 241.282 332.228 250.874C332.482 252.543 332.756 254.201 333.094 255.859C335.587 268.109 335.787 271.224 335.787 271.224H325.776C325.776 271.224 318.384 236.533 315.638 228.634C313.561 222.647 311.941 216.512 310.791 210.28C310.342 207.327 310.707 204.308 311.847 201.546C312.233 200.458 312.785 199.436 313.484 198.516C314.844 197.013 316.546 195.861 318.447 195.157C322.49 193.329 326.863 192.345 331.299 192.264C331.806 192.221 332.313 192.331 332.756 192.581C333.04 192.814 333.264 193.11 333.411 193.447C334.71 196.087 334.467 199.191 334.066 202.106C333.891 203.725 333.537 205.318 333.01 206.858C332.418 208.432 331.489 209.858 330.951 211.452C330.492 212.987 330.223 214.572 330.148 216.173C330.085 218.063 329.99 219.953 329.947 221.854Z" fill="#282328"/>
<path d="M304.856 214.187C305.066 215.45 305.148 216.731 305.099 218.01C305.056 220.304 305.13 222.599 305.32 224.885C305.88 235.773 307.527 246.618 307.538 257.517C307.538 266.81 307.232 276.526 307.232 276.526C307.232 276.526 315.332 279.018 317.201 277.149L320.316 232.267C320.791 228.877 321.52 225.434 321.763 222.023C321.974 219.056 322.038 216.542 323.146 213.691C324.393 210.523 326.167 207.534 327.128 204.239C327.749 202.13 328.017 199.931 327.92 197.734C327.951 197.06 327.766 196.394 327.392 195.833C327.023 195.451 326.571 195.159 326.072 194.978C320.464 192.486 314.645 189.951 308.51 190.004C308.015 189.963 307.518 190.069 307.084 190.31C306.67 190.652 306.372 191.113 306.229 191.63C303.972 197.587 303.277 204.021 304.211 210.322C304.454 211.684 304.666 212.931 304.856 214.187Z" fill="#473F47"/>
<path d="M274.61 137.687C274.368 136.262 274.399 134.773 274.273 133.326C274.267 132.758 274.114 132.201 273.829 131.71C273.677 131.47 273.447 131.29 273.178 131.199C272.909 131.109 272.617 131.114 272.351 131.214C271.696 131.541 271.675 132.439 271.696 133.167C271.717 133.896 271.527 134.825 270.809 134.963C270.538 134.989 270.266 134.934 270.027 134.804C269.669 134.612 269.361 134.34 269.126 134.008C268.891 133.676 268.737 133.294 268.676 132.893C268.612 132.418 268.676 131.921 268.591 131.446C268.316 130.073 266.542 130.306 265.719 131.024C265.233 131.492 264.839 132.048 264.557 132.661C263.96 133.698 263.522 134.82 263.258 135.987C262.381 140.75 268.126 141.774 270.555 144.816C270.904 145.288 271.293 145.729 271.717 146.136C272.129 146.489 272.627 146.728 273.161 146.828C273.695 146.928 274.246 146.886 274.758 146.706C275.268 146.518 275.718 146.198 276.064 145.779C276.409 145.359 276.636 144.856 276.723 144.319C277.008 142.545 275.719 140.95 275.086 139.261C274.878 138.753 274.719 138.226 274.61 137.687Z" fill="#FFBBAB"/>
<path d="M315.912 125.311C316.011 125.445 316.086 125.595 316.134 125.754C316.208 126.077 316.208 126.413 316.134 126.736C315.706 128.646 315.413 130.583 315.258 132.534C315.176 133.08 315.28 133.638 315.553 134.118C315.989 134.582 316.586 134.862 317.222 134.899C318.147 135.047 319.084 135.111 320.02 135.09C320.39 135.09 320.844 135.09 321.076 135.396C321.155 135.535 321.198 135.69 321.203 135.85C321.247 136.577 321.105 137.304 320.791 137.962C320.599 138.28 320.504 138.647 320.517 139.018C320.591 139.694 321.573 139.631 322.08 139.662C324.002 139.757 325.934 139.768 327.856 139.662C328.188 139.676 328.519 139.607 328.817 139.462C329.335 139.155 329.451 138.469 329.599 137.888C330.254 135.195 332.334 133.104 333.453 130.57C334.03 129.219 334.333 127.768 334.346 126.3C334.358 124.832 334.08 123.376 333.527 122.016C332.996 120.72 332.238 119.529 331.288 118.499C330.423 117.538 328.754 117.337 327.55 117.084C325.438 116.64 323.094 116.514 321.214 117.644C319.102 118.911 318.13 121.509 316.007 122.723C315.638 122.934 315.184 123.146 315.057 123.557C315.024 123.767 315.043 123.981 315.111 124.181C315.179 124.382 315.294 124.563 315.448 124.709C315.585 124.92 315.765 125.099 315.912 125.311Z" fill="#FFBBAB"/>
<path d="M321.795 116.904C321.842 117.232 321.942 117.549 322.09 117.844C322.766 119.249 323.653 118.9 324.868 119.08C326.346 119.344 327.307 121.002 327.614 122.354C327.877 123.992 327.824 125.667 327.455 127.285C327.78 127.017 328.181 126.858 328.602 126.829C329.022 126.801 329.441 126.905 329.8 127.127C330.148 127.37 330.42 127.708 330.581 128.102C330.742 128.495 330.786 128.927 330.708 129.345C330.62 129.764 330.418 130.152 330.123 130.463C329.829 130.774 329.453 130.998 329.039 131.108C328.627 131.214 328.142 131.235 327.888 131.573C327.751 131.817 327.692 132.097 327.719 132.375C327.719 134.171 327.793 136.124 328.934 137.518C330.518 137.36 331.722 136.093 332.904 135.037C334.583 133.537 336.505 132.312 338.121 130.739C339.834 129.236 340.898 127.127 341.089 124.856C341.141 121.213 337.921 118.404 336.738 114.972C336.526 114.199 336.247 113.446 335.903 112.722C335.587 112.225 335.17 111.8 334.679 111.474C334.188 111.148 333.635 110.928 333.054 110.828C332.473 110.729 331.878 110.752 331.306 110.896C330.735 111.041 330.2 111.303 329.736 111.666C328.885 111.106 327.888 110.808 326.869 110.808C325.85 110.808 324.853 111.106 324.002 111.666C323.222 112.283 322.611 113.086 322.225 114.002C321.839 114.917 321.691 115.916 321.795 116.904Z" fill="#FC682D"/>
<path d="M337.255 156.971C336.819 160.374 336.677 163.808 336.833 167.235C336.928 170.583 337.086 173.91 337.223 177.257C336.579 180.14 335.861 183.023 335.111 185.875C334.635 188.204 333.85 190.459 332.778 192.581C332.236 193.601 331.522 194.519 330.665 195.295C329.822 196.035 328.862 196.631 327.825 197.058C325.387 197.961 322.781 198.321 320.189 198.114C318.362 198.042 316.548 197.766 314.782 197.291C312.513 196.724 310.406 195.64 308.626 194.122C307.732 193.323 306.95 192.407 306.302 191.398C304.751 188.911 303.813 186.092 303.567 183.171C303.037 178.378 303.656 173.527 305.373 169.02C305.468 168.756 305.574 168.503 305.679 168.239C306.408 166.38 307.137 164.521 307.886 162.663C307.886 162.663 307.886 162.61 307.886 162.589C308.003 162.293 308.119 162.019 308.224 161.733L308.288 161.575L307.876 161.744L307.443 161.902C307.305 161.958 307.164 162.004 307.021 162.04C306.714 162.156 306.387 162.24 306.081 162.325L305.025 162.589C304.423 162.716 303.81 162.832 303.198 162.906L302.363 163.001C294.686 163.677 286.311 160.572 279.891 157.14C277.795 156.074 275.878 154.688 274.209 153.032C273.861 152.662 273.534 152.274 273.227 151.87C272.458 150.858 271.892 149.707 271.558 148.48C271.326 147.737 271.326 146.942 271.558 146.199C271.574 146.169 271.591 146.141 271.611 146.115C271.843 145.606 272.165 145.145 272.562 144.752C273.537 143.683 274.57 142.668 275.656 141.711L275.994 141.415C276.285 141.16 276.627 140.969 276.997 140.855C277.362 140.774 277.74 140.773 278.105 140.853C278.47 140.934 278.813 141.093 279.109 141.32C279.649 141.697 280.151 142.125 280.609 142.598C283.541 145.393 287.018 147.553 290.823 148.941C294.628 150.329 298.68 150.917 302.722 150.666C304.942 150.573 307.123 150.049 309.143 149.124C310.916 148.164 312.562 146.986 314.043 145.618C315.382 144.522 316.658 143.351 317.866 142.112C318.183 141.774 318.51 141.426 318.795 141.056C319.081 140.686 319.26 140.486 319.482 140.201L319.756 139.842C319.997 139.475 320.314 139.166 320.686 138.933C321.218 138.689 321.801 138.573 322.386 138.596C324.678 138.5 327.17 138.067 329.43 138.12H329.673C329.893 138.129 330.111 138.153 330.327 138.194C331.11 138.317 331.841 138.657 332.44 139.176C333.175 139.883 333.846 140.653 334.446 141.479C335.852 143.019 336.955 144.81 337.699 146.759C338.797 149.99 337.762 153.528 337.255 156.971Z" fill="white"/>
<path d="M339.895 156.622C339.887 160.285 339.608 163.942 339.061 167.563C338.586 170.826 338.005 174.047 337.224 177.257C337.086 173.91 336.928 170.583 336.833 167.236C336.677 163.808 336.819 160.374 337.255 156.971C337.762 153.539 338.797 149.99 337.73 146.695C336.987 144.747 335.884 142.956 334.478 141.415C333.878 140.59 333.207 139.82 332.471 139.113C334.583 140.708 336.252 143.675 337.646 145.449C340.022 148.565 339.874 152.905 339.895 156.622Z" fill="white"/>
<path opacity="0.1" d="M339.895 156.622C339.887 160.285 339.608 163.942 339.061 167.563C338.586 170.826 338.005 174.047 337.224 177.257C337.086 173.91 336.928 170.583 336.833 167.236C336.677 163.808 336.819 160.374 337.255 156.971C337.762 153.539 338.797 149.99 337.73 146.695C336.987 144.747 335.884 142.956 334.478 141.415C333.878 140.59 333.207 139.82 332.471 139.113C334.583 140.708 336.252 143.675 337.646 145.449C340.022 148.565 339.874 152.905 339.895 156.622Z" fill="#020202"/>
<path opacity="0.1" d="M337.255 156.971C336.819 160.374 336.677 163.808 336.833 167.235C336.928 170.583 337.086 173.91 337.223 177.257C336.579 180.14 335.861 183.023 335.111 185.875C334.635 188.204 333.85 190.459 332.778 192.581C332.236 193.601 331.522 194.519 330.665 195.295C329.822 196.035 328.862 196.631 327.825 197.058C325.387 197.961 322.781 198.321 320.189 198.114C318.362 198.042 316.548 197.766 314.782 197.291C312.513 196.724 310.406 195.64 308.626 194.122C307.732 193.323 306.95 192.407 306.302 191.398C304.751 188.911 303.813 186.092 303.567 183.171C303.037 178.378 303.656 173.527 305.373 169.02C305.468 168.756 305.574 168.503 305.679 168.239C306.513 166.42 307.25 164.559 307.886 162.663C307.886 162.663 307.886 162.61 307.886 162.589C307.971 162.272 308.045 161.976 308.119 161.67C308.041 161.704 307.96 161.729 307.876 161.744L307.443 161.902C307.305 161.958 307.164 162.004 307.021 162.04C306.714 162.156 306.387 162.24 306.081 162.325L305.025 162.589C304.423 162.716 303.81 162.832 303.198 162.906L302.363 163.001C294.58 163.793 286.597 160.751 279.891 157.14C277.795 156.074 275.878 154.688 274.209 153.032C273.861 152.662 273.534 152.274 273.227 151.87C272.458 150.858 271.892 149.707 271.558 148.48C271.326 147.737 271.326 146.942 271.558 146.199C271.574 146.169 271.591 146.141 271.611 146.115C271.843 145.606 272.165 145.145 272.562 144.752C273.537 143.683 274.57 142.668 275.656 141.711L275.994 141.415C276.285 141.16 276.627 140.969 276.997 140.855C277.362 140.774 277.74 140.773 278.105 140.853C278.47 140.934 278.813 141.093 279.109 141.32C279.649 141.697 280.151 142.125 280.609 142.598C283.541 145.393 287.018 147.553 290.823 148.941C294.628 150.329 298.68 150.917 302.722 150.666C304.942 150.573 307.123 150.049 309.143 149.124C310.916 148.164 312.562 146.986 314.043 145.618C315.382 144.522 316.658 143.351 317.866 142.112C318.183 141.774 318.51 141.426 318.795 141.056C319.081 140.686 319.26 140.486 319.482 140.201L319.756 139.842C319.997 139.475 320.314 139.166 320.686 138.933C321.218 138.689 321.801 138.573 322.386 138.596C324.678 138.5 327.17 138.067 329.43 138.12H329.673C329.893 138.129 330.111 138.153 330.327 138.194C331.094 138.365 331.815 138.7 332.44 139.176C333.175 139.883 333.846 140.653 334.446 141.479C335.852 143.019 336.955 144.81 337.699 146.759C338.797 149.99 337.762 153.528 337.255 156.971Z" fill="#020202"/>
<path d="M301.181 282.112C300.175 282.568 299.344 283.339 298.815 284.309C298.705 284.523 298.671 284.769 298.72 285.006C298.796 285.181 298.911 285.336 299.055 285.46C299.2 285.585 299.37 285.675 299.554 285.724C302.216 286.78 305.225 286.59 308.055 286.083C310.847 285.399 313.697 284.986 316.567 284.847C316.808 284.886 317.055 284.871 317.29 284.806C317.525 284.74 317.743 284.625 317.93 284.467C318.106 284.203 318.192 283.887 318.172 283.57C318.288 281.077 317.855 278.59 316.905 276.283C316.969 276.431 309.376 276.726 308.731 277.18C307.517 278.015 306.514 279.081 305.225 279.852C303.937 280.623 302.522 281.31 301.181 282.112Z" fill="#282328"/>
<path d="M288.466 153.898C283.407 152.092 278.254 150.307 274.22 146.674C273.754 146.341 273.433 145.842 273.322 145.28C273.358 144.933 273.472 144.597 273.654 144.299C273.837 144.002 274.084 143.748 274.378 143.559C275.1 142.831 275.921 142.208 276.818 141.711C277.266 141.462 277.762 141.309 278.273 141.264C278.785 141.218 279.3 141.281 279.785 141.447C280.462 141.788 281.07 142.25 281.58 142.809C285.295 146.152 289.865 148.396 294.781 149.293C299.565 150.349 304.835 150.413 309.428 148.554C312.09 147.498 317.877 140.496 320.464 141.521C323.051 142.545 321.911 147.709 320.654 149.314C317.94 152.768 311.065 154.405 306.926 155.186C300.767 156.406 294.395 155.961 288.466 153.898Z" fill="white"/>
<path d="M328.743 142.482C329.326 142.208 329.843 141.811 330.258 141.319C330.674 140.827 330.979 140.251 331.151 139.631C329.762 139.345 328.338 139.273 326.927 139.419L322.882 139.62L320.221 139.757C318.563 139.852 318.531 140.581 319.165 141.721C319.461 142.26 320.221 142.693 320.538 143.274C320.855 143.855 320.908 144.478 321.288 144.921C322.344 146.189 322.639 145.47 324.002 144.647C325.364 143.823 327.191 143.327 328.743 142.482Z" fill="white"/>
<path d="M263.163 45.2727L310.632 40.2881L276.691 53.5838L263.163 45.2727Z" fill="#37966F"/>
<path d="M310.632 40.2881L282.341 67.6609L276.691 53.5838L310.632 40.2881Z" fill="#68E1FD"/>
<path d="M310.632 40.2881L282.341 67.6609L276.691 53.5838L310.632 40.2881Z" fill="url(#paint8_linear)"/>
<path d="M271.094 68.6007L276.691 53.5838L310.632 40.2881L271.094 68.6007Z" fill="#37966F"/>
<path d="M310.632 40.2881L276.691 50.6796L263.163 45.2727L276.691 53.5838L310.632 40.2881Z" fill="url(#paint9_linear)"/>
</g>
<defs>
<linearGradient id="paint0_linear" x1="256.425" y1="131.562" x2="172.269" y2="441.353" gradientUnits="userSpaceOnUse">
<stop offset="0.01"/>
<stop offset="0.13" stop-opacity="0.69"/>
<stop offset="0.25" stop-opacity="0.32"/>
<stop offset="1" stop-opacity="0"/>
</linearGradient>
<linearGradient id="paint1_linear" x1="80.8799" y1="92.0735" x2="258.53" y2="232.649" gradientUnits="userSpaceOnUse">
<stop stop-color="white"/>
<stop offset="1" stop-color="#CBCBCB"/>
</linearGradient>
<linearGradient id="paint2_linear" x1="10850.2" y1="5885.29" x2="10530.4" y2="8221.51" gradientUnits="userSpaceOnUse">
<stop offset="0.01"/>
<stop offset="0.13" stop-opacity="0.69"/>
<stop offset="0.25" stop-opacity="0.32"/>
<stop offset="1" stop-opacity="0"/>
</linearGradient>
<linearGradient id="paint3_linear" x1="1310.74" y1="489.205" x2="1314.11" y2="525.792" gradientUnits="userSpaceOnUse">
<stop stop-color="white"/>
<stop offset="1" stop-color="#CBCBCB"/>
</linearGradient>
<linearGradient id="paint4_linear" x1="606.076" y1="642.377" x2="610.631" y2="671.305" gradientUnits="userSpaceOnUse">
<stop stop-color="white"/>
<stop offset="1" stop-color="#CBCBCB"/>
</linearGradient>
<linearGradient id="paint5_linear" x1="15918.7" y1="13334.8" x2="24051.9" y2="15753.1" gradientUnits="userSpaceOnUse">
<stop stop-color="white"/>
<stop offset="1" stop-color="#CBCBCB"/>
</linearGradient>
<linearGradient id="paint6_linear" x1="291.771" y1="131.478" x2="175.416" y2="154.331" gradientUnits="userSpaceOnUse">
<stop offset="0.01" stop-color="white"/>
<stop offset="1" stop-color="white" stop-opacity="0"/>
</linearGradient>
<linearGradient id="paint7_linear" x1="2119.04" y1="2209.91" x2="2200.37" y2="2246.83" gradientUnits="userSpaceOnUse">
<stop stop-color="white"/>
<stop offset="1" stop-color="#CBCBCB"/>
</linearGradient>
<linearGradient id="paint8_linear" x1="8840.77" y1="1022.42" x2="9818.9" y2="2337.68" gradientUnits="userSpaceOnUse">
<stop offset="0.01"/>
<stop offset="0.13" stop-opacity="0.69"/>
<stop offset="0.25" stop-opacity="0.32"/>
<stop offset="1" stop-opacity="0"/>
</linearGradient>
<linearGradient id="paint9_linear" x1="12476.1" y1="385.31" x2="12476.1" y2="960.744" gradientUnits="userSpaceOnUse">
<stop offset="0.01"/>
<stop offset="0.13" stop-opacity="0.69"/>
<stop offset="0.25" stop-opacity="0.32"/>
<stop offset="1" stop-opacity="0"/>
</linearGradient>
<clipPath id="clip0">
<rect width="406" height="306" fill="white"/>
</clipPath>
</defs>
</svg>
