<svg width="324" height="244" viewBox="0 0 324 244" fill="none" xmlns="http://www.w3.org/2000/svg">
<g clip-path="url(#clip0)">
<path opacity="0.4" d="M78.6967 24.1819C68.7122 33.821 62.2549 46.4722 54.1696 57.7378C38.8794 79.0943 16.7219 97.6012 12.616 123.524C9.85458 140.965 16.1793 158.875 26.218 173.412C36.2567 187.949 49.7984 199.654 63.2196 211.137C71.0576 217.86 79.1368 224.68 88.7535 228.481C104.176 234.572 121.643 232.132 137.627 227.698C153.61 223.264 169.214 216.89 185.722 215.252C206.095 213.227 226.516 218.535 246.979 218.149C267.443 217.764 290.312 209.269 297.456 190.1C302.436 176.744 298.493 161.857 299.536 147.64C301.05 127.103 313 107.969 311.963 87.3959C310.926 66.9792 297.233 49.4 282.136 35.5861C270.319 24.7844 256.861 15.1393 241.366 11.103C227.945 7.6028 213.824 8.50043 199.993 9.42217C176.262 11.0066 152.501 13.1272 128.746 14.1754C109.289 15.0429 95.2832 8.13897 78.6967 24.1819Z" fill="#F4A28C"/>
<path d="M160.628 0C93.185 0 38.5298 54.6292 38.5298 122C38.5298 189.371 93.185 244 160.628 244C228.072 244 282.727 189.389 282.727 122C282.727 54.6111 228.053 0 160.628 0ZM160.628 221.897C140.856 221.898 121.527 216.04 105.086 205.065C88.6455 194.09 75.831 178.49 68.2633 160.238C60.6956 141.986 58.7146 121.901 62.5709 102.524C66.4271 83.1472 75.9474 65.3478 89.9277 51.3771C103.908 37.4063 121.721 27.8916 141.113 24.0361C160.505 20.1806 180.606 22.1576 198.874 29.717C217.142 37.2763 232.756 50.0786 243.742 66.5048C254.728 82.9311 260.592 102.244 260.593 122C260.587 148.488 250.053 173.889 231.307 192.618C212.56 211.346 187.138 221.869 160.628 221.872V221.897Z" fill="#37966F"/>
<path d="M160.628 0C93.185 0 38.5298 54.6292 38.5298 122C38.5298 189.371 93.185 244 160.628 244C228.072 244 282.727 189.389 282.727 122C282.727 54.6111 228.053 0 160.628 0ZM160.628 221.897C140.856 221.898 121.527 216.04 105.086 205.065C88.6455 194.09 75.831 178.49 68.2633 160.238C60.6956 141.986 58.7146 121.901 62.5709 102.524C66.4271 83.1472 75.9474 65.3478 89.9277 51.3771C103.908 37.4063 121.721 27.8916 141.113 24.0361C160.505 20.1806 180.606 22.1576 198.874 29.717C217.142 37.2763 232.756 50.0786 243.742 66.5048C254.728 82.9311 260.592 102.244 260.593 122C260.587 148.488 250.053 173.889 231.307 192.618C212.56 211.346 187.138 221.869 160.628 221.872V221.897Z" fill="url(#paint0_linear)"/>
<path d="M160.074 15.4466C162.751 15.4466 164.921 13.278 164.921 10.603C164.921 7.9279 162.751 5.75934 160.074 5.75934C157.396 5.75934 155.226 7.9279 155.226 10.603C155.226 13.278 157.396 15.4466 160.074 15.4466Z" fill="url(#paint1_linear)"/>
<path d="M65.2032 69.8106C67.8804 69.8106 70.0508 67.6421 70.0508 64.967C70.0508 62.292 67.8804 60.1234 65.2032 60.1234C62.526 60.1234 60.3557 62.292 60.3557 64.967C60.3557 67.6421 62.526 69.8106 65.2032 69.8106Z" fill="url(#paint2_linear)"/>
<path d="M105.37 30.8629C108.047 30.8629 110.218 28.6944 110.218 26.0193C110.218 23.3443 108.047 21.1757 105.37 21.1757C102.693 21.1757 100.523 23.3443 100.523 26.0193C100.523 28.6944 102.693 30.8629 105.37 30.8629Z" fill="url(#paint3_linear)"/>
<path d="M46.5426 123.964C49.2198 123.964 51.3901 121.795 51.3901 119.12C51.3901 116.445 49.2198 114.277 46.5426 114.277C43.8654 114.277 41.6951 116.445 41.6951 119.12C41.6951 121.795 43.8654 123.964 46.5426 123.964Z" fill="url(#paint4_linear)"/>
<path d="M160.074 237.915C162.751 237.915 164.921 235.747 164.921 233.072C164.921 230.397 162.751 228.228 160.074 228.228C157.396 228.228 155.226 230.397 155.226 233.072C155.226 235.747 157.396 237.915 160.074 237.915Z" fill="url(#paint5_linear)"/>
<path d="M65.2032 183.551C67.8804 183.551 70.0508 181.383 70.0508 178.708C70.0508 176.033 67.8804 173.864 65.2032 173.864C62.526 173.864 60.3557 176.033 60.3557 178.708C60.3557 181.383 62.526 183.551 65.2032 183.551Z" fill="url(#paint6_linear)"/>
<path d="M105.37 222.493C108.047 222.493 110.218 220.324 110.218 217.649C110.218 214.974 108.047 212.806 105.37 212.806C102.693 212.806 100.523 214.974 100.523 217.649C100.523 220.324 102.693 222.493 105.37 222.493Z" fill="url(#paint7_linear)"/>
<path d="M255.541 69.8106C258.218 69.8106 260.388 67.6421 260.388 64.967C260.388 62.292 258.218 60.1234 255.541 60.1234C252.864 60.1234 250.693 62.292 250.693 64.967C250.693 67.6421 252.864 69.8106 255.541 69.8106Z" fill="url(#paint8_linear)"/>
<path d="M215.374 30.8629C218.051 30.8629 220.222 28.6944 220.222 26.0193C220.222 23.3443 218.051 21.1757 215.374 21.1757C212.697 21.1757 210.527 23.3443 210.527 26.0193C210.527 28.6944 212.697 30.8629 215.374 30.8629Z" fill="url(#paint9_linear)"/>
<path d="M255.541 183.551C258.218 183.551 260.388 181.383 260.388 178.708C260.388 176.033 258.218 173.864 255.541 173.864C252.864 173.864 250.693 176.033 250.693 178.708C250.693 181.383 252.864 183.551 255.541 183.551Z" fill="url(#paint10_linear)"/>
<path d="M215.374 222.493C218.051 222.493 220.222 220.324 220.222 217.649C220.222 214.974 218.051 212.806 215.374 212.806C212.697 212.806 210.527 214.974 210.527 217.649C210.527 220.324 212.697 222.493 215.374 222.493Z" fill="url(#paint11_linear)"/>
<path d="M279.827 118.193C278.464 122.542 274.865 126.524 270.319 126.886C270.723 130.422 271.108 134.115 269.903 137.453C269.33 139.031 268.419 140.465 267.997 142.109C267.274 144.887 268.046 147.911 267.195 150.652C265.809 155.164 260.563 157.327 255.879 157.652C255.22 157.752 254.546 157.653 253.943 157.369C252.786 156.688 252.786 155.044 252.93 153.706L255.547 129.259C255.794 126.982 256.071 124.609 257.356 122.711C259.448 119.614 263.5 118.687 266.719 116.777C272.145 113.566 275.232 107.337 276.155 101.113C277.077 94.8902 276.155 88.5224 275.208 82.2872C278.265 88.153 280.085 94.583 280.556 101.18C280.924 106.584 281.443 112.981 279.827 118.193Z" fill="url(#paint12_linear)"/>
<path opacity="0.47" d="M260.593 122C260.595 141.757 254.732 161.071 243.748 177.498C232.763 193.926 217.15 206.73 198.882 214.292C180.615 221.853 160.513 223.832 141.12 219.977C121.727 216.123 103.914 206.61 89.932 192.639C75.9505 178.669 66.429 160.87 62.5718 141.492C58.7146 122.115 60.6948 102.03 68.2622 83.7768C75.8295 65.524 88.644 49.9233 105.085 38.9476C121.526 27.972 140.855 22.1143 160.628 22.1155C187.141 22.1155 212.567 32.6391 231.314 51.371C250.061 70.103 260.593 95.509 260.593 122Z" fill="#37966F"/>
<path d="M143.068 169.922L130.181 174.196C128.288 174.823 127.263 176.866 127.891 178.757L135.148 200.605C135.776 202.496 137.82 203.521 139.713 202.893L152.6 198.62C154.493 197.992 155.518 195.95 154.89 194.058L147.633 172.211C147.005 170.319 144.961 169.295 143.068 169.922Z" fill="#37966F"/>
<path d="M143.068 169.922L130.181 174.196C128.288 174.823 127.263 176.866 127.891 178.757L135.148 200.605C135.776 202.496 137.82 203.521 139.713 202.893L152.6 198.62C154.493 197.992 155.518 195.95 154.89 194.058L147.633 172.211C147.005 170.319 144.961 169.295 143.068 169.922Z" fill="url(#paint13_linear)"/>
<path d="M265.845 120.452H260.129C259.758 120.477 259.385 120.425 259.034 120.3C258.684 120.175 258.362 119.979 258.091 119.725C257.819 119.471 257.602 119.163 257.454 118.822C257.305 118.481 257.229 118.113 257.229 117.741C257.229 117.369 257.305 117.001 257.454 116.659C257.602 116.318 257.819 116.011 258.091 115.757C258.362 115.502 258.684 115.307 259.034 115.182C259.385 115.057 259.758 115.005 260.129 115.03H265.845C267.463 115.028 269.014 114.385 270.158 113.242C271.302 112.099 271.945 110.55 271.947 108.933V51.2315C271.922 50.8602 271.974 50.4879 272.099 50.1375C272.224 49.7871 272.42 49.4661 272.674 49.1944C272.928 48.9228 273.236 48.7062 273.577 48.5581C273.919 48.41 274.287 48.3336 274.66 48.3336C275.032 48.3336 275.4 48.41 275.742 48.5581C276.084 48.7062 276.391 48.9228 276.645 49.1944C276.9 49.4661 277.096 49.7871 277.221 50.1375C277.346 50.4879 277.398 50.8602 277.373 51.2315V108.927C277.37 111.982 276.154 114.91 273.993 117.071C271.832 119.231 268.902 120.447 265.845 120.452Z" fill="#37966F"/>
<path d="M250.181 93.7877H66.5598C60.5027 93.7877 55.5925 98.694 55.5925 104.746V147.043C55.5925 153.096 60.5027 158.002 66.5598 158.002H250.181C256.238 158.002 261.148 153.096 261.148 147.043V104.746C261.148 98.694 256.238 93.7877 250.181 93.7877Z" fill="#FFBBAB"/>
<path d="M260.183 106.957H53.2773C49.8475 106.957 47.0671 109.735 47.0671 113.162V132.35C47.0671 135.777 49.8475 138.555 53.2773 138.555H260.183C263.613 138.555 266.394 135.777 266.394 132.35V113.162C266.394 109.735 263.613 106.957 260.183 106.957Z" fill="#37966F"/>
<path d="M260.183 106.957H53.2773C49.8475 106.957 47.0671 109.735 47.0671 113.162V132.35C47.0671 135.777 49.8475 138.555 53.2773 138.555H260.183C263.613 138.555 266.394 135.777 266.394 132.35V113.162C266.394 109.735 263.613 106.957 260.183 106.957Z" fill="#37966F"/>
<path d="M121.643 84.4439H90.5382C86.7321 84.4439 83.6467 87.5268 83.6467 91.3298V160.803C83.6467 164.606 86.7321 167.689 90.5382 167.689H121.643C125.449 167.689 128.535 164.606 128.535 160.803V91.3298C128.535 87.5268 125.449 84.4439 121.643 84.4439Z" fill="#FFBBAB"/>
<path d="M119.449 87.2152H92.329C88.8959 87.2152 86.1128 89.996 86.1128 93.4264V157.827C86.1128 161.257 88.8959 164.038 92.329 164.038H119.449C122.882 164.038 125.665 161.257 125.665 157.827V93.4264C125.665 89.996 122.882 87.2152 119.449 87.2152Z" fill="white"/>
<path d="M174.689 84.4439H143.584C139.778 84.4439 136.692 87.5268 136.692 91.3298V160.803C136.692 164.606 139.778 167.689 143.584 167.689H174.689C178.495 167.689 181.58 164.606 181.58 160.803V91.3298C181.58 87.5268 178.495 84.4439 174.689 84.4439Z" fill="#FFBBAB"/>
<path d="M172.494 87.2152H145.374C141.941 87.2152 139.158 89.996 139.158 93.4264V157.827C139.158 161.257 141.941 164.038 145.374 164.038H172.494C175.927 164.038 178.71 161.257 178.71 157.827V93.4264C178.71 89.996 175.927 87.2152 172.494 87.2152Z" fill="white"/>
<path d="M227.734 84.4439H196.629C192.823 84.4439 189.738 87.5268 189.738 91.3298V160.803C189.738 164.606 192.823 167.689 196.629 167.689H227.734C231.54 167.689 234.625 164.606 234.625 160.803V91.3298C234.625 87.5268 231.54 84.4439 227.734 84.4439Z" fill="#FFBBAB"/>
<path d="M225.539 87.2152H198.42C194.987 87.2152 192.204 89.996 192.204 93.4264V157.827C192.204 161.257 194.987 164.038 198.42 164.038H225.539C228.972 164.038 231.756 161.257 231.756 157.827V93.4264C231.756 89.996 228.972 87.2152 225.539 87.2152Z" fill="white"/>
<path d="M119.449 87.2152H92.329C88.8959 87.2152 86.1128 89.996 86.1128 93.4264V157.827C86.1128 161.257 88.8959 164.038 92.329 164.038H119.449C122.882 164.038 125.665 161.257 125.665 157.827V93.4264C125.665 89.996 122.882 87.2152 119.449 87.2152Z" fill="url(#paint14_linear)"/>
<path d="M172.494 87.2152H145.374C141.941 87.2152 139.158 89.996 139.158 93.4264V157.827C139.158 161.257 141.941 164.038 145.374 164.038H172.494C175.927 164.038 178.71 161.257 178.71 157.827V93.4264C178.71 89.996 175.927 87.2152 172.494 87.2152Z" fill="url(#paint15_linear)"/>
<path d="M225.539 87.2152H198.42C194.987 87.2152 192.204 89.996 192.204 93.4264V157.827C192.204 161.257 194.987 164.038 198.42 164.038H225.539C228.972 164.038 231.756 161.257 231.756 157.827V93.4264C231.756 89.996 228.972 87.2152 225.539 87.2152Z" fill="url(#paint16_linear)"/>
<path d="M119.449 87.2152H92.329C88.8959 87.2152 86.1128 89.996 86.1128 93.4264V157.827C86.1128 161.257 88.8959 164.038 92.329 164.038H119.449C122.882 164.038 125.665 161.257 125.665 157.827V93.4264C125.665 89.996 122.882 87.2152 119.449 87.2152Z" fill="url(#paint17_linear)"/>
<path d="M172.494 87.2152H145.374C141.941 87.2152 139.158 89.996 139.158 93.4264V157.827C139.158 161.257 141.941 164.038 145.374 164.038H172.494C175.927 164.038 178.71 161.257 178.71 157.827V93.4264C178.71 89.996 175.927 87.2152 172.494 87.2152Z" fill="url(#paint18_linear)"/>
<path d="M225.539 87.2152H198.42C194.987 87.2152 192.204 89.996 192.204 93.4264V157.827C192.204 161.257 194.987 164.038 198.42 164.038H225.539C228.972 164.038 231.756 161.257 231.756 157.827V93.4264C231.756 89.996 228.972 87.2152 225.539 87.2152Z" fill="url(#paint19_linear)"/>
<path d="M99.5159 143.266C99.2341 143.252 98.954 143.215 98.6778 143.158C98.2423 143.078 97.8228 142.927 97.4358 142.712C96.9957 142.469 96.6083 142.142 96.2963 141.748C95.9495 141.279 95.775 140.704 95.8019 140.121V139.941C95.8043 139.856 95.8144 139.771 95.832 139.688C96.1686 137.796 96.6959 135.943 97.4056 134.157C98.164 132.23 99.044 130.353 100.04 128.537C101.071 126.645 102.229 124.729 103.531 122.783C104.834 120.837 106.214 118.843 107.692 116.819L105.376 116.084L103.821 115.596L102.615 115.217C102.208 115.094 101.785 115.035 101.361 115.042C100.716 115.042 100.191 115.042 99.7691 115.042C99.4065 115.051 99.0479 115.12 98.708 115.247C98.4155 115.366 98.1507 115.545 97.9302 115.771C97.6437 116.077 97.3872 116.41 97.1645 116.765C96.7002 117.489 96.1801 118.176 95.6089 118.819C95.3291 119.178 94.9203 119.413 94.4694 119.476C94.3248 119.483 94.1817 119.444 94.0605 119.365C93.9392 119.286 93.846 119.171 93.7941 119.036C93.6493 118.67 93.5836 118.278 93.6012 117.885C93.6012 117.687 93.6012 117.476 93.6012 117.241C93.6012 117.006 93.6494 116.777 93.6916 116.542C93.9077 115.08 94.3426 113.658 94.9819 112.325C95.437 111.38 96.0719 110.533 96.8509 109.831C97.4725 109.275 98.2096 108.863 99.0094 108.626C99.6851 108.427 100.385 108.321 101.09 108.313C101.576 108.399 102.054 108.528 102.518 108.698L105.009 109.499L107.583 110.319C108.409 110.59 109.27 110.74 110.139 110.765C110.537 110.765 110.899 110.795 111.231 110.795H112.213C113.015 110.795 113.648 110.795 114.119 110.74C114.481 110.721 114.84 110.666 115.192 110.578C115.378 110.535 115.56 110.474 115.735 110.397C115.813 110.356 115.899 110.329 115.988 110.319C116.285 110.295 116.582 110.353 116.849 110.485C117.116 110.618 117.341 110.821 117.501 111.072C117.84 111.691 118.001 112.391 117.965 113.096C117.961 113.681 117.9 114.264 117.785 114.837C117.785 114.958 117.604 115.144 117.308 115.397C117.013 115.65 116.663 115.909 116.271 116.193C115.879 116.476 115.487 116.747 115.065 117.018L114.137 117.62C112.888 119.299 111.777 121.076 110.815 122.934C109.915 124.691 109.124 126.502 108.445 128.356C107.77 130.223 107.131 132.175 106.528 134.212C105.925 136.248 105.278 138.439 104.586 140.784C104.447 141.302 104.153 141.764 103.742 142.109C103.348 142.434 102.896 142.682 102.41 142.838C101.919 142.998 101.411 143.103 100.897 143.152C100.372 143.236 99.9138 143.266 99.5159 143.266Z" fill="#FADD3D"/>
<path d="M153.815 143.266C153.534 143.252 153.253 143.215 152.977 143.158C152.542 143.078 152.122 142.927 151.735 142.712C151.301 142.471 150.921 142.142 150.62 141.748C150.27 141.28 150.095 140.705 150.125 140.121V139.941C150.128 139.856 150.138 139.771 150.155 139.688C150.492 137.796 151.019 135.943 151.729 134.157C152.487 132.23 153.368 130.353 154.364 128.537C155.389 126.645 156.553 124.727 157.855 122.783C159.157 120.839 160.544 118.851 162.015 116.819L159.694 116.084L158.144 115.596L156.938 115.217C156.53 115.095 156.105 115.036 155.678 115.042C155.039 115.042 154.509 115.042 154.093 115.042C153.73 115.05 153.371 115.12 153.031 115.247C152.739 115.366 152.474 115.545 152.254 115.771C151.967 116.077 151.711 116.41 151.488 116.765C151.024 117.489 150.504 118.176 149.932 118.819C149.653 119.178 149.244 119.413 148.793 119.476C148.648 119.483 148.505 119.444 148.384 119.365C148.263 119.286 148.169 119.171 148.118 119.036C147.973 118.67 147.907 118.278 147.925 117.885C147.923 117.67 147.934 117.455 147.955 117.241C147.955 117.012 148.003 116.777 148.039 116.542C148.258 115.08 148.693 113.659 149.329 112.325C149.787 111.381 150.421 110.535 151.199 109.831C151.822 109.277 152.558 108.866 153.357 108.626C154.033 108.427 154.733 108.322 155.437 108.313C155.926 108.398 156.406 108.527 156.872 108.698L159.362 109.499L161.937 110.319C162.761 110.59 163.62 110.74 164.487 110.765C164.885 110.765 165.253 110.795 165.584 110.795H166.495C167.299 110.795 167.932 110.777 168.394 110.74C168.758 110.721 169.12 110.667 169.473 110.578C169.659 110.535 169.841 110.474 170.016 110.397C170.095 110.356 170.181 110.329 170.269 110.319C170.566 110.296 170.863 110.355 171.129 110.487C171.396 110.62 171.621 110.822 171.782 111.072C172.122 111.691 172.282 112.391 172.247 113.096C172.242 113.681 172.182 114.264 172.066 114.837C172.066 114.958 171.885 115.144 171.59 115.397C171.294 115.65 170.944 115.909 170.552 116.193C170.161 116.476 169.769 116.747 169.347 117.018L168.418 117.62C167.167 119.298 166.056 121.075 165.096 122.934C164.194 124.69 163.403 126.501 162.726 128.356C162.047 130.223 161.408 132.175 160.809 134.212C160.21 136.248 159.561 138.439 158.862 140.784C158.727 141.302 158.434 141.766 158.024 142.109C157.629 142.434 157.177 142.682 156.691 142.838C156.2 142.998 155.692 143.103 155.178 143.152C154.696 143.236 154.237 143.266 153.815 143.266Z" fill="#FADD3D"/>
<path d="M207.904 143.266C207.622 143.252 207.342 143.215 207.066 143.158C206.63 143.078 206.211 142.927 205.824 142.712C205.385 142.473 204.997 142.149 204.684 141.76C204.338 141.291 204.163 140.716 204.19 140.133V139.941C204.192 139.856 204.202 139.771 204.22 139.688C204.557 137.796 205.084 135.943 205.794 134.157C206.555 132.231 207.434 130.354 208.428 128.537C209.459 126.645 210.617 124.729 211.919 122.783C213.222 120.837 214.602 118.843 216.08 116.819L213.764 116.084L212.215 115.596L211.009 115.217C210.602 115.094 210.179 115.035 209.755 115.042C209.11 115.042 208.585 115.042 208.163 115.042C207.801 115.051 207.442 115.12 207.102 115.247C206.809 115.366 206.545 115.545 206.324 115.771C206.04 116.078 205.783 116.411 205.558 116.765C205.096 117.49 204.576 118.177 204.003 118.819C203.724 119.179 203.315 119.415 202.863 119.476C202.719 119.483 202.577 119.445 202.456 119.366C202.336 119.287 202.244 119.171 202.194 119.036C202.047 118.671 201.979 118.279 201.995 117.885C201.995 117.687 201.995 117.476 202.025 117.241C202.055 117.006 202.074 116.777 202.116 116.542C202.332 115.08 202.767 113.658 203.406 112.325C203.861 111.38 204.496 110.533 205.275 109.831C205.897 109.276 206.634 108.864 207.434 108.626C208.109 108.427 208.809 108.321 209.514 108.313C210.001 108.398 210.479 108.527 210.943 108.698L213.433 109.499L216.007 110.319C216.833 110.59 217.694 110.74 218.564 110.765C218.962 110.765 219.323 110.795 219.655 110.795H220.565C221.367 110.795 222 110.795 222.471 110.74C222.835 110.721 223.196 110.666 223.55 110.578C223.734 110.534 223.913 110.473 224.086 110.397C224.165 110.356 224.251 110.329 224.34 110.319C224.637 110.295 224.934 110.353 225.201 110.485C225.468 110.618 225.693 110.821 225.853 111.072C226.195 111.69 226.356 112.391 226.317 113.096C226.313 113.681 226.252 114.264 226.136 114.837C226.136 114.958 225.955 115.144 225.66 115.397C225.365 115.65 225.015 115.909 224.629 116.193C224.243 116.476 223.845 116.747 223.423 117.018L222.549 117.65C221.3 119.329 220.189 121.106 219.227 122.964C218.327 124.72 217.537 126.531 216.863 128.386C216.184 130.253 215.545 132.205 214.946 134.242C214.347 136.278 213.698 138.469 212.999 140.814C212.862 141.331 212.569 141.794 212.161 142.14C211.766 142.464 211.314 142.712 210.828 142.869C210.336 143.027 209.829 143.132 209.315 143.182C208.76 143.236 208.302 143.266 207.904 143.266Z" fill="#FADD3D"/>
<path d="M274.412 59.3885C281.032 59.3885 286.399 54.0264 286.399 47.412C286.399 40.7975 281.032 35.4355 274.412 35.4355C267.793 35.4355 262.426 40.7975 262.426 47.412C262.426 54.0264 267.793 59.3885 274.412 59.3885Z" fill="#37966F"/>
<path d="M274.412 59.3885C281.032 59.3885 286.399 54.0264 286.399 47.412C286.399 40.7975 281.032 35.4355 274.412 35.4355C267.793 35.4355 262.426 40.7975 262.426 47.412C262.426 54.0264 267.793 59.3885 274.412 59.3885Z" fill="url(#paint20_linear)"/>
<path d="M195.417 47.3036C195.421 46.4631 195.192 45.6379 194.756 44.9194C194.319 44.2009 193.693 43.617 192.945 43.2325C192.197 42.8479 191.357 42.6776 190.518 42.7405C189.679 42.8034 188.874 43.097 188.192 43.5887C187.51 44.0805 186.977 44.7513 186.653 45.5268C186.329 46.3023 186.226 47.1524 186.355 47.9829C186.485 48.8133 186.842 49.5918 187.386 50.2322C187.931 50.8725 188.643 51.3497 189.442 51.611C187.911 54.2798 182.677 62.1597 174.182 62.1597C165.247 62.1597 161.466 50.7555 160.659 47.8939C161.963 47.4769 163.072 46.6014 163.78 45.4298C164.488 44.2582 164.747 42.8699 164.508 41.5222C164.27 40.1745 163.551 38.9588 162.484 38.1004C161.417 37.242 160.075 36.7991 158.707 36.8538C157.338 36.9085 156.036 37.457 155.041 38.3978C154.046 39.3386 153.427 40.6078 153.297 41.9702C153.167 43.3327 153.536 44.6959 154.336 45.8072C155.135 46.9186 156.31 47.7028 157.644 48.0144C156.878 51.1411 153.423 62.7682 144.946 62.7682C137.108 62.7682 131.187 54.6413 129.156 51.4122C130.127 50.9542 130.905 50.1677 131.352 49.1919C131.799 48.2161 131.886 47.1138 131.598 46.0799C131.31 45.046 130.666 44.1471 129.779 43.5421C128.892 42.9371 127.819 42.665 126.751 42.7739C125.682 42.8828 124.687 43.3657 123.94 44.1372C123.194 44.9087 122.744 45.9191 122.671 46.9898C122.598 48.0605 122.906 49.1224 123.541 49.9879C124.176 50.8535 125.097 51.4668 126.141 51.7194L134.106 78.293H184.39L191.872 51.7315C192.878 51.5046 193.777 50.9428 194.421 50.1382C195.065 49.3335 195.417 48.334 195.417 47.3036Z" fill="#37966F"/>
<path d="M195.417 47.3036C195.421 46.4631 195.192 45.6379 194.756 44.9194C194.319 44.2009 193.693 43.617 192.945 43.2325C192.197 42.8479 191.357 42.6776 190.518 42.7405C189.679 42.8034 188.874 43.097 188.192 43.5887C187.51 44.0805 186.977 44.7513 186.653 45.5268C186.329 46.3023 186.226 47.1524 186.355 47.9829C186.485 48.8133 186.842 49.5918 187.386 50.2322C187.931 50.8725 188.643 51.3497 189.442 51.611C187.911 54.2798 182.677 62.1597 174.182 62.1597C165.247 62.1597 161.466 50.7555 160.659 47.8939C161.963 47.4769 163.072 46.6014 163.78 45.4298C164.488 44.2582 164.747 42.8699 164.508 41.5222C164.27 40.1745 163.551 38.9588 162.484 38.1004C161.417 37.242 160.075 36.7991 158.707 36.8538C157.338 36.9085 156.036 37.457 155.041 38.3978C154.046 39.3386 153.427 40.6078 153.297 41.9702C153.167 43.3327 153.536 44.6959 154.336 45.8072C155.135 46.9186 156.31 47.7028 157.644 48.0144C156.878 51.1411 153.423 62.7682 144.946 62.7682C137.108 62.7682 131.187 54.6413 129.156 51.4122C130.127 50.9542 130.905 50.1677 131.352 49.1919C131.799 48.2161 131.886 47.1138 131.598 46.0799C131.31 45.046 130.666 44.1471 129.779 43.5421C128.892 42.9371 127.819 42.665 126.751 42.7739C125.682 42.8828 124.687 43.3657 123.94 44.1372C123.194 44.9087 122.744 45.9191 122.671 46.9898C122.598 48.0605 122.906 49.1224 123.541 49.9879C124.176 50.8535 125.097 51.4668 126.141 51.7194L134.106 78.293H184.39L191.872 51.7315C192.878 51.5046 193.777 50.9428 194.421 50.1382C195.065 49.3335 195.417 48.334 195.417 47.3036Z" fill="url(#paint21_linear)"/>
<path d="M161.37 66.3527H156.745L154.43 70.3649L156.745 74.3711H161.37L163.685 70.3649L161.37 66.3527Z" fill="#37966F"/>
<path d="M144.09 67.3588H140.623L138.893 70.3649L140.623 73.3651H144.09L145.826 70.3649L144.09 67.3588Z" fill="#37966F"/>
<path d="M177.492 67.3588H174.019L172.289 70.3649L174.019 73.3651H177.492L179.223 70.3649L177.492 67.3588Z" fill="#37966F"/>
<path d="M130.579 47.165C130.58 47.8006 130.392 48.4222 130.039 48.9512C129.687 49.4802 129.185 49.8927 128.598 50.1364C128.01 50.3802 127.363 50.4443 126.74 50.3206C126.116 50.1969 125.542 49.891 125.093 49.4415C124.643 48.9921 124.337 48.4194 124.213 47.796C124.089 47.1725 124.153 46.5264 124.397 45.9394C124.641 45.3525 125.054 44.851 125.583 44.4987C126.113 44.1463 126.735 43.9588 127.371 43.96C128.222 43.96 129.038 44.2977 129.639 44.8987C130.241 45.4998 130.579 46.315 130.579 47.165Z" fill="#37966F"/>
<path d="M190.847 50.5386C192.622 50.5386 194.06 49.101 194.06 47.3276C194.06 45.5543 192.622 44.1166 190.847 44.1166C189.072 44.1166 187.633 45.5543 187.633 47.3276C187.633 49.101 189.072 50.5386 190.847 50.5386Z" fill="#37966F"/>
<path d="M159.055 46.906C161.362 46.906 163.233 45.0368 163.233 42.7311C163.233 40.4253 161.362 38.5562 159.055 38.5562C156.747 38.5562 154.876 40.4253 154.876 42.7311C154.876 45.0368 156.747 46.906 159.055 46.906Z" fill="#37966F"/>
<path d="M161.37 66.3527H156.745L154.43 70.3649L156.745 74.3711H161.37L163.685 70.3649L161.37 66.3527Z" fill="url(#paint22_linear)"/>
<path d="M144.09 67.3588H140.623L138.893 70.3649L140.623 73.3651H144.09L145.826 70.3649L144.09 67.3588Z" fill="url(#paint23_linear)"/>
<path d="M177.492 67.3588H174.019L172.289 70.3649L174.019 73.3651H177.492L179.223 70.3649L177.492 67.3588Z" fill="url(#paint24_linear)"/>
<path d="M130.579 47.165C130.58 47.8006 130.392 48.4222 130.039 48.9512C129.687 49.4802 129.185 49.8927 128.598 50.1364C128.01 50.3802 127.363 50.4443 126.74 50.3206C126.116 50.1969 125.542 49.891 125.093 49.4415C124.643 48.9921 124.337 48.4194 124.213 47.796C124.089 47.1725 124.153 46.5264 124.397 45.9394C124.641 45.3525 125.054 44.851 125.583 44.4987C126.113 44.1463 126.735 43.9588 127.371 43.96C128.222 43.96 129.038 44.2977 129.639 44.8987C130.241 45.4998 130.579 46.315 130.579 47.165Z" fill="url(#paint25_linear)"/>
<path d="M190.847 50.5386C192.622 50.5386 194.06 49.101 194.06 47.3276C194.06 45.5543 192.622 44.1166 190.847 44.1166C189.072 44.1166 187.633 45.5543 187.633 47.3276C187.633 49.101 189.072 50.5386 190.847 50.5386Z" fill="url(#paint26_linear)"/>
<path d="M159.055 46.906C161.362 46.906 163.233 45.0368 163.233 42.7311C163.233 40.4253 161.362 38.5562 159.055 38.5562C156.747 38.5562 154.876 40.4253 154.876 42.7311C154.876 45.0368 156.747 46.906 159.055 46.906Z" fill="url(#paint27_linear)"/>
<path d="M108.946 59.9909L111.568 65.2984L117.429 66.1539L113.184 70.2866L114.185 76.1182L108.946 73.3651L103.7 76.1182L104.701 70.2866L100.456 66.1539L106.323 65.2984L108.946 59.9909Z" fill="#37966F"/>
<path d="M209.17 59.9909L211.793 65.2984L217.653 66.1539L213.415 70.2866L214.415 76.1182L209.17 73.3651L203.924 76.1182L204.931 70.2866L200.687 66.1539L206.547 65.2984L209.17 59.9909Z" fill="#37966F"/>
<path d="M108.946 59.9909L111.568 65.2984L117.429 66.1539L113.184 70.2866L114.185 76.1182L108.946 73.3651L103.7 76.1182L104.701 70.2866L100.456 66.1539L106.323 65.2984L108.946 59.9909Z" fill="url(#paint28_linear)"/>
<path d="M209.17 59.9909L211.793 65.2984L217.653 66.1539L213.415 70.2866L214.415 76.1182L209.17 73.3651L203.924 76.1182L204.931 70.2866L200.687 66.1539L206.547 65.2984L209.17 59.9909Z" fill="url(#paint29_linear)"/>
<path d="M185.167 184.479C189.816 181.581 194.483 178.672 198.709 175.195C204.74 180.738 210.381 186.69 215.591 193.01C210.219 192.028 204.673 193.069 200.024 195.931C192.469 200.618 187.965 209.727 179.651 212.854C178.391 213.33 173.441 206.667 172.741 205.691C171.155 203.48 168.352 199.775 168.635 196.883C168.919 193.992 172.217 192.552 174.423 191.178L185.167 184.479Z" fill="#37966F"/>
<path d="M125.478 185.654C121.578 188.338 117.395 190.584 113.003 192.353L116.096 198.341C118.369 202.739 120.793 207.311 124.857 210.143C125.068 210.323 125.333 210.429 125.61 210.444C125.786 210.412 125.954 210.344 126.103 210.246C126.252 210.148 126.38 210.021 126.479 209.872C128.194 207.971 130.104 206.255 132.176 204.751C135.143 202.582 134.865 202.016 132.616 199.407C129.228 195.455 127.287 190.461 125.478 185.654Z" fill="#37966F"/>
<path d="M148.992 194.998C151.303 196.808 153.775 198.403 156.378 199.763C155.616 201.462 155.054 203.243 154.701 205.07C154.099 208.083 154.099 211.3 152.549 213.944C150.387 212.944 148.254 211.878 146.152 210.745C143.565 209.354 142.685 209.54 143.608 206.896C144.036 205.661 149.902 195.714 148.992 194.998Z" fill="#37966F"/>
<path d="M148.992 194.998C151.303 196.808 153.775 198.403 156.378 199.763C155.616 201.462 155.054 203.243 154.701 205.07C154.099 208.083 154.099 211.3 152.549 213.944C150.387 212.944 148.254 211.878 146.152 210.745C143.565 209.354 142.685 209.54 143.608 206.896C144.036 205.661 149.902 195.714 148.992 194.998Z" fill="url(#paint30_linear)"/>
<path d="M79.7036 189.389C82.1877 191.955 84.5712 194.618 86.8543 197.377C89.0343 194.701 91.7409 192.499 94.8064 190.91C97.872 189.32 101.231 188.376 104.677 188.136C104.871 188.152 105.065 188.126 105.248 188.061C105.432 187.995 105.598 187.891 105.738 187.756C105.835 187.56 105.882 187.343 105.875 187.124C105.867 186.906 105.806 186.692 105.696 186.503C104.846 184.34 103.965 180.431 102.078 178.9C100.191 177.37 96.9774 179.19 94.9697 179.949C89.3384 182.111 83.7794 184.865 79.7036 189.389Z" fill="#37966F"/>
<path d="M221.241 174.798C221.071 174.772 220.898 174.788 220.735 174.843C220.573 174.899 220.426 174.993 220.308 175.117C220.19 175.241 220.103 175.392 220.056 175.556C220.008 175.721 220.001 175.895 220.035 176.063C219.886 179.987 219.824 183.909 219.848 187.829C227.509 187.873 235.162 188.25 242.807 188.961C242.669 188.961 243.006 174.713 239.931 173.484C237.749 172.617 233.51 173.798 231.189 173.978C227.873 174.24 224.557 174.513 221.241 174.798Z" fill="#37966F"/>
<path d="M185.167 184.479C189.816 181.581 194.483 178.672 198.709 175.195C204.74 180.738 210.381 186.69 215.591 193.01C210.219 192.028 204.673 193.069 200.024 195.931C192.469 200.618 187.965 209.727 179.651 212.854C178.391 213.33 173.441 206.667 172.741 205.691C171.155 203.48 168.352 199.775 168.635 196.883C168.919 193.992 172.217 192.552 174.423 191.178L185.167 184.479Z" fill="url(#paint31_linear)"/>
<path d="M125.478 185.654C121.578 188.338 117.395 190.584 113.003 192.353L116.096 198.341C118.369 202.739 120.793 207.311 124.857 210.143C125.068 210.323 125.333 210.429 125.61 210.444C125.786 210.412 125.954 210.344 126.103 210.246C126.252 210.148 126.38 210.021 126.479 209.872C128.194 207.971 130.104 206.255 132.176 204.751C135.143 202.582 134.865 202.016 132.616 199.407C129.228 195.455 127.287 190.461 125.478 185.654Z" fill="url(#paint32_linear)"/>
<path d="M79.7036 189.389C82.1877 191.955 84.5712 194.618 86.8543 197.377C89.0343 194.701 91.7409 192.499 94.8064 190.91C97.872 189.32 101.231 188.376 104.677 188.136C104.871 188.152 105.065 188.126 105.248 188.061C105.432 187.995 105.598 187.891 105.738 187.756C105.835 187.56 105.882 187.343 105.875 187.124C105.867 186.906 105.806 186.692 105.696 186.503C104.846 184.34 103.965 180.431 102.078 178.9C100.191 177.37 96.9774 179.19 94.9697 179.949C89.3384 182.111 83.7794 184.865 79.7036 189.389Z" fill="url(#paint33_linear)"/>
<path d="M221.241 174.798C221.071 174.772 220.898 174.788 220.735 174.843C220.573 174.899 220.426 174.993 220.308 175.117C220.19 175.241 220.103 175.392 220.056 175.556C220.008 175.721 220.001 175.895 220.035 176.063C219.886 179.987 219.824 183.909 219.848 187.829C227.509 187.873 235.162 188.25 242.807 188.961C242.669 188.961 243.006 174.713 239.931 173.484C237.749 172.617 233.51 173.798 231.189 173.978C227.873 174.24 224.557 174.513 221.241 174.798Z" fill="url(#paint34_linear)"/>
<path d="M143.385 187.847C142.188 187.791 141.008 187.547 139.888 187.124C139.328 186.91 138.826 186.568 138.422 186.125C138.018 185.683 137.723 185.152 137.56 184.575C137.457 184.206 137.468 183.813 137.592 183.45C137.716 183.087 137.946 182.769 138.254 182.539C138.549 182.372 138.88 182.279 139.219 182.268C140.267 182.207 141.3 182.547 142.107 183.22C141.908 182.244 143.065 181.34 144.048 181.491C145.031 181.641 145.628 182.696 145.616 183.69C145.529 184.671 145.208 185.617 144.681 186.449C144.374 187.027 143.686 187.268 143.385 187.847Z" fill="#B9E4C9"/>
</g>
<defs>
<linearGradient id="paint0_linear" x1="155.431" y1="-53.7436" x2="172.232" y2="515.032" gradientUnits="userSpaceOnUse">
<stop stop-color="#010101" stop-opacity="0"/>
<stop offset="0.95" stop-color="#010101"/>
</linearGradient>
<linearGradient id="paint1_linear" x1="155.226" y1="10.603" x2="164.921" y2="10.603" gradientUnits="userSpaceOnUse">
<stop stop-color="white" stop-opacity="0"/>
<stop offset="0.95" stop-color="white"/>
</linearGradient>
<linearGradient id="paint2_linear" x1="838.383" y1="1104.79" x2="994.279" y2="1104.79" gradientUnits="userSpaceOnUse">
<stop stop-color="white" stop-opacity="0"/>
<stop offset="0.95" stop-color="white"/>
</linearGradient>
<linearGradient id="paint3_linear" x1="1524.44" y1="439.567" x2="1680.33" y2="439.567" gradientUnits="userSpaceOnUse">
<stop stop-color="white" stop-opacity="0"/>
<stop offset="0.95" stop-color="white"/>
</linearGradient>
<linearGradient id="paint4_linear" x1="519.661" y1="2029.73" x2="675.557" y2="2029.73" gradientUnits="userSpaceOnUse">
<stop stop-color="white" stop-opacity="0"/>
<stop offset="0.95" stop-color="white"/>
</linearGradient>
<linearGradient id="paint5_linear" x1="2692.8" y1="6374.38" x2="2848.6" y2="6374.38" gradientUnits="userSpaceOnUse">
<stop stop-color="white" stop-opacity="0"/>
<stop offset="0.95" stop-color="white"/>
</linearGradient>
<linearGradient id="paint6_linear" x1="1072.41" y1="5554.56" x2="1228.21" y2="5554.56" gradientUnits="userSpaceOnUse">
<stop stop-color="white" stop-opacity="0"/>
<stop offset="0.95" stop-color="white"/>
</linearGradient>
<linearGradient id="paint7_linear" x1="1758.47" y1="6141.81" x2="1914.27" y2="6141.81" gradientUnits="userSpaceOnUse">
<stop stop-color="white" stop-opacity="0"/>
<stop offset="0.95" stop-color="white"/>
</linearGradient>
<linearGradient id="paint8_linear" x1="-52353.9" y1="1111.24" x2="-52509.7" y2="1111.24" gradientUnits="userSpaceOnUse">
<stop stop-color="white" stop-opacity="0"/>
<stop offset="0.95" stop-color="white"/>
</linearGradient>
<linearGradient id="paint9_linear" x1="-52959.6" y1="446.017" x2="-53115.5" y2="446.017" gradientUnits="userSpaceOnUse">
<stop stop-color="white" stop-opacity="0"/>
<stop offset="0.95" stop-color="white"/>
</linearGradient>
<linearGradient id="paint10_linear" x1="-52353.9" y1="5554.56" x2="-52509.7" y2="5554.56" gradientUnits="userSpaceOnUse">
<stop stop-color="white" stop-opacity="0"/>
<stop offset="0.95" stop-color="white"/>
</linearGradient>
<linearGradient id="paint11_linear" x1="-52959.6" y1="6141.81" x2="-53115.5" y2="6141.81" gradientUnits="userSpaceOnUse">
<stop stop-color="white" stop-opacity="0"/>
<stop offset="0.95" stop-color="white"/>
</linearGradient>
<linearGradient id="paint12_linear" x1="11108.4" y1="10711.8" x2="20231.6" y2="14150.5" gradientUnits="userSpaceOnUse">
<stop stop-color="#010101" stop-opacity="0"/>
<stop offset="0.95" stop-color="#010101"/>
</linearGradient>
<linearGradient id="paint13_linear" x1="5615.98" y1="7595.24" x2="4034.32" y2="10610.8" gradientUnits="userSpaceOnUse">
<stop stop-color="#FFBBAB"/>
<stop offset="0.95" stop-color="white"/>
</linearGradient>
<linearGradient id="paint14_linear" x1="6260.17" y1="14691.3" x2="6512.13" y2="7354.12" gradientUnits="userSpaceOnUse">
<stop stop-color="#010101" stop-opacity="0"/>
<stop offset="0.95" stop-color="#010101"/>
</linearGradient>
<linearGradient id="paint15_linear" x1="9791.81" y1="14811.1" x2="10043.8" y2="7473.2" gradientUnits="userSpaceOnUse">
<stop stop-color="#010101" stop-opacity="0"/>
<stop offset="0.95" stop-color="#010101"/>
</linearGradient>
<linearGradient id="paint16_linear" x1="13323.8" y1="14931" x2="13575.8" y2="7593.04" gradientUnits="userSpaceOnUse">
<stop stop-color="#010101" stop-opacity="0"/>
<stop offset="0.95" stop-color="#010101"/>
</linearGradient>
<linearGradient id="paint17_linear" x1="7262.32" y1="36781.8" x2="7514.28" y2="44118.9" gradientUnits="userSpaceOnUse">
<stop stop-color="#37966F"/>
<stop offset="0.95" stop-color="#010101"/>
</linearGradient>
<linearGradient id="paint18_linear" x1="10794.4" y1="36661.9" x2="11046.3" y2="43999.1" gradientUnits="userSpaceOnUse">
<stop stop-color="#37966F"/>
<stop offset="0.95" stop-color="#010101"/>
</linearGradient>
<linearGradient id="paint19_linear" x1="14326" y1="36542.1" x2="14578" y2="43880" gradientUnits="userSpaceOnUse">
<stop stop-color="#37966F"/>
<stop offset="0.95" stop-color="#010101"/>
</linearGradient>
<linearGradient id="paint20_linear" x1="10603.8" y1="1347.82" x2="10873.8" y2="3009.51" gradientUnits="userSpaceOnUse">
<stop stop-color="#010101" stop-opacity="0"/>
<stop offset="0.95" stop-color="#010101"/>
</linearGradient>
<linearGradient id="paint21_linear" x1="15355" y1="4026.23" x2="24133.8" y2="4026.23" gradientUnits="userSpaceOnUse">
<stop stop-color="#FFD200"/>
<stop offset="0.95" stop-color="#FFD200"/>
</linearGradient>
<linearGradient id="paint22_linear" x1="2341.18" y1="1002.91" x2="2483.24" y2="1002.91" gradientUnits="userSpaceOnUse">
<stop stop-color="white" stop-opacity="0"/>
<stop offset="0.95" stop-color="white"/>
</linearGradient>
<linearGradient id="paint23_linear" x1="1598.5" y1="768.897" x2="1678.23" y2="768.897" gradientUnits="userSpaceOnUse">
<stop stop-color="white" stop-opacity="0"/>
<stop offset="0.95" stop-color="white"/>
</linearGradient>
<linearGradient id="paint24_linear" x1="2015.95" y1="768.897" x2="2095.68" y2="768.897" gradientUnits="userSpaceOnUse">
<stop stop-color="white" stop-opacity="0"/>
<stop offset="0.95" stop-color="white"/>
</linearGradient>
<linearGradient id="paint25_linear" x1="1485.5" y1="551.234" x2="1553.95" y2="551.234" gradientUnits="userSpaceOnUse">
<stop stop-color="white" stop-opacity="0"/>
<stop offset="0.95" stop-color="white"/>
</linearGradient>
<linearGradient id="paint26_linear" x1="2060.26" y1="548.629" x2="2128.71" y2="548.629" gradientUnits="userSpaceOnUse">
<stop stop-color="white" stop-opacity="0"/>
<stop offset="0.95" stop-color="white"/>
</linearGradient>
<linearGradient id="paint27_linear" x1="2135.63" y1="630.808" x2="2251.37" y2="630.808" gradientUnits="userSpaceOnUse">
<stop stop-color="white" stop-opacity="0"/>
<stop offset="0.95" stop-color="white"/>
</linearGradient>
<linearGradient id="paint28_linear" x1="2822.32" y1="2644.07" x2="2839.63" y2="679.424" gradientUnits="userSpaceOnUse">
<stop stop-color="white" stop-opacity="0"/>
<stop offset="0.95" stop-color="#B9E4C9"/>
</linearGradient>
<linearGradient id="paint29_linear" x1="5741.73" y1="2668.9" x2="5759.05" y2="704.26" gradientUnits="userSpaceOnUse">
<stop stop-color="#B9E4C9"/>
<stop offset="1" stop-color="#B9E4C9"/>
</linearGradient>
<linearGradient id="paint30_linear" x1="3889.7" y1="5976.58" x2="2860.8" y2="6821.97" gradientUnits="userSpaceOnUse">
<stop stop-color="#B9E4C9"/>
<stop offset="0.95" stop-color="#010101"/>
</linearGradient>
<linearGradient id="paint31_linear" x1="6651.77" y1="11104.8" x2="4016.31" y2="15711.3" gradientUnits="userSpaceOnUse">
<stop stop-color="#FFBBAB"/>
<stop offset="0.95" stop-color="white"/>
</linearGradient>
<linearGradient id="paint32_linear" x1="3059.44" y1="7375.91" x2="1083.46" y2="9761.91" gradientUnits="userSpaceOnUse">
<stop stop-color="#FFBBAB"/>
<stop offset="0.95" stop-color="white"/>
</linearGradient>
<linearGradient id="paint33_linear" x1="3691.67" y1="5709.75" x2="2425.46" y2="8146.13" gradientUnits="userSpaceOnUse">
<stop stop-color="#FFBBAB"/>
<stop offset="0.95" stop-color="white"/>
</linearGradient>
<linearGradient id="paint34_linear" x1="3389.18" y1="4753.39" x2="2376.19" y2="6818.88" gradientUnits="userSpaceOnUse">
<stop stop-color="#FFBBAB"/>
<stop offset="0.95" stop-color="white"/>
</linearGradient>
<clipPath id="clip0">
<rect width="324" height="244" fill="white"/>
</clipPath>
</defs>
</svg>
