<svg width="406" height="306" viewBox="0 0 406 306" fill="none" xmlns="http://www.w3.org/2000/svg">
<path opacity="0.3" d="M119.222 53.4691C88.7719 66.6641 66.0968 100.078 61.6308 140.516C57.855 174.589 66.858 212.246 119.77 222.974C222.661 243.853 319.035 249.801 343.638 193.478C368.242 137.156 360.64 40.6801 308.418 34.4379C266.945 29.4745 178.802 27.7185 119.222 53.4691Z" fill="#F4A28C"/>
<path opacity="0.45" d="M202.259 282.676C265.743 282.676 317.208 278.814 317.208 274.049C317.208 269.284 265.743 265.421 202.259 265.421C138.775 265.421 87.3103 269.284 87.3103 274.049C87.3103 278.814 138.775 282.676 202.259 282.676Z" fill="#E6E6E6"/>
<path d="M318.213 119.738H311.473V140.597H318.213V119.738Z" fill="#FFD200"/>
<path d="M223.716 72.5917C223.716 72.5917 252.136 75.8498 254.856 108.33C257.577 140.81 250.472 162.236 279.612 155.324C308.753 148.412 319.116 147.377 319.116 147.377C319.116 147.377 330.18 148.25 327.063 156.624C323.947 164.997 311.838 156.624 311.838 156.624C311.838 156.624 265.93 186.495 238.261 164.013C210.592 141.53 223.716 72.5917 223.716 72.5917Z" fill="#F4A28C"/>
<path d="M247.163 265.513C247.163 265.513 249.04 269.299 252.644 269.187C256.247 269.075 257.587 272.466 254.481 273.744C251.375 275.023 242.585 271.846 242.585 271.846L242.128 265.269L247.163 265.513Z" fill="#37966F"/>
<path d="M165.78 265.899C165.78 265.899 163.902 269.695 160.299 269.583C156.696 269.471 155.356 272.861 158.462 274.14C161.568 275.419 170.327 272.242 170.327 272.242L170.774 265.665L165.78 265.899Z" fill="#37966F"/>
<path opacity="0.58" d="M129.413 262.234C129.413 262.234 120.765 259.869 118.887 251.831C118.887 251.831 132.275 249.121 132.661 262.945L129.413 262.234Z" fill="#37966F"/>
<path opacity="0.73" d="M130.468 261.382C130.468 261.382 124.429 251.831 129.747 242.909C129.747 242.909 139.897 249.374 135.401 261.402L130.468 261.382Z" fill="#37966F"/>
<path d="M132.021 261.382C132.021 261.382 135.218 251.303 144.861 249.395C144.861 249.395 146.667 255.941 138.618 261.412L132.021 261.382Z" fill="#37966F"/>
<path d="M125.759 261.158L127.504 273.146L138.548 273.186L140.172 261.219L125.759 261.158Z" fill="#24285B"/>
<path d="M197.164 50.9011C197.164 50.9011 200.331 56.9911 201 61.6601C201.063 62.1107 201.037 62.5693 200.923 63.0096C200.808 63.45 200.608 63.8634 200.334 64.2264C200.059 64.5893 199.716 64.8946 199.324 65.1248C198.931 65.355 198.497 65.5056 198.047 65.5679C195.702 65.8622 192.434 65.5679 190.343 62.5229L186.161 57.7524C185.43 56.7119 185.038 55.4714 185.038 54.1999C185.038 52.9284 185.43 51.6879 186.161 50.6474C188.688 46.5772 195.428 47.0847 197.164 50.9011Z" fill="#F4A28C"/>
<path d="M188.262 55.9863L187.267 78.499L199.711 78.1641L195.438 61.9139L188.262 55.9863Z" fill="#F4A28C"/>
<path d="M192.657 59.1226C192.657 59.1226 191.642 56.6968 189.835 57.6407C188.029 58.5847 189.582 62.1067 192.21 61.4064L192.657 59.1226Z" fill="#F4A28C"/>
<path d="M198.94 54.8495L201.741 56.575C201.896 56.6766 202.024 56.8151 202.112 56.9781C202.2 57.1411 202.246 57.3235 202.246 57.5088C202.246 57.6941 202.2 57.8764 202.112 58.0395C202.024 58.2025 201.896 58.341 201.741 58.4426L199.498 59.894L198.94 54.8495Z" fill="#F4A28C"/>
<path opacity="0.31" d="M196.453 65.639C194.87 65.4302 193.384 64.7594 192.18 63.7104C192.18 63.7104 192.82 67.7704 197.783 71.3128L196.453 65.639Z" fill="#CE8172"/>
<path d="M187.775 62.056L182.944 53.8649C182.944 53.8649 178.488 52.5251 180.426 48.9726C182.365 45.4201 185.258 47.0238 186.364 42.4259C187.47 37.8279 192.15 38.2441 193.774 40.6395C195.398 43.0349 201.193 40.4568 201.082 44.6995C200.97 48.9422 195.57 50.6575 194.038 51.1447C187.267 53.2356 195.662 60.635 187.775 62.056Z" fill="#24285B"/>
<path d="M216.855 71.9117C196.427 72.281 176.262 76.5889 157.467 84.5992C145.287 89.7858 145.531 102.991 151.448 114.816L178.224 180.405L238.109 176.863C238.109 176.863 249.02 140.647 246.828 99.7227C246.408 92.107 243.049 84.9514 237.458 79.7636C231.867 74.5757 224.48 71.7607 216.855 71.9117Z" fill="#37966F"/>
<path d="M293.314 82.7673L339.383 84.4888L338.724 102.148C338.495 108.257 335.85 114.025 331.368 118.183C326.887 122.342 320.937 124.55 314.828 124.321C308.719 124.093 302.951 121.447 298.793 116.966C294.634 112.485 292.426 106.535 292.654 100.426L293.314 82.7673Z" fill="#FFD200"/>
<path d="M327.612 135.288H303.312V153.629H327.612V135.288Z" fill="#24285B"/>
<path opacity="0.13" d="M321.968 139.541H308.946V149.376H321.968V139.541Z" fill="white"/>
<path d="M290.158 90.1918H310.823V112.613H290.158C287.197 112.613 284.357 111.437 282.263 109.343C280.169 107.249 278.993 104.409 278.993 101.448C278.981 99.9742 279.261 98.5126 279.817 97.1474C280.372 95.7822 281.193 94.5406 282.231 93.4942C283.269 92.4477 284.504 91.6171 285.864 91.0503C287.225 90.4835 288.684 90.1917 290.158 90.1918Z" stroke="#FFD200" stroke-width="3.045" stroke-miterlimit="10"/>
<path d="M343.781 112.613H323.115V90.1918H343.781C346.742 90.1918 349.582 91.3681 351.675 93.462C353.769 95.5558 354.946 98.3957 354.946 101.357C354.958 102.831 354.678 104.292 354.122 105.658C353.566 107.023 352.746 108.264 351.708 109.311C350.67 110.357 349.435 111.188 348.074 111.755C346.714 112.321 345.254 112.613 343.781 112.613Z" stroke="#FFD200" stroke-width="3.045" stroke-miterlimit="10"/>
<path opacity="0.08" d="M177.057 96.901C177.057 96.901 186.06 109.771 179.899 124.732C173.738 139.693 173.068 151.122 187.267 147.986C201.467 144.85 218.57 136.689 218.57 136.689L221.432 124.732L225.604 126.143C225.604 126.143 240.281 142.069 220.62 151.894C200.96 161.719 193.418 164.165 194.981 179.39L178.224 180.405L157.721 130.193L177.057 96.901Z" fill="black"/>
<path d="M187.582 71.3127C187.582 71.3127 179.696 73.089 180.995 83.1984C182.294 93.3078 212.866 96.7486 213.647 122.499H217.017C217.017 122.499 218.428 99.5196 198.94 90.1917C179.452 80.8639 187.42 75.2103 187.42 75.2103L187.582 71.3127Z" fill="#24285B"/>
<path d="M197.326 69.3944C197.326 69.3944 212.399 65.8318 217.037 79.8286C221.676 93.8255 224.011 104.27 217.037 122.459H213.668C218.223 108.936 217.864 94.2393 212.653 80.9553C212.653 80.9553 209.872 72.8353 198.443 73.2717L197.326 69.3944Z" fill="#24285B"/>
<path d="M215.2 143.063C221.641 143.063 226.863 137.842 226.863 131.401C226.863 124.96 221.641 119.738 215.2 119.738C208.759 119.738 203.538 124.96 203.538 131.401C203.538 137.842 208.759 143.063 215.2 143.063Z" fill="#FFD200"/>
<path d="M171.931 89.3696C168.279 86.6374 163.789 85.2616 159.233 85.4782C154.677 85.6949 150.338 87.4906 146.962 90.5571C134.934 101.235 116.725 122.722 122.186 152.046C127.606 181.207 207.771 147.894 207.771 147.894C207.771 147.894 223.239 144.271 221.676 139.084C220.113 133.898 205.101 137.531 205.101 137.531C205.101 137.531 159.852 144.789 152.676 140.12C146.465 136.09 192.738 105.478 171.931 89.3696Z" fill="#F4A28C"/>
<path opacity="0.43" d="M298.156 91.1561C297.243 97.8652 296.634 112.217 306.692 117.922C306.965 118.079 307.283 118.142 307.595 118.102C307.908 118.062 308.198 117.921 308.423 117.7C308.647 117.479 308.793 117.19 308.838 116.878C308.883 116.566 308.825 116.248 308.672 115.973C306.104 111.618 303.038 103.478 305.332 91.3083C305.415 90.8592 305.399 90.3973 305.285 89.9551C305.17 89.5129 304.961 89.101 304.671 88.7482C304.381 88.3954 304.017 88.1101 303.606 87.9124C303.194 87.7147 302.744 87.6093 302.287 87.6036C301.284 87.5915 300.311 87.9457 299.551 88.5997C298.79 89.2537 298.295 90.1626 298.156 91.1561Z" fill="white"/>
<path d="M178.224 180.405L165.831 265.97H170.693L194.149 211.16C197.743 202.263 204.345 194.91 212.805 190.383L238.119 176.842L178.224 180.405Z" fill="#F4A28C"/>
<path d="M238.119 176.832L247.132 265.969H242.159L211.962 186.059L238.119 176.832Z" fill="#F4A28C"/>
<path d="M178.224 180.375L171.494 214.133L197.326 216.651L209.384 198.513L217.037 216.651L247.132 214.133L238.119 176.832L178.224 180.375Z" fill="#24285B"/>
<path d="M167.505 254.398L175.24 255.332L170.693 265.959L165.831 265.969L167.505 254.398Z" fill="#37966F"/>
<path opacity="0.46" d="M167.505 254.398L175.24 255.332L170.693 265.959L165.831 265.969L167.505 254.398Z" fill="white"/>
<path d="M238.413 256.053H246.127L247.132 265.97H242.159L238.413 256.053Z" fill="#37966F"/>
<path opacity="0.46" d="M238.413 256.053H246.127L247.132 265.97H242.159L238.413 256.053Z" fill="white"/>
</svg>
