<?xml version="1.0" encoding="utf-8"?>
<!-- Generator: Adobe Illustrator 22.0.1, SVG Export Plug-In . SVG Version: 6.00 Build 0)  -->
<svg version="1.1" id="Capa_1" xmlns="http://www.w3.org/2000/svg" xmlns:xlink="http://www.w3.org/1999/xlink" x="0px" y="0px"
	 viewBox="0 0 781.1 294.1" style="enable-background:new 0 0 781.1 294.1;" xml:space="preserve">
<style type="text/css">
	.st0{fill:#FF5627;}
	.st1{fill:#006859;}
	.st2{fill:#FFFFFF;}
</style>
<g>
	<path class="st0" d="M501.8,183.1c-2,1.5-4.1,2.3-5.7,2.7c-0.2,0.1-0.5,0.1-0.8,0.1c-14.8,0.1-37,0.2-63.9,0.3
		c-31.7,0-63.3,0-63.8,0c-45.6-0.8-91.2-1.7-136.8-2.5c-48.8-0.9-97.6-1.8-146.5-2.7c-19.9-0.4-35.5,14.5-36.1,34.4
		c-0.6,19.6,14.4,35.6,34,36.1c4.5,0.1,9-0.2,13.5-0.4c55.7-2.2,111.5-4.4,167.2-6.6c21.5-0.9,43-1.9,64.5-2.5
		c55.9-1.7,111.8-3.2,167.7-4.8c4.3-0.1,7.1,1.7,10,4.8c7.7,8,15.3,16.1,23.7,23.2c8.9,7.5,19.4,10.7,31.3,9.9
		c33.9-2.2,67.9-3.6,101.9-5.4c23.5-1.2,47.1-2.4,70.6-3.8c1.8-0.1,4.3-0.6,5.2-1.8c1.2-1.8,2-4.7,1.5-6.8c-0.9-3.5-4.1-4.3-7.5-4.1
		c-57.6,3-115.3,5.9-172.9,9.1c-8.2,0.5-15.6-1.3-21.6-6.6c-8.1-7.1-15.8-14.7-23.2-22.6c-5.1-5.5-10.8-8.8-18.3-8.6
		c-2.7,0.1-5.3,0.1-8,0c-2.6,0-5.3,0-7.9,0.1c-79.6,2.7-159.1,5.3-238.7,8.1c-26.9,0.9-53.8,2.2-80.7,3.2c-25.5,1-51,2-76.5,2.9
		c-13.2,0.5-23.5-9.5-23.5-22.4c0-12.8,9.9-22.7,23-22.5c34.5,0.5,69,1.1,103.6,1.7c60,1.1,120.1,2.2,180.1,3.4
		c31.6,0.5,122.1-0.4,123.5-0.5l0.5,0c1,0,2.6,0.1,3.6,0.1c7.5,0,13-3.4,18.1-9v0c1.5-1.6,0.7-4.2-1.4-4.8l-7-2.1
		C503.6,182.4,502.6,182.5,501.8,183.1z"/>
	<path class="st0" d="M664.2,200.1c-21.9,0.2-43.8,0.5-65.6,0.7c-1.4,0-2.9,0-4.2-0.3c-2.9-0.6-4.4-2.7-4.6-5.6
		c-0.2-3,1.1-5.2,3.8-6.2c1.4-0.5,3-0.6,4.5-0.6c44.3-0.5,88.6-1,132.8-1.5c3.1,0,5.9,0.3,7.5,3.6c1.9,3.8,0,8-4.1,8.9
		c-1.6,0.4-3.3,0.3-5,0.4C707.7,199.6,685.9,199.8,664.2,200.1z"/>
	<path class="st0" d="M664.6,234.1c-22,0.2-44.1,0.5-66.1,0.6c-2.1,0-4.7-0.3-6.1-1.5c-1.4-1.2-2.3-4-2-5.9c0.3-1.8,2.3-3.5,4-4.7
		c1-0.7,2.7-0.5,4.1-0.5c43.9-0.5,87.9-1,131.8-1.4c0.9,0,1.8-0.1,2.7,0c4,0.3,6.5,2.9,6.5,6.4c0,3.7-2.4,6.2-6.5,6.2
		c-14.7,0.3-29.4,0.4-44.1,0.5C680.8,233.9,672.7,234,664.6,234.1z"/>
</g>
<path class="st1" d="M52.2,163.7V37.1c0-3.2,2.6-5.7,5.7-5.7h23.6c17,0,30.9,13.9,30.9,30.9v0c0,4.5-1.8,11.4-4.1,15.3
	c-1.6,2.8-4.9,6.7-7.4,8.7c13.4,6.7,24.3,24.3,24.3,39.2c0,24.2-19.6,43.8-43.8,43.8H57.9C54.8,169.4,52.2,166.8,52.2,163.7z
	 M100.8,62.3c0-10.6-8.6-19.4-19.3-19.5H63.6V158h17.9c17.8,0,32.4-14.5,32.4-32.4c0-17.8-14.5-32.4-32.4-32.4
	c-3.2,0-5.7-2.6-5.7-5.7s2.6-5.7,5.7-5.7C92.1,81.7,100.8,73,100.8,62.3z"/>
<path class="st1" d="M144.5,164.5v-127c0,0,0-0.1,0-0.1c0-3.2,2.6-5.7,5.7-5.7s5.7,2.6,5.7,5.7c0,0,0,0.1,0,0.1v127
	c0,3.2-2.6,5.7-5.7,5.7C147.1,170.2,144.5,167.6,144.5,164.5z"/>
<path class="st1" d="M190.6,68.8c0,14.3,11.6,25.9,25.8,25.9c20.6,0,37.3,16.7,37.3,37.3c0,20.6-16.7,37.3-37.3,37.3
	s-37.3-16.7-37.3-37.3c0-3.2,2.6-5.7,5.7-5.7c3.2,0,5.7,2.6,5.7,5.7c0,14.3,11.6,25.8,25.8,25.8s25.8-11.6,25.8-25.8
	c0-14.3-11.6-25.9-25.8-25.9c-20.6,0-37.3-16.7-37.3-37.3s16.7-37.3,37.3-37.3s37.3,16.7,37.3,37.3c0,3.2-2.6,5.7-5.7,5.7
	s-5.7-2.6-5.7-5.7c0-14.3-11.6-25.8-25.8-25.8C202.2,43,190.6,54.6,190.6,68.8z"/>
<path class="st1" d="M362.4,37.4c0,3.2-2.6,5.7-5.7,5.7h-38.1v120.3c0,3.2-2.6,5.7-5.7,5.7s-5.7-2.6-5.7-5.7V43.1H269
	c-3.2,0-5.7-2.6-5.7-5.7s2.6-5.7,5.7-5.7h87.7C359.8,31.7,362.4,34.2,362.4,37.4z"/>
<path class="st1" d="M446.9,90.5c0,13.5-7.8,32.1-17.3,41.6c-5.3,5.3-15.3,11.6-22.4,14.1l27.7,12.5c1.9,0.8,3.4,3.2,3.4,5.2
	c0,3.2-2.6,5.7-5.7,5.7h0h0c-0.7,0-1.7-0.2-2.3-0.5l-36.7-16.6v11.3c0,3.2-2.6,5.7-5.7,5.7s-5.7-2.6-5.7-5.7v-127
	c0-3.2,2.6-5.7,5.7-5.7c0,0,0.1,0,0.2,0c13.5,0,32.1,7.8,41.6,17.3c9.6,9.5,17.3,28.2,17.3,41.6c0,0,0,0.1,0,0.2
	C446.9,90.4,446.9,90.4,446.9,90.5z M393.5,137.6c23.7-2.9,41.9-23.2,41.9-47.3c0-24.1-18.2-44.5-41.9-47.3V137.6z"/>
<path class="st1" d="M602.8,100.5v0.1c0,38.4-31.2,69.6-69.6,69.6c-38.4,0-69.6-31.2-69.6-69.6c0-38.4,31.2-69.6,69.6-69.6
	c25.5,0,54.2,19.1,64.1,42.6C600.3,80.8,602.8,92.8,602.8,100.5z M533.4,42.9c-31.9,0-57.8,25.9-57.8,57.8
	c0,31.9,25.9,57.8,57.8,57.8s57.8-25.9,57.8-57.8C591.2,68.8,565.3,42.9,533.4,42.9z"/>
<path class="st1" d="M735.5,164.4c0,0.1,0,0.3,0,0.5c0,2.9-2.4,5.5-5.3,5.7c-0.2,0-0.3,0-0.5,0c-2.9,0-5.5-2.4-5.7-5.3l-9-108.6
	l-35.1,65.1c-0.9,1.7-3.2,3-5.1,3s-4.2-1.4-5.1-3l-35.2-65.1l-9,108.6c-0.3,2.9-2.8,5.2-5.7,5.2c-3.2,0-5.7-2.6-5.7-5.7
	c0-0.1,0-0.3,0-0.4l10.6-127.8c0.2-2.9,2.8-5.3,5.7-5.3c1.9,0,4.2,1.4,5.1,3l39.3,72.8L714,34.3c0.9-1.7,3.2-3,5.1-3
	c2.9,0,5.5,2.4,5.7,5.3L735.5,164.4z"/>
<circle class="st0" cx="533.2" cy="100.6" r="49.9"/>
<g>
	<path class="st2" d="M531.7,88.6c0,2.7,0,5.4,0,8.1c0,1.9-0.6,2.6-2.5,2.6c-5.4,0-10.7,0-16.1,0c-1.9,0-2.5-0.7-2.5-2.6
		c0-5.4,0-10.8,0-16.3c0-2,0.7-2.6,2.7-2.6c5.3,0,10.5,0,15.8,0c2.1,0,2.7,0.6,2.7,2.7C531.7,83.3,531.7,85.9,531.7,88.6z
		 M514.7,81.9c0,4.5,0,8.8,0,13.2c4.4,0,8.6,0,12.9,0c0-4.5,0-8.8,0-13.2C523.2,81.9,519,81.9,514.7,81.9z"/>
	<path class="st2" d="M534.7,88.6c0-2.7,0-5.4,0-8.1c0-2,0.6-2.7,2.6-2.7c5.3,0,10.6,0,16,0c2,0,2.6,0.7,2.6,2.7
		c0,5.4,0,10.7,0,16.1c0,2.1-0.7,2.7-2.8,2.7c-5.2,0-10.4,0-15.7,0c-2.2,0-2.8-0.6-2.8-2.8C534.7,93.8,534.7,91.2,534.7,88.6z
		 M551.8,95.2c0-4.5,0-8.8,0-13.3c-4.4,0-8.6,0-12.9,0c0,4.5,0,8.8,0,13.3C543.2,95.2,547.4,95.2,551.8,95.2z"/>
	<path class="st2" d="M531.7,112.6c0,2.8,0,5.6,0,8.4c0,1.7-0.7,2.4-2.4,2.4c-5.5,0-10.9,0-16.4,0c-1.6,0-2.4-0.7-2.4-2.3
		c0-5.6,0-11.2,0-16.9c0-1.6,0.8-2.3,2.4-2.3c5.5,0,10.9,0,16.4,0c1.7,0,2.4,0.7,2.4,2.5C531.7,107.2,531.7,109.9,531.7,112.6z
		 M527.6,119.4c0-4.5,0-8.9,0-13.3c-4.4,0-8.6,0-12.9,0c0,4.5,0,8.9,0,13.3C519,119.4,523.2,119.4,527.6,119.4z"/>
	<path class="st2" d="M499.7,82.8c0-2.5,0-5,0-7.4c0-4.9,3.4-8.2,8.2-8.3c5.2,0,10.3,0,15.5,0c1.9,0,3.1,1,3.1,2.6
		c0,1.6-1.2,2.7-3.1,2.7c-4.9,0-9.8,0-14.7,0c-2.7,0-3.6,0.9-3.6,3.7c0,5,0,9.9,0,14.9c0,1.2-0.4,2.2-1.5,2.6
		c-0.8,0.2-2,0.3-2.5-0.1c-0.7-0.5-1.2-1.6-1.3-2.5C499.6,88.2,499.7,85.5,499.7,82.8z"/>
	<path class="st2" d="M551,67.1c2.5,0,5,0,7.4,0c4.9,0.1,8.2,3.4,8.2,8.2c0,5.1,0,10.2,0,15.4c0,2-1,3.2-2.6,3.2
		c-1.7,0-2.7-1.2-2.7-3.3c0-4.9,0-9.7,0-14.6c0-2.7-0.9-3.6-3.6-3.6c-5,0-10,0-15.1,0c-1.4,0-2.3-0.6-2.8-1.9c-0.4-1.1,0-2.2,1-2.8
		c0.5-0.4,1.3-0.5,2-0.6C545.7,67.1,548.4,67.1,551,67.1z"/>
	<path class="st2" d="M515.4,134.2c-2.5,0-5,0-7.4,0c-4.9-0.1-8.2-3.4-8.3-8.2c0-5.1,0-10.2,0-15.4c0-2,1-3.2,2.6-3.2
		c1.7,0,2.7,1.2,2.7,3.3c0,4.9,0,9.7,0,14.6c0,2.7,0.9,3.6,3.5,3.6c5,0,10,0,15.1,0c1.5,0,2.5,0.7,2.8,2.1c0.3,1.3-0.2,2.3-1.3,2.9
		c-0.5,0.3-1.2,0.3-1.8,0.3C520.7,134.2,518,134.2,515.4,134.2z"/>
	<path class="st2" d="M566.7,118.5c0,2.5,0,5,0,7.4c-0.1,4.8-3.4,8.2-8.3,8.2c-5.1,0-10.2,0-15.4,0c-2,0-3.2-1-3.2-2.7
		c0-1.6,1.2-2.7,3.2-2.7c4.9,0,9.8,0,14.7,0c2.6,0,3.5-0.9,3.6-3.6c0-5,0-10,0-15.1c0-1.4,0.6-2.3,2-2.7c1.2-0.4,2.3,0.1,2.9,1.1
		c0.3,0.6,0.4,1.3,0.5,2C566.8,113.2,566.7,115.9,566.7,118.5z"/>
	<path class="st2" d="M542.7,115.3c0-1.7,0-3.4,0-5.1c1.7,0,3.4,0,5.2,0c0,1.7,0,3.4,0,5.1C546.1,115.3,544.5,115.3,542.7,115.3z"/>
	<path class="st2" d="M554.5,122.1c-1.7,0-3.3,0-5.1,0c0-1.7,0-3.4,0-5.2c1.6,0,3.2,0,5.1,0C554.5,118.5,554.5,120.2,554.5,122.1z"
		/>
	<path class="st2" d="M536,116.8c1.7,0,3.4,0,5.1,0c0,1.8,0,3.4,0,5.2c-1.7,0-3.4,0-5.1,0C536,120.3,536,118.6,536,116.8z"/>
	<path class="st2" d="M554.6,103.4c0,1.7,0,3.3,0,5.1c-1.7,0-3.4,0-5.2,0c0-1.6,0-3.3,0-5.1C551.1,103.4,552.8,103.4,554.6,103.4z"
		/>
	<path class="st2" d="M536,108.5c0-1.7,0-3.4,0-5.1c1.7,0,3.4,0,5.2,0c0,1.7,0,3.3,0,5.1C539.5,108.5,537.8,108.5,536,108.5z"/>
	<path class="st2" d="M523.7,91.2c-1.8,0-3.4,0-5.1,0c0-1.7,0-3.4,0-5.2c1.7,0,3.4,0,5.1,0C523.7,87.7,523.7,89.4,523.7,91.2z"/>
	<path class="st2" d="M542.7,86c1.7,0,3.4,0,5.2,0c0,1.8,0,3.5,0,5.2c-1.8,0-3.4,0-5.2,0C542.7,89.4,542.7,87.7,542.7,86z"/>
	<path class="st2" d="M523.7,110.1c0,1.7,0,3.4,0,5.2c-1.7,0-3.4,0-5.2,0c0-1.7,0-3.4,0-5.2C520.2,110.1,521.9,110.1,523.7,110.1z"
		/>
</g>
</svg>
