<svg width="59" height="59" viewBox="0 0 59 59" fill="none" xmlns="http://www.w3.org/2000/svg">
<circle cx="29.0662" cy="29.0662" r="29.0662" fill="#A0C555"/>
<path d="M43.0285 22.8742L42.2029 20.8801C41.9767 20.345 41.5037 19.9532 40.9354 19.8306C40.3672 19.7081 39.7747 19.8702 39.3477 20.2647C37.7327 21.7767 36.0554 23.3869 34.5564 24.8144L40.0348 16.1835C40.2866 15.784 40.37 15.3008 40.2664 14.8403C40.1624 14.3795 39.8805 13.9788 39.4815 13.7255L37.3403 12.3873V12.3877C36.955 12.1478 36.4929 12.0635 36.0479 12.1521C35.6029 12.2408 35.2083 12.4956 34.9447 12.8649C34.9073 12.8326 34.8669 12.8043 34.8243 12.78L33.4055 11.9592C33.0663 11.7554 32.6605 11.6932 32.2759 11.7859C31.8909 11.8783 31.558 12.1185 31.3488 12.4545L30.2158 14.3947C30.1669 14.097 30.0337 13.8194 29.8321 13.5948C29.6307 13.3705 29.369 13.2084 29.0781 13.1278C28.8372 13.0652 28.4625 12.9806 28.0608 12.8913C27.6593 12.802 27.1997 12.6997 26.9143 12.6237C26.4668 12.5077 25.9913 12.5951 25.6145 12.8627C25.2377 13.1303 24.9981 13.5506 24.9604 14.0111C24.9134 14.9522 24.9296 15.8956 25.0093 16.8346C25.0404 17.3965 25.0762 17.9809 25.0852 18.4939C25.0883 19.2226 24.98 19.9475 24.7641 20.6438C24.3981 19.9182 23.8252 19.3175 23.1179 18.9176C22.868 18.7683 22.5689 18.7253 22.287 18.7985C22.0054 18.8713 21.7648 19.0539 21.6186 19.3056C21.4726 19.5573 21.4331 19.8569 21.5096 20.1375C21.5859 20.4182 21.7714 20.6568 22.025 20.7996C22.4871 21.0433 22.8219 21.4739 22.9439 21.9816C23.1804 22.8737 22.8459 24.0423 22.4976 24.8587L19.0491 30.6573L18.9778 30.7687L16.4886 34.9572C15.0254 37.0627 13.4552 41.8084 17.8625 44.962V44.9617C18.9588 45.691 20.2441 46.0846 21.561 46.0949C21.9472 46.0955 22.3324 46.0594 22.7117 45.9879C24.746 45.5952 26.535 44.2039 28.0249 41.8532L28.4933 41.1843L28.5515 41.1616L32.0623 36.3353C32.4727 35.7867 33.8466 34.3192 35.1582 34.1362L35.1585 34.1365C35.6686 34.0584 36.1876 34.2046 36.5816 34.5379C37.0596 34.9075 37.7467 34.8195 38.1164 34.3416C38.4858 33.8637 38.398 33.177 37.92 32.8073C37.2351 32.2573 36.389 31.947 35.5108 31.924C37.2329 30.0865 39.8696 27.3345 42.5863 24.8544C42.8523 24.6083 43.0372 24.2869 43.1162 23.9332C43.1949 23.5791 43.1645 23.2098 43.0282 22.8741L43.0285 22.8742ZM32.8697 14.1405L33.7264 14.6399H33.7622L30.4073 19.8632V19.417V18.3554L32.8697 14.1405ZM33.0035 31.4206L33.0038 31.4203C32.1592 32.3394 31.3754 33.3123 30.6572 34.3331L26.2271 40.6491C26.2144 40.6619 26.2038 40.6771 26.196 40.6936C25.0449 42.5135 23.7423 43.5841 22.3282 43.865C21.2201 44.0523 20.0818 43.8217 19.1339 43.2181C17.5412 42.0806 16.9033 40.6445 17.2378 38.8246C17.417 37.8887 17.7762 36.9967 18.2952 36.1974L18.3397 36.1262L20.9095 31.7952L23.9653 26.7993C24.1477 26.4866 24.3117 26.1634 24.4561 25.8314L25.9684 23.2888V23.2891C26.8434 21.8156 27.2915 20.1274 27.262 18.414C27.262 17.8564 27.2175 17.2497 27.1817 16.661C27.1459 16.0724 27.1104 15.4121 27.1058 14.877L27.5831 14.9884L28.0963 15.1045C28.1766 16.3356 28.2167 18.1153 28.2344 19.4622C28.2506 20.6731 27.964 21.8692 27.4004 22.9413L22.7295 31.7952C22.7186 31.8136 22.7096 31.8329 22.7027 31.8531C22.6872 31.888 22.6738 31.9237 22.6626 31.9601C22.6502 31.9922 22.6396 32.0249 22.6312 32.0582V32.1652C22.6293 32.1994 22.6293 32.2336 22.6312 32.2679C22.629 32.3036 22.629 32.3394 22.6312 32.3749C22.629 32.4091 22.629 32.4434 22.6312 32.4776C22.6293 32.5118 22.6293 32.546 22.6312 32.5803C22.6396 32.6135 22.6502 32.6462 22.6626 32.6783L22.7027 32.7763V32.7766C22.7174 32.8071 22.7335 32.8369 22.7516 32.8656L22.8095 32.9549L22.8807 33.0351H22.8811C22.9025 33.0625 22.9265 33.088 22.9526 33.1111L23.0419 33.1823L23.0911 33.2181H23.1312L23.1714 33.2448H23.2293L23.3363 33.2893L23.4344 33.3161H23.7511C23.7851 33.3204 23.8196 33.3204 23.8535 33.3161H23.9562L24.0542 33.285L24.1523 33.2448L24.2416 33.1913H24.2419C24.2824 33.1761 24.3212 33.1568 24.3577 33.1331L24.4423 33.0663L24.5136 32.9903L24.5139 32.9906C24.54 32.9645 24.564 32.9359 24.5854 32.9057L24.6256 32.8566L36.5146 14.3992L37.9825 15.3227L24.2373 37.009C24.2373 37.009 24.2373 37.0535 24.2062 37.0716C24.1881 37.1049 24.1716 37.1391 24.157 37.1742C24.1299 37.239 24.1091 37.3062 24.0948 37.3749C24.0926 37.4107 24.0926 37.4462 24.0948 37.482V37.5846C24.0923 37.6201 24.0923 37.6559 24.0948 37.6917V37.7943C24.0995 37.828 24.1085 37.8609 24.1215 37.8924C24.129 37.926 24.1396 37.9586 24.1527 37.9904C24.1648 38.0243 24.1797 38.0573 24.1972 38.0887C24.2109 38.1198 24.2273 38.1497 24.2463 38.1777L24.3132 38.267C24.3328 38.2959 24.3552 38.3227 24.3801 38.3472L24.4604 38.4232C24.4791 38.4368 24.4971 38.4518 24.514 38.4676L24.5497 38.49H24.5809C24.6126 38.5121 24.6471 38.5302 24.6836 38.5436H24.7103C24.7682 38.5685 24.8279 38.5893 24.8886 38.6061H24.9422C24.9891 38.6182 25.0368 38.6257 25.085 38.6282H25.1609C25.2113 38.6325 25.2621 38.6325 25.3125 38.6282H25.3482C25.3999 38.6198 25.4506 38.6061 25.4998 38.5881H25.5399L25.7005 38.5121L25.7407 38.4854L25.741 38.4857C25.7883 38.4568 25.8331 38.4241 25.8748 38.3874C25.9239 38.3429 25.9688 38.2934 26.0086 38.2402L30.1263 32.6871C31.1068 31.3616 32.1931 30.1177 33.3738 28.9672C35.1986 27.2096 37.8574 24.6583 40.4182 22.2498L40.9133 23.4452C37.6745 26.4423 34.5784 29.7121 33.0039 31.4198L33.0035 31.4206Z" fill="#F5F5F5"/>
</svg>
