<svg width="232" height="231" viewBox="0 0 232 231" fill="none" xmlns="http://www.w3.org/2000/svg">
<path d="M222.641 115.199C222.641 174.038 174.942 221.737 116.102 221.737C57.2629 221.737 9.56396 174.038 9.56396 115.199C9.56396 56.3592 57.2629 8.66028 116.102 8.66028C174.942 8.66028 222.641 56.3592 222.641 115.199Z" fill="#1CB6F1" stroke="#1CB6F1" stroke-width="17.2381" stroke-linecap="round" stroke-linejoin="round"/>
<path d="M153.213 131.954L151.884 142.974L150.485 147.954C149.978 149.947 149.195 151.781 148.283 153.542C147.391 154.93 145.682 156.084 144.381 157.355L137.503 162.357L132.188 165.718L128.202 167.672L119.995 167.75L115.384 167.594C111.527 167.796 107.271 167.6 103.205 167.594C98.8521 165.832 94.6999 162.663 90.4513 160.169L82.9481 153.994L80.6213 148.845L78.7455 140.304L77.6333 128.671L78.5712 123.825L80.2433 120.93L81.932 118.901L83.886 114.446L87.5594 105.302L89.5134 102.332L92.7179 99.5961L96.8603 97.6421L98.7361 96.2353L99.7522 94.9848L100.221 93.9686L100.768 91.9366L101.472 90.3734L103.582 89.9044L105.77 90.6859L108.115 92.2492L110.225 92.7181L112.492 92.4053L114.315 92.4276C114.709 92.5531 114.606 92.6786 114.684 92.804L115.414 92.8961L115.719 93.1359L115.871 92.722L116.503 92.7443L116.873 92.3958L117.984 92.3735L119.443 92.5699L120.598 92.5476L121.84 92.5922L122.907 92.3524L123.778 91.9603L125.282 90.9364L125.891 90.6966L126.697 90.3917L127.787 90.0647L129.072 90.1093L130.074 90.8064L130.575 92.0482L130.901 94.4445L131.577 95.2721L133.015 96.8624L136.238 98.4743L138.221 99.4111L140.225 100.849L141.51 102.178L142.991 104.726L143.47 105.685L144.843 108.43L146.498 112.503L147.065 114.006L148.829 118.036L150.79 120.955L152.336 123.569L152.641 124.397L153.273 125.857L153.213 131.954Z" fill="white" stroke="white" stroke-width="0.278832"/>
<path d="M77.8705 120.806L79.7252 118.439H79.8928L80.6468 117.434L82.5738 112.239L84.1657 107.548L75.8888 101.223L77.3793 98.9179L78.3847 95.399L78.335 89.6409L77.379 84.172L81.3168 81.9098L86.9912 77.4781L93.0466 70.8504L96.3979 64.2315L97.6547 57.5288C97.4837 55.8464 97.5376 54.6137 96.9844 52.1667L96.3979 49.5694L94.4709 53.0883L91.7898 57.445L88.3547 61.3829L85.3385 64.6504L81.7358 67.5829L78.3007 69.845L75.8938 71.1044L76.0385 66.3261L77.8817 56.3559L80.9817 48.3964L83.9979 41.191L80.6466 43.7045L75.6196 46.8883L73.1061 48.8153L69.5034 52.418L66.4872 56.2721L63.7223 60.2099L60.8737 66.2423L58.6115 74.2018L57.9413 79.6477L57.7737 83.9206L58.444 90.1206L59.4493 94.0585L60.7899 98.1639L62.2142 100.594L63.8061 102.102L65.2304 103.191L66.9061 106.123L67.9115 108.134L70.3412 112.742L72.8547 115.926L74.5304 117.937L76.0993 119.587L77.0959 120.563C77.6715 120.447 77.5804 120.219 77.8703 120.806H77.8705Z" fill="white" stroke="white" stroke-width="0.278832"/>
<path d="M77.7648 121.25L73.8281 119.98L70.7485 118.964L67.6054 118.139L65.8593 117.758L64.4624 117.504L63.5099 117.662L62.7162 117.98L62.113 118.488L61.0019 119.44L60.4304 119.885L60.0494 120.615L60.1129 121.409L60.3351 122.361L61.0971 123.567L62.1765 124.552L63.256 125.409L64.9703 126.71L67.0975 127.853L68.8754 128.711L70.7802 129.568L74.6852 131.155L70.9707 131.695L66.9387 132.298L63.5417 132.679L61.1923 133.06L60.0177 133.632L59.1287 134.552L58.6207 135.822L58.2397 137.156L58.2715 138.394L58.97 139.473L60.2717 140.267L61.8591 140.807L63.7957 141.283L65.6371 141.505L67.9547 141.6L70.5898 141.569L72.7486 141.378L75.1297 141.156L75.6694 141.029L74.717 141.378L73.2248 141.886L70.304 143.219L67.6054 145.061L66.2403 146.172L64.8751 147.442L63.383 149.156L62.24 150.871L61.6051 152.236L61.4146 153.919L62.0178 155.188L62.7797 156.046L63.5099 156.522L64.3671 156.998L65.3196 157.252L66.3038 157.062L67.7007 156.554L68.9071 155.982L70.3675 155.093L72.0819 154.014L73.2566 153.347L74.6852 152.712L76.7171 151.887L78.241 151.474L78.9077 151.283L77.8601 151.918L76.8441 152.712L75.1932 154.236L74.463 155.284L73.4153 156.903L72.5264 158.744L71.9549 160.268L71.7327 161.189L71.8279 162.332L72.1137 163.697L73.1296 164.586L73.9551 164.903L74.3678 164.935L75.1615 165.316L76.0505 165.57L77.3521 165.157L78.495 164.332L79.9872 162.808L81.2889 161.919L84.0192 160.268L85.7971 159.474L86.1781 159.252L85.1304 158.427L83.6065 157.189L82.5588 156.014L81.4476 154.585L80.6539 153.315L79.0665 149.633L78.3363 147.22L77.2569 142.616L77.0981 141.156L76.1139 134.33L75.8917 131.06L76.0187 126.742L76.1774 125.726L76.3361 125.472L76.3044 125.187L76.3996 124.107L77.0981 122.583L77.5743 121.631L77.7648 121.25Z" fill="white" stroke="white" stroke-width="0.278832"/>
<path d="M51.1479 111.172L51.5164 112.054L52.3754 113.505L53.3233 115.075L54.1823 116.171L55.1006 117.415L55.7523 118.126L56.2855 118.541L57.0853 118.926L57.7369 119.015L58.6256 118.985L59.4846 118.57L60.3437 117.711L60.8176 116.527L60.8769 115.431L60.4029 113.653L59.5143 112.646L57.7666 110.454L55.8115 107.64L54.4785 105.626L53.6787 104.382L52.7308 103.493L52.0495 103.049L51.072 102.812L50.0648 103.256L49.3835 103.937L49.2058 104.915L49.3835 106.011L49.6798 107.403L50.1833 108.884L50.4796 109.743L50.8446 110.501L51.1479 111.172Z" fill="white" stroke="white" stroke-width="0.278832"/>
<path d="M47.3613 90.697L47.2524 91.7208L47.0781 92.7446L47.0999 94.5527L47.1434 96.0993L47.2087 97.341L47.3394 98.8876L47.4266 99.8026L47.5573 100.391L47.8623 100.935L48.2327 101.48L48.6684 101.72L49.2783 101.981L49.9536 101.894L50.6725 101.632L51.1299 101.088L51.3913 100.609L51.5656 100.064L51.6091 99.5847L51.6526 99.1708L51.4565 98.9094L51.0644 97.6895L50.5416 95.6636L50.2584 94.3348L50.1495 93.5942L49.6702 91.9604L49.1474 90.1306L48.7117 89.0196L48.5156 88.7146L48.2543 88.5621L47.8839 88.9542L47.6225 89.7167L47.4918 90.3266L47.3613 90.697Z" fill="white" stroke="white" stroke-width="0.278832"/>
<path d="M39.5627 110.651L39.2795 110.934L39.0399 111.893L38.9091 112.829L38.8002 114.093L38.7349 115.639L38.7566 116.663L38.8001 117.665L38.9744 118.929L39.2576 120.236L39.5843 121.543L39.8675 121.978L40.1071 122.61L40.4338 123.133L40.9567 123.416L41.6755 123.525L42.2419 123.373L42.438 123.22L43.2222 122.763L43.5707 122.262L43.7014 121.913L43.8539 121.369L43.7014 120.454L43.2875 119.865L42.2419 117.752L41.5884 115.879L40.8478 113.265L40.3685 111.74L40.0418 110.847L39.8675 110.542L39.5627 110.651Z" fill="white" stroke="white" stroke-width="0.278832"/>
<path d="M47.0459 132.576L46.0874 131.662L45.02 130.859L43.9526 129.945L43.408 129.161L42.907 128.134L42.4931 127.201L42.4277 126.548L42.4428 125.501L42.9393 124.964L43.4621 124.653C43.8183 124.191 44.1744 124.216 44.5306 124.257L45.8021 124.801L47.7487 126.211L49.676 127.589L51.6905 128.784L54.2105 130.187L56.0426 131.232L56.4565 131.344L57.219 132.147L57.5457 132.483L57.8071 133.08L57.7853 133.547L57.6111 134.237L57.3061 134.853L56.9357 135.413L56.5872 135.73L55.9555 136.048L55.2148 136.253L54.3217 136.216L53.6246 136.122L52.1651 135.6L50.5967 134.741L49.0282 133.827L47.9173 133.211L47.0459 132.576Z" fill="white" stroke="white" stroke-width="0.258087"/>
<path d="M61.2443 166.216L63.1149 162.05C63.4253 161.561 63.8685 161.293 63.7528 160.094C63.4561 159.148 63.4624 159.046 63.1151 158.478C62.6474 157.542 62.1797 157.559 61.712 157.16C60.7689 156.514 60.2384 156.901 59.572 156.947C58.2783 157.676 58.003 158.2 57.4038 158.79L55.1503 164.501L54.3852 167.86L54.0449 171.686L54.7819 173.897L56.2558 175.003L57.6588 174.677L58.4382 173.599L60.1106 169.079L61.2443 166.216Z" fill="white" stroke="white" stroke-width="0.278832"/>
<path d="M55.4838 177.363L56.1075 176.569L56.5612 176.343L57.1487 176.23L58.0355 176.286L58.7727 176.57L59.1129 177.364L59.2264 177.817L59.5666 178.668L59.7934 179.575L60.1904 181.08L60.8141 182.637L61.608 184.508L62.1184 185.983L62.7421 187.117L63.0256 187.741V188.251L62.4586 188.308L61.4946 187.854L60.644 187.287L59.2831 186.096L58.2057 184.622L56.788 182.467L56.1643 181.08L55.5768 179.425L55.3704 178.214L55.4838 177.363Z" fill="white" stroke="white" stroke-width="0.278832"/>
<path d="M81.2719 182.263L81.6461 181.852L82.1324 181.478L82.731 181.08H83.6663L85.4995 181.627L87.3326 182.189L88.5672 182.563L90.2508 183.049L91.5602 183.311L93.094 183.685L94.3286 184.059L94.9272 184.62L94.7402 184.92L94.179 185.182L93.5056 185.369L92.7574 185.481L91.7098 185.743L90.363 185.855L89.4277 185.892H88.0061L86.7715 185.78L85.275 185.63L84.1153 185.406L82.6562 185.069L81.7209 184.471L81.1223 183.685V182.675L81.2719 182.263Z" fill="white" stroke="white" stroke-width="0.278832"/>
<path d="M76.3335 173.846L76.1838 172.836L76.1464 171.826V171.115L76.2961 170.367V169.88L76.3334 169.431L76.1464 168.646L75.5104 167.71L74.9866 167.149L74.0513 166.775L73.4527 166.401H72.8542L72.1808 166.513L71.5822 166.887L70.6843 167.448L70.0109 168.459L69.8238 169.169L69.5994 170.479L69.6367 171.9L69.8238 173.584L70.0856 175.043L70.4598 176.465L71.1706 178.036L72.1433 179.42L73.4901 181.08L74.9492 181.889L76.109 182.638L77.4932 183.012L78.4659 183.124L79.289 182.9L79.7005 182.376L80.0372 181.74L80.2617 181.08L80.0372 179.981L79.3638 178.971L78.1666 177.475L77.3062 176.315L76.8198 175.455L76.4831 174.632L76.3335 173.846Z" fill="white" stroke="white" stroke-width="0.278832"/>
<path d="M154.334 121.704L152.479 119.338H152.312L151.558 118.333L149.631 113.138L148.039 108.446L156.316 102.122L154.825 99.8165L153.82 96.2976L153.87 90.5394L154.826 85.0706L150.888 82.8084L145.213 78.3767L139.158 71.749L135.807 65.1301L134.55 58.4274C134.721 56.745 134.667 55.5122 135.22 53.0652L135.807 50.468L137.734 53.9869L140.415 58.3436L143.85 62.2814L146.866 65.549L150.469 68.4814L153.904 70.7436L156.311 72.003L156.166 67.2247L154.323 57.2544L151.223 49.295L148.207 42.0896L151.558 44.6031L156.585 47.7869L159.099 49.7139L162.701 53.3166L165.717 57.1706L168.482 61.1085L171.331 67.1409L173.593 75.1003L174.263 80.5462L174.431 84.8192L173.761 91.0192L172.755 94.957L171.415 99.0624L169.99 101.492L168.398 103L166.974 104.089L165.299 107.022L164.293 109.033L161.863 113.641L159.35 116.825L157.674 118.835L156.105 120.485L155.109 121.462C154.533 121.346 154.624 121.117 154.334 121.704H154.334Z" fill="white" stroke="white" stroke-width="0.278832"/>
<path d="M154.44 122.148L158.377 120.878L161.456 119.863L164.599 119.037L166.345 118.656L167.742 118.402L168.695 118.561L169.488 118.878L170.092 119.386L171.203 120.339L171.774 120.783L172.155 121.513L172.092 122.307L171.869 123.26L171.107 124.466L170.028 125.45L168.949 126.307L167.234 127.609L165.107 128.752L163.329 129.609L161.424 130.466L157.519 132.054L161.234 132.593L165.266 133.197L168.663 133.578L171.012 133.959L172.187 134.53L173.076 135.451L173.584 136.721L173.965 138.054L173.933 139.292L173.235 140.372L171.933 141.165L170.346 141.705L168.409 142.181L166.568 142.404L164.25 142.499L161.615 142.467L159.456 142.277L157.075 142.054L156.535 141.927L157.488 142.277L158.98 142.785L161.901 144.118L164.599 145.959L165.964 147.071L167.329 148.341L168.822 150.055L169.965 151.769L170.6 153.134L170.79 154.817L170.187 156.087L169.425 156.944L168.695 157.42L167.837 157.897L166.885 158.151L165.901 157.96L164.504 157.452L163.297 156.881L161.837 155.992L160.123 154.912L158.948 154.246L157.519 153.611L155.487 152.785L153.964 152.372L153.297 152.182L154.345 152.817L155.36 153.611L157.011 155.135L157.742 156.182L158.789 157.801L159.678 159.643L160.25 161.167L160.472 162.087L160.377 163.23L160.091 164.595L159.075 165.484L158.25 165.802L157.837 165.834L157.043 166.215L156.154 166.469L154.852 166.056L153.71 165.23L152.217 163.707L150.916 162.818L148.185 161.167L146.407 160.373L146.027 160.151L147.074 159.325L148.598 158.087L149.646 156.913L150.757 155.484L151.551 154.214L153.138 150.531L153.868 148.118L154.948 143.515L155.106 142.054L156.091 135.229L156.313 131.959L156.186 127.641L156.027 126.625L155.868 126.371L155.9 126.085L155.805 125.006L155.107 123.482L154.63 122.529L154.44 122.148Z" fill="white" stroke="white" stroke-width="0.278832"/>
<path d="M181.057 112.071L180.688 112.952L179.829 114.404L178.881 115.974L178.022 117.07L177.104 118.314L176.452 119.025L175.919 119.439L175.119 119.824L174.468 119.913L173.579 119.884L172.72 119.469L171.861 118.61L171.387 117.425L171.328 116.329L171.802 114.552L172.69 113.545L174.438 111.353L176.393 108.539L177.726 106.524L178.526 105.28L179.474 104.391L180.155 103.947L181.133 103.71L182.14 104.154L182.821 104.836L182.999 105.813L182.821 106.909L182.525 108.302L182.021 109.783L181.725 110.642L181.36 111.4L181.057 112.071Z" fill="white" stroke="white" stroke-width="0.278832"/>
<path d="M184.843 91.5955L184.952 92.6194L185.126 93.6432L185.105 95.4512L185.061 96.9979L184.996 98.2396L184.865 99.7862L184.778 100.701L184.647 101.289L184.342 101.834L183.972 102.379L183.536 102.618L182.926 102.88L182.251 102.792L181.532 102.531L181.075 101.986L180.813 101.507L180.639 100.962L180.596 100.483L180.552 100.069L180.748 99.808L181.14 98.5881L181.663 96.5622L181.946 95.2334L182.055 94.4927L182.534 92.8589L183.057 91.0291L183.493 89.9181L183.689 89.6132L183.95 89.4607L184.321 89.8528L184.582 90.6152L184.713 91.2252L184.843 91.5955Z" fill="white" stroke="white" stroke-width="0.278832"/>
<path d="M192.642 111.549L192.925 111.833L193.165 112.791L193.295 113.728L193.404 114.991L193.47 116.538L193.448 117.562L193.404 118.564L193.23 119.827L192.947 121.134L192.62 122.441L192.337 122.877L192.097 123.509L191.771 124.032L191.248 124.315L190.529 124.424L189.963 124.271L189.767 124.119L188.982 123.661L188.634 123.16L188.503 122.812L188.351 122.267L188.503 121.352L188.917 120.764L189.963 118.651L190.616 116.778L191.357 114.164L191.836 112.639L192.163 111.746L192.337 111.441L192.642 111.549Z" fill="white" stroke="white" stroke-width="0.278832"/>
<path d="M185.159 133.475L186.117 132.56L187.185 131.758L188.252 130.843L188.797 130.059L189.298 129.033L189.712 128.1L189.777 127.447L189.762 126.4L189.265 125.863L188.742 125.551C188.386 125.09 188.03 125.115 187.674 125.156L186.402 125.699L184.456 127.109L182.529 128.488L180.514 129.683L177.994 131.085L176.162 132.131L175.748 132.243L174.986 133.046L174.659 133.381L174.398 133.979L174.419 134.445L174.594 135.136L174.899 135.752L175.269 136.312L175.617 136.629L176.249 136.946L176.99 137.151L177.883 137.114L178.58 137.021L180.039 136.498L181.608 135.64L183.176 134.725L184.287 134.109L185.159 133.475Z" fill="white" stroke="white" stroke-width="0.258087"/>
<path d="M170.96 167.114L169.09 162.948C168.779 162.459 168.336 162.192 168.452 160.992C168.748 160.047 168.742 159.945 169.089 159.377C169.557 158.441 170.025 158.457 170.493 158.058C171.436 157.413 171.966 157.799 172.633 157.846C173.926 158.574 174.202 159.099 174.801 159.688L177.054 165.4L177.819 168.759L178.16 172.585L177.423 174.796L175.949 175.901L174.546 175.575L173.766 174.498L172.094 169.977L170.96 167.114Z" fill="white" stroke="white" stroke-width="0.278832"/>
<path d="M176.721 178.262L176.097 177.468L175.643 177.241L175.056 177.129L174.169 177.185L173.432 177.468L173.092 178.262L172.978 178.716L172.638 179.566L172.411 180.474L172.014 181.979L171.39 183.536L170.597 185.407L170.086 186.881L169.462 188.015L169.179 188.639V189.15L169.746 189.206L170.71 188.753L171.561 188.186L172.922 186.995L173.999 185.52L175.417 183.366L176.04 181.979L176.628 180.324L176.834 179.113L176.721 178.262Z" fill="white" stroke="white" stroke-width="0.278832"/>
<path d="M150.933 183.162L150.559 182.75L150.072 182.376L149.474 181.978H148.538L146.705 182.526L144.872 183.087L143.637 183.461L141.954 183.948L140.644 184.21L139.111 184.584L137.876 184.958L137.277 185.519L137.464 185.818L138.026 186.08L138.699 186.267L139.447 186.379L140.495 186.641L141.842 186.754L142.777 186.791H144.199L145.433 186.679L146.93 186.529L148.089 186.305L149.548 185.968L150.484 185.369L151.082 184.584V183.574L150.933 183.162Z" fill="white" stroke="white" stroke-width="0.278832"/>
<path d="M155.871 174.744L156.021 173.734L156.058 172.724V172.013L155.909 171.265V170.779L155.871 170.33L156.058 169.544L156.694 168.609L157.218 168.048L158.153 167.674L158.752 167.299H159.35L160.024 167.412L160.622 167.786L161.52 168.347L162.194 169.357L162.381 170.068L162.605 171.377L162.568 172.799L162.381 174.483L162.119 175.942L161.745 177.363L161.034 178.935L160.061 180.319L158.714 181.978L157.255 182.788L156.096 183.536L154.711 183.91L153.739 184.023L152.916 183.798L152.504 183.274L152.167 182.638L151.943 181.979L152.167 180.88L152.841 179.87L154.038 178.373L154.898 177.214L155.385 176.353L155.721 175.53L155.871 174.744Z" fill="white" stroke="white" stroke-width="0.278832"/>
</svg>
