<svg width="59" height="59" viewBox="0 0 59 59" fill="none" xmlns="http://www.w3.org/2000/svg">
<circle cx="29.1501" cy="29.0662" r="29.0662" fill="#F3A979"/>
<path d="M28.3327 38.0743C28.2888 38.1131 28.2445 38.1513 28.1998 38.189C24.7315 41.1087 19.3761 40.8247 16.2976 37.1443C12.6448 32.7769 10.8523 24.1559 14.1447 21.3846C16.9842 18.9941 23.5235 21.1737 27.6341 24.6621C29.4353 19.9402 32.8173 15.8543 36.24 15.8543C41.2133 15.8543 46.1788 24.7837 46.1788 31.3098C46.1788 37.2713 41.8646 42.2781 36.24 42.2781C32.9324 42.2781 30.114 40.6445 28.3326 38.0744L28.3327 38.0743ZM36.2401 40.2838C40.6974 40.2838 44.1914 36.229 44.1914 31.3099C44.1914 25.7388 39.8039 17.8488 36.2401 17.8488C32.6308 17.8488 28.2888 25.5742 28.2888 31.3099C28.2888 36.3875 31.7042 40.2838 36.2401 40.2838ZM15.4226 22.9123C13.2274 24.7601 14.7798 32.2267 17.8205 35.8625C20.1726 38.6747 24.2719 38.8921 26.9222 36.6614C27.0636 36.5424 27.1998 36.4155 27.3303 36.2812C26.6561 34.7633 26.3015 33.069 26.3015 31.3101C26.3015 29.9427 26.5423 28.377 26.989 26.7615C23.6028 23.5262 17.4031 21.2452 15.4229 22.9125L15.4226 22.9123Z" fill="#F5F5F5"/>
</svg>
