<svg width="59" height="59" viewBox="0 0 59 59" fill="none" xmlns="http://www.w3.org/2000/svg">
<circle cx="29.192" cy="29.0662" r="29.0662" fill="#28429D"/>
<path d="M42.0236 28.9354C42.0236 29.4726 41.5882 29.9083 41.051 29.9083C40.5135 29.9083 40.0781 29.4726 40.0781 28.9354C40.0781 28.3982 40.5135 27.9625 41.051 27.9625C41.5882 27.9625 42.0236 28.3982 42.0236 28.9354Z" fill="#F5F5F5"/>
<path d="M48.9833 28.3809C48.0607 26.2322 44.6056 23.0755 39.5082 21.4233C39.4616 21.5507 39.3988 21.6717 39.311 21.7761C37.7014 23.6892 36.8146 26.26 36.8146 29.0156C36.8146 31.7686 37.7008 34.3395 39.3089 36.2526C39.3618 36.3157 39.3896 36.3933 39.428 36.4652C44.5671 34.8221 48.0554 31.6487 48.9832 29.4891C49.0926 29.3274 49.15 29.1344 49.146 28.9346C49.15 28.7357 49.0926 28.5427 48.9832 28.3809L48.9833 28.3809ZM41.0508 31.8178C39.4611 31.8178 38.1679 30.5248 38.1679 28.9349C38.1679 27.3452 39.4608 26.052 41.0508 26.052C42.6405 26.052 43.9337 27.3449 43.9337 28.9349C43.9334 30.5246 42.6405 31.8178 41.0508 31.8178Z" fill="#F5F5F5"/>
<path d="M34.9052 29.0161C34.9052 25.9723 35.8037 23.1156 37.4366 20.8631C36.4287 20.6409 35.3751 20.4734 34.2697 20.3893C33.3071 19.1052 31.6582 17.7275 28.9757 17.63C28.6301 17.6167 20.496 17.3512 19.9779 19.864C19.7016 21.2042 21.3397 21.9522 22.2514 22.3153C20.2885 23.2015 18.6841 24.3538 17.5463 25.7178C17.3298 24.5035 16.9276 23.2049 16.1713 22.4415C15.5085 21.773 14.6236 21.5451 13.6979 21.8085C13.3108 21.9194 12.8913 21.9728 12.4158 21.9728C12.0287 21.9728 11.6666 21.9379 11.3463 21.9066C11.0669 21.8807 10.825 21.8588 10.632 21.8588C9.85577 21.8588 9.51015 22.2229 9.35669 22.5285C8.95991 23.3166 9.48033 24.1474 10.8534 25.9963C11.8397 27.3237 12.7527 28.3054 13.605 28.9548C12.7532 29.6043 11.8402 30.586 10.8534 31.9128C9.48002 33.7611 8.95992 34.593 9.35669 35.3806C9.51018 35.6862 9.85636 36.0503 10.632 36.0503C10.825 36.0503 11.0669 36.0292 11.3457 36.0019C11.6652 35.9707 12.0281 35.9357 12.4152 35.9357C12.8907 35.9357 13.3097 35.9897 13.6974 36.1006C13.9515 36.173 14.2041 36.21 14.448 36.21C15.0935 36.21 15.6895 35.9533 16.1707 35.4676C16.9341 34.6973 17.3372 33.3825 17.5517 32.1595C18.7259 33.5633 20.392 34.7457 22.4376 35.6407C21.5883 35.9704 19.6814 36.7276 19.9776 38.1652C20.3976 40.2025 25.8215 40.4126 28.0447 40.4126C28.5637 40.4126 28.9094 40.4012 28.9741 40.3992C31.7792 40.2981 33.455 38.7973 34.3961 37.4674C35.4159 37.3842 36.3939 37.2332 37.3298 37.0306C35.7623 34.8011 34.9048 31.9966 34.9048 29.0165L34.9052 29.0161ZM27.3081 33.7124C27.1248 33.9913 26.8198 34.1433 26.5092 34.1433C26.3296 34.1433 26.1477 34.093 25.9859 33.9867C25.5454 33.6971 25.4226 33.1051 25.7117 32.6645C26.088 32.0915 26.088 31.351 25.7117 30.778C25.422 30.3375 25.5448 29.7455 25.9859 29.4558C26.4271 29.1662 27.02 29.2895 27.3082 29.7301C28.1029 30.9389 28.1029 32.5027 27.3082 33.7124L27.3081 33.7124ZM27.3081 28.0225C27.1248 28.3013 26.8198 28.4528 26.5092 28.4528C26.329 28.4528 26.1477 28.4019 25.9859 28.2962C25.5454 28.0066 25.4226 27.4146 25.7122 26.9731C26.0885 26.4007 26.0885 25.6597 25.7122 25.0872C25.4226 24.6467 25.5454 24.0538 25.9859 23.7641C26.4265 23.4745 27.0194 23.5967 27.309 24.0378C28.1035 25.249 28.1035 26.8128 27.3082 28.0225L27.3081 28.0225ZM31.486 33.713C31.3027 33.9918 30.9971 34.1433 30.6871 34.1433C30.5069 34.1433 30.3247 34.0925 30.1629 33.9867C29.723 33.6971 29.5996 33.1042 29.8892 32.6636C30.2661 32.0912 30.2661 31.3508 29.8892 30.7784C29.5996 30.3378 29.7224 29.7449 30.1629 29.4552C30.6029 29.1682 31.1964 29.2878 31.4861 29.729C32.2814 30.9389 32.2814 32.5027 31.4861 33.713L31.486 33.713ZM31.486 28.0225C31.3027 28.3013 30.9971 28.4528 30.6871 28.4528C30.5069 28.4528 30.3255 28.4019 30.1638 28.2962C29.7232 28.0066 29.5996 27.4146 29.8895 26.9731C30.2658 26.4007 30.2658 25.6597 29.8895 25.0872C29.5999 24.6467 29.7227 24.0538 30.1638 23.7641C30.6038 23.4751 31.1964 23.5967 31.486 24.0378C32.2813 25.249 32.2813 26.8128 31.486 28.0225L31.486 28.0225Z" fill="#F5F5F5"/>
</svg>
