<svg width="59" height="59" viewBox="0 0 59 59" fill="none" xmlns="http://www.w3.org/2000/svg">
<circle cx="29.4018" cy="29.9338" r="29.0662" fill="#EE9F28"/>
<path d="M21.6121 26.505C21.6847 26.0324 22.0523 25.6567 22.5377 25.5669C22.7647 25.5274 22.9745 25.499 23.1772 25.4761C21.3209 23.4192 21.3372 21.4423 21.6122 19.7794C21.6861 19.3012 22.0579 18.9241 22.5385 18.8414C23.0913 18.7457 23.557 18.7009 24.0049 18.7009C24.6275 18.7009 25.2202 18.7929 25.7862 18.9781C25.7532 18.6875 25.7319 18.3831 25.7319 18.0543C25.7322 15.0269 27.1726 13.5682 28.5959 12.5294C28.9765 12.2612 29.4757 12.2307 29.9325 12.5384C31.3414 13.5684 32.7818 15.0291 32.7818 18.0545C32.7818 18.3792 32.761 18.6804 32.7281 18.9677C33.4091 18.7497 34.0362 18.7014 34.5805 18.7014C35.0508 18.7014 35.4966 18.7412 35.8994 18.7778C36.1903 18.7958 36.4569 18.9202 36.6538 19.1289C36.8193 19.3033 36.9265 19.5305 36.9597 19.8121C37.094 21.4076 37.2534 23.3813 35.3379 25.4764C35.5422 25.4996 35.7543 25.5285 35.9857 25.5683C36.455 25.6548 36.8213 26.0264 36.8985 26.4929C37.1748 28.1665 37.1914 30.1434 35.3354 32.2019C35.5425 32.2251 35.7593 32.2548 35.9982 32.2954C36.4605 32.3866 36.8221 32.7579 36.8982 33.2176C37.1753 34.892 37.1919 36.87 35.3348 38.9268C35.5447 38.9506 35.765 38.9811 36.0103 39.0231C36.4635 39.1181 36.8204 39.4861 36.8982 39.9434C37.1864 41.6846 37.1985 43.7543 35.1095 45.8985C33.4306 47.6223 31.8565 47.8433 30.6729 47.8433C30.2031 47.8433 29.7574 47.8034 29.3103 47.7639C29.2909 47.7614 29.2715 47.7557 29.2519 47.753C29.2289 47.7568 29.2078 47.7631 29.1843 47.7658C28.7538 47.8037 28.3073 47.8433 27.8369 47.8433C26.6536 47.8433 25.08 47.6231 23.4012 45.8991C21.3116 43.756 21.3251 41.6866 21.61 39.9527C21.6834 39.4881 22.0463 39.114 22.5356 39.0174C22.7626 38.9784 22.973 38.9498 23.1751 38.9279C21.3186 36.8711 21.3346 34.8947 21.6092 33.2323C21.6823 32.7524 22.0549 32.3762 22.5355 32.2935C22.7617 32.2529 22.9729 32.2251 23.175 32.2027C21.3216 30.145 21.3376 28.1678 21.6119 26.5049L21.6121 26.505ZM34.9391 27.4894C34.7879 27.4765 34.6459 27.4703 34.5086 27.4703C33.7711 27.4703 32.7731 27.6255 31.5931 28.8368C30.3885 30.0733 30.244 31.1207 30.3052 32.3389C30.4289 32.346 30.5521 32.3479 30.6739 32.3479C31.5352 32.3479 32.4879 32.1891 33.614 31.0334C34.7893 29.8272 35.047 28.7439 34.939 27.4894L34.9391 27.4894ZM34.9391 34.2152C34.7888 34.2032 34.6465 34.1955 34.5097 34.1955C33.7716 34.1955 32.773 34.3508 31.5929 35.5613C30.6308 36.5485 30.349 37.4166 30.3038 38.3461L30.3058 39.0642C30.4287 39.0702 30.551 39.0732 30.6726 39.0732C31.535 39.0732 32.4884 38.9144 33.6147 37.757C34.7893 36.5517 35.0476 35.4696 34.9391 34.2152L34.9391 34.2152ZM27.8419 39.0737C27.9645 39.0737 28.0855 39.0702 28.2101 39.065C28.2181 38.9179 28.2223 38.7733 28.2223 38.6304V38.617C28.2206 37.5925 27.9825 36.6507 26.9216 35.5618C25.7425 34.3516 24.7442 34.1969 24.0061 34.1969C23.8688 34.1969 23.727 34.2031 23.5767 34.216C23.4685 35.4704 23.727 36.5542 24.9006 37.7584C26.026 38.9147 26.9797 39.0737 27.8418 39.0737L27.8419 39.0737ZM27.8391 32.347C27.9629 32.347 28.0855 32.344 28.2101 32.338C28.2137 32.2837 28.2128 32.2319 28.2153 32.1776L28.2137 31.6519C28.1744 30.7183 27.8989 29.8395 26.9211 28.8363C25.742 27.6255 24.7442 27.47 24.0064 27.47C23.8683 27.47 23.7265 27.4763 23.577 27.4891C23.4688 28.7439 23.7274 29.8273 24.9004 31.0323C26.0261 32.1891 26.9781 32.3471 27.8391 32.3471L27.8391 32.347ZM23.5759 20.764C23.4683 22.0185 23.7271 23.1019 24.8999 24.3072C26.0269 25.463 26.9796 25.6225 27.8417 25.6225C27.9596 25.6225 28.0781 25.619 28.1974 25.6133L28.1955 24.6518C28.1132 23.8183 27.8026 23.0148 26.9206 22.1109C25.7423 20.9001 24.7437 20.7451 24.0051 20.7451C23.8689 20.7451 23.726 20.7511 23.576 20.7639L23.5759 20.764ZM29.2599 14.6245C28.3507 15.422 27.8076 16.3709 27.8076 18.0543C27.8076 19.8009 28.4183 20.6458 29.2571 21.4278C30.1046 20.6375 30.7086 19.7922 30.7086 18.0543C30.7086 16.363 30.1588 15.4119 29.2599 14.6245ZM34.9516 20.7556C33.9594 20.7054 32.929 20.74 31.6417 22.061C30.4708 23.2642 30.2101 24.3449 30.3177 25.604C30.4681 25.6169 30.6106 25.6231 30.7471 25.6231C31.4858 25.6231 32.4844 25.4679 33.664 24.2576C34.881 23.0072 35.0145 21.95 34.9516 20.7555L34.9516 20.7556ZM33.6145 44.4839C34.7891 43.2777 35.0477 42.1943 34.939 40.9407C34.7886 40.9281 34.6463 40.921 34.5096 40.921C33.7715 40.921 32.7729 41.076 31.5927 42.2873C30.7157 43.1884 30.4028 43.9892 30.3206 44.8282L30.3231 45.7891C30.441 45.7957 30.5581 45.7981 30.6744 45.7981C31.5365 45.7989 32.4886 45.6404 33.6145 44.4839L33.6145 44.4839ZM24.8999 44.4839C26.0265 45.6404 26.9776 45.7989 27.839 45.7989C27.9619 45.7989 28.0851 45.7959 28.2094 45.7896C28.2177 45.6415 28.2216 45.4947 28.2216 45.3504V45.3425C28.2207 44.318 27.9818 43.377 26.9209 42.287C25.7418 41.0765 24.7435 40.9221 24.0054 40.9221C23.8673 40.9221 23.7255 40.9286 23.576 40.9412C23.4678 42.1954 23.7261 43.2791 24.8999 44.4839L24.8999 44.4839Z" fill="#F5F5F5"/>
</svg>
