<svg width="232" height="231" viewBox="0 0 232 231" fill="none" xmlns="http://www.w3.org/2000/svg">
<path d="M222.641 115.203C222.641 174.042 174.942 221.741 116.102 221.741C57.2627 221.741 9.56384 174.042 9.56384 115.203C9.56384 56.3629 57.2627 8.66406 116.102 8.66406C174.942 8.66406 222.641 56.3629 222.641 115.203Z" fill="#FADD3D" stroke="#FADD3D" stroke-width="17.2381" stroke-linecap="round" stroke-linejoin="round"/>
<path d="M122.138 64.4089L125.316 57.3398L128.858 51.0045L133.857 45.3241L137.492 41.6887L143.854 37.1445L149.308 34.6451C151.58 34.2653 154.098 33.4241 156.287 33.3785L160.603 33.248L167.191 34.1267L174.43 36.5946L178.972 39.1604C182.091 41.1053 184.1 42.8284 186.407 44.6111L192.054 50.8087L195.526 56.0999C197.576 60.2655 199.258 64.4311 200.525 68.5966L201.566 75.998L201.017 83.7897L198.157 92.7139L193.971 100.309L187.769 107.287L180.306 112.387C177.096 114.36 173.98 115.267 169.53 116.506C165.488 117.096 161.24 116.912 157.033 117.09L147.717 115.533C144.204 114.545 140.938 113.268 137.947 111.67C134.327 109.615 131.243 107.202 128.404 104.627C126.452 102.744 125.281 100.749 123.896 98.7845C122.137 95.9128 121.302 92.6001 120.031 89.4035C119.289 85.9196 118.96 82.4357 119.088 78.9517L120.161 71.7788C120.658 69.5246 121.294 67.0977 122.138 64.4089V64.4089Z" fill="white" stroke="white" stroke-width="0.278832" stroke-linecap="round" stroke-linejoin="round"/>
<path d="M128.49 77.9495C129.087 80.233 129.437 82.763 130.449 84.6321L133.63 89.858L137.72 93.9479L142.491 97.356L147.263 99.6282L153.397 101.446L157.487 101.9L163.849 102.809L171.551 101.752L177.255 99.8554L182.253 96.4472L187.707 91.2213L190.433 86.2226L192.705 81.4511L192.141 85.9954L191.342 89.6308L189.752 93.7206L186.798 98.2649C185.176 100.398 183.423 102.271 181.572 103.945L178.391 106.217L172.256 109.398L168.135 110.386L163.622 110.989L157.26 111.419L149.535 109.626L143.196 107.746L137.093 103.976C135.587 102.63 134.226 100.973 132.494 99.1738C130.68 97.0531 129.815 94.9325 128.631 92.8118C127.925 90.6278 127.767 88.1694 127.495 85.7682V82.36L128.49 77.9495Z" fill="#FADD3D" stroke="#FADD3D" stroke-width="0.278832" stroke-linecap="round" stroke-linejoin="round"/>
<path d="M169.302 40.3256L173.392 39.4167L174.074 39.1895C174.336 38.9971 174.269 38.4759 174.074 37.8262L170.893 36.6902L164.076 36.0085H160.214L157.033 36.6902L156.351 37.599C157.354 38.7885 158.615 38.88 159.532 39.5267L163.99 40.1534L169.302 40.3256Z" fill="#FADD3D" stroke="#FADD3D" stroke-width="0.278832" stroke-linecap="round" stroke-linejoin="round"/>
<path d="M31.3709 107.127L33.3372 99.6304L35.7847 92.7971L39.7767 86.3693L42.762 82.1835L48.2861 76.6511L53.2519 73.2855C55.4304 72.5356 57.775 71.2901 59.9262 70.8837L64.1613 70.0423L70.8038 69.821L78.3517 71.0595L83.2549 72.8401C86.6517 74.2433 88.9177 75.611 91.488 76.9882L98.0803 82.1683L102.379 86.8134C105.088 90.5833 107.435 94.4139 109.373 98.3131L111.622 105.441L112.367 113.216L111.02 122.49L108.145 130.672L103.181 138.579L96.6631 144.841C93.8223 147.317 90.8995 148.726 86.7145 150.683C82.8254 151.933 78.6057 152.452 74.4857 153.322L65.0406 153.326C61.4125 152.931 57.9807 152.211 54.7669 151.129C50.8573 149.7 47.4175 147.83 44.1918 145.758C41.9557 144.223 40.471 142.449 38.7807 140.741C36.5723 138.199 35.2012 135.069 33.4197 132.127C32.113 128.813 31.2125 125.431 30.7639 121.974L30.6378 114.722C30.7556 112.417 30.9817 109.919 31.3709 107.127L31.3709 107.127Z" fill="white" stroke="white" stroke-width="0.278832" stroke-linecap="round" stroke-linejoin="round"/>
<path d="M39.8711 119.433C40.8369 121.587 41.6005 124.024 42.9066 125.701L46.907 130.329L51.6161 133.688L56.8847 136.261L61.9661 137.714L68.3165 138.494L72.4253 138.267L78.8499 138.113L86.2711 135.798L91.5839 132.986L95.9512 128.799L100.466 122.744L102.33 117.364L103.783 112.283L103.977 116.858L103.789 120.575L102.896 124.871L100.733 129.841C99.4858 132.213 98.0667 134.349 96.517 136.306L93.7547 139.073L88.2294 143.223L84.3282 144.878L79.9767 146.217L73.773 147.693L65.8578 147.199L59.2959 146.392L52.6538 143.682C50.946 142.603 49.3307 141.193 47.3248 139.705C45.1862 137.913 43.9825 135.964 42.4647 134.068C41.4073 132.031 40.8457 129.632 40.181 127.309L39.6182 123.947L39.8711 119.433Z" fill="#FADD3D" stroke="#FADD3D" stroke-width="0.278832" stroke-linecap="round" stroke-linejoin="round"/>
<path d="M73.9102 75.5861L77.7936 74.0144L78.4284 73.6777C78.6552 73.4447 78.5031 72.9416 78.2033 72.3331L74.8783 71.738L68.043 72.1913L64.2335 72.8291L61.2087 74.0267L60.6864 75.0357C61.8719 76.0432 63.1311 75.9251 64.1421 76.4116L68.6426 76.2934L73.9102 75.5861Z" fill="#FADD3D" stroke="#FADD3D" stroke-width="0.278832" stroke-linecap="round" stroke-linejoin="round"/>
<path d="M179.073 142.575L181.573 147.021L183.037 154.515L182.434 161.213L179.157 169.471L176.87 173.635L175.069 176.721C174.044 178.785 173.476 178.923 172.23 180.723L168.896 184.296L164.88 187.788L161.642 190.388L158.019 192.632C154.615 194.018 155.258 194.285 152.46 195.109L147.415 196.399L140.813 197.157C136.237 196.375 135.093 196.273 130.975 194.857L123.67 190.173L119.638 186.417L114.925 180.196L112.207 174.379L109.841 166.662L109.772 158.238C110.056 154.48 110.202 151.792 111.811 147.46C113.703 143.839 114.979 140.507 117.302 136.995L123.799 128.998C126.659 126.732 129.609 125.744 132.657 124.258C136.444 122.531 139.298 123.038 143.049 122.249C145.719 121.772 148.476 122.675 150.879 122.704C154.237 122.964 158.092 125.82 161.426 126.665C164.683 128.107 165.426 129.201 168.173 131.349L173.127 135.061C174.661 136.785 177.391 140.313 179.073 142.574L179.073 142.575Z" fill="white" stroke="white" stroke-width="0.278832" stroke-linecap="round" stroke-linejoin="round"/>
<path d="M141.503 131.357C141.503 131.357 141.503 131.357 139.767 132.662L138.004 134.202L136.069 136.026L134.427 137.543L132.376 139.516L130.593 141.741L128.736 144.018L124.899 149.967L122.178 156.603L120.829 163.747L120.784 169.856C120.927 172.218 121.576 174.724 122.277 177.246L124.362 182.569L126.894 187.177L123.331 183.933L120.855 181.154L118.292 177.467L115.917 172.349C115.14 169.784 114.28 167.258 114.01 164.776L113.892 160.937L114.563 153.962L115.9 148.647L117.988 144.358L121.37 138.742C122.697 136.707 124.464 134.848 126.723 133.186C127.981 131.382 130.559 130.633 132.662 129.504C134.278 128.665 136.467 128.17 139.015 127.889C140.988 127.459 138.793 127.958 141.266 127.609C144.047 127.384 143.755 127.297 146.167 127.581C148.591 128.276 144.478 128.124 144.007 129.463L142.641 130.622L141.503 131.357Z" fill="#FADD3D" stroke="#FADD3D" stroke-width="0.278832" stroke-linecap="round" stroke-linejoin="round"/>
<path d="M164.095 181.26L162.433 185.106L162.218 185.792C162.22 186.117 162.681 186.368 163.322 186.591C164.321 186.681 165.319 185.765 166.317 185.17C170.231 180.496 169.121 182.752 171.216 179.419L172.922 176.43L174.235 173.453L173.898 172.368C172.347 171.638 171.533 173.268 170.472 173.815L167.35 177.058L164.095 181.26Z" fill="#FADD3D" stroke="#FADD3D" stroke-width="0.278832" stroke-linecap="round" stroke-linejoin="round"/>
</svg>
