<svg width="59" height="59" viewBox="0 0 59 59" fill="none" xmlns="http://www.w3.org/2000/svg">
<circle cx="29.3177" cy="29.0662" r="29.0662" fill="#AEAEAE"/>
<path d="M42.1265 24.2611L39.4032 18.7701V14.2562C39.4032 13.6835 38.9326 13.2119 38.3611 13.2119H20.0055C19.4341 13.2119 18.9634 13.6835 18.9634 14.2562V18.7701L16.2066 24.2611C16.1393 24.3957 16.1058 24.5642 16.1058 24.7327V44.1699C16.1058 44.7425 16.5764 45.2141 17.1479 45.2141H35.5035C35.6043 45.2141 35.7051 45.2141 35.806 45.1805L41.521 43.2603C41.9581 43.1256 42.2271 42.7212 42.2271 42.2835V24.7327C42.2606 24.5642 42.1933 24.4296 42.1263 24.2611L42.1265 24.2611ZM21.0478 15.2668H37.3191V17.9618H21.0478V15.2668ZM34.4615 43.1593H18.1903V25.777H34.4615V43.1593ZM34.8649 23.6884H18.8289L20.6442 20.0503H36.6801L34.8649 23.6884ZM40.1765 41.5424L36.5458 42.7551V24.9685L38.361 21.3304L40.1763 24.9685L40.1765 41.5424Z" fill="#F5F5F5"/>
</svg>
