<svg width="232" height="232" viewBox="0 0 232 232" fill="none" xmlns="http://www.w3.org/2000/svg">
<path d="M222.641 116.155C222.641 174.995 174.942 222.694 116.102 222.694C57.2629 222.694 9.56396 174.995 9.56396 116.155C9.56396 57.3158 57.2629 9.61694 116.102 9.61694C174.942 9.61694 222.641 57.3158 222.641 116.155Z" fill="#4DC4D5" stroke="#4DC4D5" stroke-width="17.2381" stroke-linecap="round" stroke-linejoin="round"/>
<path d="M97.405 43.4092L91.4799 44.2805C88.4739 45.0213 85.9389 46.3113 84.4131 47.9402L79.1067 52.2969L74.5757 56.3051L68.8068 58.9974L63.0739 60.3133L55.9288 62.056L50.1779 67.4584L46.6925 74.0807L43.0329 81.5743C42.1585 82.8091 40.2313 83.8685 37.5798 84.8072C35.435 86.0298 34.9973 86.2519 32.3092 88.8484C30.8568 90.6321 29.7992 92.8106 29.8214 96.0688L30.3415 101.726L31.4381 105.924C30.3682 107.371 31.2271 109.975 31.5311 112.246C32.0636 116.1 32.896 119.729 34.6077 122.699C36.8394 127.146 40.936 131.593 44.5533 136.04L56.2294 147.244L69.6962 158.602L79.9781 165.747L78.2354 169.755L74.2272 175.854C73.24 177.481 72.6379 179.107 72.833 180.734C72.9512 184.298 74.3931 186.008 75.9699 187.53C79.2229 188.527 82.476 189.223 85.729 188.75H150.209L155.611 186.659C157.295 185.914 158.541 184.644 158.748 182.128C159.003 180.358 158.86 178.722 158.226 177.248C158.248 173.096 153.811 169.581 151.603 165.747C156.632 162.791 161.9 160.205 166.053 155.498L181.403 142.046L192.034 131.415L196.913 123.922L199.527 117.648L200.778 111.708L200.922 107.889V106.146L201.144 101.823C201.608 100.886 201.851 97.6672 202.316 95.8644C202.69 93.7732 201.451 91.6819 200.399 89.5907L198.307 86.6281L193.367 84.3956L188.897 81.5743L187.298 78.6447C187.648 76.9895 185.261 74.2609 184.54 72.338C183.768 70.2831 181.328 67.2273 179.138 64.3216L175.481 61.8337L167.984 59.442L162.233 58.0478L155.611 54.911L149.86 49.6829C148.849 48.0564 145.125 46.4299 142.192 44.8033L138.184 43.4092H131.562L122.151 45.6747L118.143 46.0232L111.488 45.9903L104.376 44.2806L97.405 43.4092Z" fill="#F9F9F9" stroke="#F9F9F9" stroke-width="0.278832" stroke-linecap="round" stroke-linejoin="round"/>
<path d="M55.0264 88.3191L53.8473 89.4981L52.5897 90.8343L51.5679 91.6988L50.3106 92.642L48.817 93.428L47.4807 94.1354L90.8674 138.151L55.0264 88.3191Z" fill="#4DC4D5" stroke="#4DC4D5" stroke-width="0.278832" stroke-linecap="round" stroke-linejoin="round"/>
<path d="M85.68 64.032L84.4226 65.0538L83.2436 66.0756L81.9859 66.8615L80.8069 67.5689L80.4137 67.6475L79.6278 67.9619L78.2129 68.9051L76.877 69.2195L104.386 135.4L85.68 64.032Z" fill="#4DC4D5" stroke="#4DC4D5" stroke-width="0.278832" stroke-linecap="round" stroke-linejoin="round"/>
<path d="M114.29 57.0366L115.862 57.5082L116.962 57.5868H117.827L119.32 57.5082L120.735 57.5868L122.229 57.5082L123.014 57.4297L124.036 57.1939H124.429L119.163 137.522L114.29 57.0366Z" fill="#4DC4D5" stroke="#4DC4D5" stroke-width="0.278832" stroke-linecap="round" stroke-linejoin="round"/>
<path d="M152.882 64.032L154.297 65.211L155.397 66.1542L156.734 66.9402L157.991 67.4118L158.306 67.569L159.17 68.355L160.271 68.8266L161.685 69.4554L134.019 135.714L152.882 64.032Z" fill="#4DC4D5" stroke="#4DC4D5" stroke-width="0.278832" stroke-linecap="round" stroke-linejoin="round"/>
<path d="M183.693 88.2405L184.793 89.4195L185.815 90.7556L187.466 92.0132L189.274 93.1136L191.081 94.0568L147.38 138.544L183.693 88.2405Z" fill="#4DC4D5" stroke="#4DC4D5" stroke-width="0.278832" stroke-linecap="round" stroke-linejoin="round"/>
</svg>
