<svg width="59" height="59" viewBox="0 0 59 59" fill="none" xmlns="http://www.w3.org/2000/svg">
<circle cx="29.4018" cy="29.0662" r="29.0662" fill="#C09328"/>
<path d="M38.8359 28.7794C38.7628 26.3911 37.3216 24.3423 35.2705 23.3908C35.2925 23.3267 35.3051 23.258 35.3051 23.1864V20.6691C35.3051 19.658 34.4825 18.8354 33.4714 18.8354H31.357L30.9189 13.4989C30.8921 13.1709 30.6178 12.9183 30.2886 12.9183H28.2652C27.9361 12.9183 27.6621 13.1709 27.635 13.4989L27.1969 18.8354H25.0824C24.0713 18.8354 23.2487 19.658 23.2487 20.6691V23.1864C23.2487 23.258 23.261 23.3267 23.283 23.3908C21.2319 24.3423 19.791 26.3911 19.7179 28.7794C19.7149 28.8041 19.7131 28.8291 19.7131 28.8544V39.1852C19.7131 39.2108 19.7149 39.2355 19.7179 39.2602C19.8191 42.5621 22.5348 45.2173 25.8611 45.2173H32.693C36.019 45.2173 38.7347 42.5621 38.8358 39.2602C38.8389 39.2355 38.8407 39.2105 38.8407 39.1852V28.8544C38.841 28.8291 38.8389 28.8041 38.8358 28.7794H38.8359ZM24.5138 20.6695C24.5138 20.3557 24.7691 20.1004 25.0829 20.1004H27.7796C28.1087 20.1004 28.3827 19.8477 28.4098 19.5198L28.8479 14.1833H29.7064L30.1445 19.5198C30.1713 19.8477 30.4456 20.1004 30.7747 20.1004H33.4714C33.7852 20.1004 34.0405 20.3557 34.0405 20.6695V22.5544H24.5137L24.5138 20.6695ZM37.5764 38.5537H20.9779V29.4871H37.5764V38.5537Z" fill="#F5F5F5"/>
<path d="M23.8809 36.3799H34.6727C35.0219 36.3799 35.305 36.0969 35.305 35.7476C35.305 35.3983 35.0219 35.1153 34.6727 35.1153H23.8809C23.5316 35.1153 23.2486 35.3983 23.2486 35.7476C23.2486 36.0969 23.5316 36.3799 23.8809 36.3799Z" fill="#F5F5F5"/>
<path d="M23.8809 32.9243H34.6727C35.0219 32.9243 35.305 32.6412 35.305 32.2919C35.305 31.9427 35.0219 31.6596 34.6727 31.6596H23.8809C23.5316 31.6596 23.2486 31.9427 23.2486 32.2919C23.2486 32.6412 23.5316 32.9243 23.8809 32.9243Z" fill="#F5F5F5"/>
</svg>
