<svg width="59" height="59" viewBox="0 0 59 59" fill="none" xmlns="http://www.w3.org/2000/svg">
<circle cx="29.0662" cy="29.9338" r="29.0662" fill="#C27344"/>
<path d="M25.2559 17.7291C25.2672 17.7131 25.2763 17.6956 25.2879 17.6797C25.2923 17.6733 25.2973 17.6673 25.3018 17.6607C25.3119 17.6465 25.3224 17.6329 25.3324 17.6195C25.4196 17.4971 25.5087 17.3771 25.6008 17.2597C25.6157 17.241 25.6316 17.2224 25.6464 17.2037C25.7323 17.0961 25.8192 16.9903 25.9091 16.8871C25.9402 16.8512 25.9724 16.8164 26.0043 16.7809C26.0753 16.7016 26.1464 16.6232 26.2196 16.5465C26.2769 16.4863 26.3356 16.4278 26.3942 16.3693C26.4376 16.3263 26.481 16.2829 26.5253 16.2404C26.6179 16.1515 26.7121 16.0648 26.8078 15.9795C26.8101 15.9775 26.812 15.9757 26.8141 15.9736C28.1326 14.8007 29.7521 13.9819 31.5044 13.6397C33.6214 13.2263 35.748 13.5068 37.6454 14.4239C37.6719 14.4365 37.6987 14.4493 37.7252 14.4626C37.8241 14.5113 37.9222 14.5624 38.02 14.6146C38.0475 14.6294 38.0756 14.6425 38.1026 14.6573C38.126 14.6702 38.1483 14.6847 38.1713 14.6974C38.263 14.7485 38.354 14.8014 38.4446 14.856C38.5105 14.8957 38.5762 14.9357 38.6409 14.9767C38.7084 15.0193 38.7754 15.0632 38.8421 15.1076C38.9276 15.1643 39.012 15.2222 39.0952 15.2813C39.1181 15.2973 39.1417 15.3122 39.1642 15.3287C39.1908 15.3478 39.2157 15.3685 39.2421 15.3879C39.3287 15.4518 39.4144 15.5166 39.4989 15.5833C39.5249 15.604 39.5505 15.6247 39.576 15.6454C41.2159 16.9657 42.3802 18.7645 42.9145 20.8519C43.3569 22.5802 43.3125 24.3931 42.8197 26.0864C42.8181 26.0919 42.8164 26.0976 42.8148 26.1031C42.7796 26.2236 42.7427 26.3432 42.7027 26.4622C42.6824 26.5237 42.6605 26.5848 42.6392 26.646C42.6127 26.721 42.586 26.7956 42.5579 26.87C42.5189 26.9725 42.4768 27.0746 42.4343 27.1765C42.4173 27.2168 42.401 27.2575 42.3836 27.2976C42.3269 27.4274 42.2666 27.5565 42.2039 27.6844C42.1954 27.7015 42.1879 27.7188 42.1796 27.7361C42.1095 27.8764 42.0364 28.0154 41.9592 28.1531C41.9546 28.1616 41.9503 28.1696 41.9457 28.1781C41.9414 28.1861 41.9373 28.1938 41.9332 28.2015C41.9224 28.2209 41.9094 28.2386 41.8983 28.2579C41.8299 28.3769 41.7604 28.4959 41.6868 28.6124C41.6565 28.6602 41.6224 28.7046 41.5913 28.752C41.5259 28.8519 41.4582 28.9493 41.3901 29.0463C41.3129 29.1552 41.2342 29.2624 41.1532 29.3677C41.0754 29.4686 40.9964 29.5683 40.9151 29.6658C40.8373 29.7595 40.7575 29.8503 40.6766 29.9405C40.5863 30.0414 40.4953 30.1416 40.4012 30.2383C40.3224 30.3191 40.2411 30.3968 40.16 30.4747C40.0588 30.5718 39.9576 30.6689 39.8524 30.7616C39.7693 30.8348 39.6834 30.9035 39.5981 30.9737C39.49 31.0626 39.3824 31.1523 39.2705 31.237C39.1751 31.3088 39.0763 31.3751 38.9785 31.4435C38.8713 31.5182 38.7661 31.5953 38.656 31.6658C38.5189 31.7536 38.3769 31.8337 38.2356 31.9146C38.159 31.9583 38.0852 32.0061 38.0075 32.048C37.791 32.1644 37.5697 32.2733 37.3439 32.3738C36.6163 32.6977 36.0232 33.2136 35.6139 33.8415C35.607 33.8524 35.5987 33.8631 35.5918 33.874C35.5866 33.8822 35.5826 33.8903 35.5775 33.8985C35.1827 34.5397 34.9696 35.2993 34.9893 36.0989C34.9953 36.3461 34.9919 36.5926 34.9799 36.8378C34.9756 36.9273 34.9637 37.0158 34.957 37.1044C34.9448 37.2658 34.9335 37.4278 34.9129 37.588C34.8966 37.7182 34.8721 37.8464 34.8502 37.9757C34.8305 38.0927 34.8135 38.2107 34.7895 38.3273C34.7613 38.4649 34.7264 38.6005 34.6923 38.7366C34.6655 38.8438 34.6401 38.9512 34.6098 39.0573C34.5713 39.1921 34.5273 39.3247 34.4829 39.4573C34.4457 39.5648 34.4102 39.6719 34.3708 39.778C34.324 39.9042 34.2727 40.0286 34.2206 40.153C34.1734 40.266 34.1251 40.3778 34.0735 40.4888C34.0206 40.6031 33.9649 40.7165 33.9076 40.8287C33.8466 40.9486 33.7829 41.0668 33.717 41.1843C33.6595 41.2866 33.601 41.3882 33.5396 41.4888C33.51 41.5375 33.4842 41.5886 33.4535 41.637C33.3786 41.7557 33.2997 41.8715 33.2199 41.9863C33.2086 42.0024 33.1996 42.0196 33.188 42.0355C33.1836 42.0419 33.1787 42.0479 33.1741 42.0545C33.1635 42.0695 33.1521 42.084 33.1412 42.0988C33.0548 42.2198 32.9662 42.339 32.8751 42.455C32.8593 42.4752 32.8425 42.4946 32.8264 42.5146C32.7416 42.6205 32.6555 42.7256 32.5668 42.8276C32.5346 42.8648 32.5013 42.9005 32.4686 42.9373C32.3985 43.0152 32.3284 43.0932 32.2562 43.1683C32.1979 43.2293 32.1382 43.2891 32.0785 43.3488C32.0364 43.3907 31.9941 43.433 31.9512 43.474C31.8575 43.564 31.7621 43.6519 31.665 43.7383C31.6642 43.739 31.6634 43.7396 31.6627 43.7402C30.3441 44.9138 28.7239 45.7333 26.9704 46.0755C24.8465 46.4902 22.7132 46.2066 20.8113 45.2828C20.7961 45.2755 20.7806 45.2684 20.7654 45.2611C20.6596 45.209 20.5543 45.1543 20.4498 45.0982C20.4241 45.0842 20.3974 45.0719 20.3719 45.0577C20.3608 45.0518 20.3507 45.045 20.3398 45.0389C20.1704 44.9452 20.0028 44.848 19.8378 44.7437C19.8354 44.7421 19.8331 44.7403 19.8307 44.7388C19.8282 44.7372 19.8256 44.736 19.8232 44.7344C19.6585 44.6303 19.4985 44.5204 19.3414 44.4078C19.3314 44.4003 19.3205 44.3942 19.3104 44.3867C19.2864 44.3696 19.2635 44.3506 19.24 44.3331C19.1451 44.2632 19.0508 44.1921 18.9586 44.119C18.9448 44.108 18.9313 44.0968 18.9175 44.0858C17.2677 42.7642 16.0965 40.9591 15.56 38.8631C15.1168 37.1323 15.1621 35.3174 15.6564 33.6224C15.6565 33.6217 15.6568 33.6211 15.6567 33.6207C15.6933 33.4957 15.7317 33.3714 15.7733 33.248C15.7919 33.1916 15.8117 33.1356 15.8317 33.0793C15.8599 33 15.8884 32.9201 15.9185 32.8413C15.9554 32.7439 15.9955 32.6474 16.0357 32.5509C16.0549 32.5055 16.073 32.4595 16.0929 32.4142C16.1468 32.2905 16.2044 32.1682 16.2638 32.0461C16.2751 32.0228 16.2854 31.9992 16.2968 31.9764C16.3625 31.8442 16.4322 31.7131 16.5044 31.5832C16.5131 31.567 16.5216 31.5506 16.5303 31.5344C16.5342 31.5277 16.5375 31.5207 16.5415 31.5137C16.5512 31.4966 16.5626 31.4809 16.5723 31.4638C16.6419 31.3422 16.7125 31.2215 16.7875 31.1029C16.8181 31.0545 16.8528 31.0093 16.8845 30.9616C16.949 30.863 17.016 30.7667 17.0835 30.6707C17.1613 30.5607 17.2406 30.4528 17.3225 30.3465C17.3997 30.246 17.4786 30.147 17.5593 30.0499C17.6371 29.9562 17.7174 29.8646 17.7986 29.7738C17.8888 29.6732 17.9796 29.5733 18.0735 29.4769C18.1523 29.3961 18.2336 29.3184 18.3149 29.2402C18.4161 29.1431 18.5173 29.046 18.6225 28.9533C18.7054 28.8804 18.7913 28.8117 18.8764 28.7413C18.9847 28.6521 19.0924 28.5621 19.2045 28.4776C19.2998 28.4061 19.3986 28.3398 19.4963 28.2717C19.6038 28.1969 19.7088 28.1196 19.8189 28.0491C19.9589 27.9597 20.1033 27.8781 20.2476 27.7957C20.3215 27.7537 20.392 27.7076 20.4672 27.6671C20.6839 27.5505 20.9056 27.4415 21.1319 27.3408C21.8615 27.0163 22.4552 26.4993 22.8646 25.8696C22.8706 25.8601 22.8777 25.8512 22.8839 25.8414C22.8899 25.8319 22.8951 25.8219 22.9011 25.8119C23.2942 25.1719 23.5062 24.4136 23.4866 23.6156C23.4806 23.3677 23.4842 23.1209 23.4962 22.8752C23.5003 22.7937 23.5112 22.7129 23.5175 22.6316C23.5302 22.4622 23.5422 22.2931 23.5636 22.1249C23.5797 21.998 23.6037 21.873 23.6244 21.7467C23.6445 21.6262 23.6622 21.5052 23.6872 21.3854C23.715 21.2502 23.7495 21.1163 23.783 20.9824C23.8103 20.8733 23.8362 20.764 23.867 20.6558C23.9049 20.5226 23.9487 20.391 23.9925 20.2592C24.0286 20.1506 24.0646 20.0427 24.1043 19.9349C24.151 19.8094 24.2015 19.6856 24.2535 19.5619C24.3007 19.4489 24.3496 19.3362 24.4012 19.2245C24.454 19.1105 24.5095 18.9975 24.567 18.8849C24.628 18.765 24.6918 18.6466 24.758 18.5288C24.8154 18.4265 24.8738 18.3251 24.9349 18.2248C24.9646 18.1761 24.9904 18.125 25.021 18.0766C25.0971 17.9598 25.1758 17.8443 25.2558 17.7292L25.2559 17.7291ZM26.5136 19.5097C26.4599 19.6048 26.4084 19.7006 26.3591 19.7978C26.3145 19.8858 26.2711 19.9737 26.2295 20.0629C26.1874 20.1535 26.1477 20.2457 26.1093 20.3376C26.0691 20.4341 26.0293 20.5308 25.9926 20.6283C25.96 20.7159 25.9308 20.8041 25.9015 20.8925C25.8674 20.9956 25.8329 21.0982 25.8031 21.2024C25.7779 21.2901 25.7569 21.3793 25.735 21.4679C25.7088 21.5728 25.6815 21.6778 25.66 21.7838C25.6403 21.8799 25.6259 21.977 25.6096 22.0741C25.593 22.1737 25.5739 22.2728 25.5613 22.373C25.5448 22.5054 25.5349 22.6386 25.5251 22.7717C25.5203 22.838 25.5115 22.9036 25.5081 22.9701C25.498 23.1769 25.4953 23.3851 25.5012 23.5941C25.5361 24.7921 25.2065 25.9381 24.5909 26.9089C24.5892 26.9116 24.5877 26.9145 24.586 26.9172C24.5843 26.9199 24.5823 26.9225 24.5806 26.9252C23.9674 27.8976 23.0738 28.6875 21.9769 29.1697C21.7858 29.2538 21.5989 29.3455 21.4168 29.4433C21.3555 29.4761 21.2976 29.5138 21.2375 29.5482C21.1242 29.6129 21.0106 29.6774 20.9008 29.7474C20.8142 29.8028 20.731 29.8636 20.6467 29.9227C20.568 29.9776 20.4878 30.0313 20.4111 30.0891C20.3234 30.1552 20.2392 30.2253 20.1543 30.2954C20.0849 30.3525 20.0147 30.409 19.9474 30.4681C19.8653 30.5404 19.7864 30.6166 19.7073 30.6919C19.6408 30.7558 19.5743 30.8196 19.5102 30.8857C19.4371 30.961 19.366 31.0387 19.296 31.1171C19.2297 31.1913 19.1644 31.2658 19.1005 31.3424C19.0377 31.4184 18.9762 31.4953 18.9158 31.574C18.8496 31.6602 18.7851 31.7478 18.7221 31.8366C18.6689 31.9119 18.6164 31.9877 18.566 32.0651C18.4764 32.202 18.3881 32.34 18.3065 32.4834C18.3003 32.4943 18.2932 32.5051 18.287 32.516C18.2536 32.5749 18.2231 32.6344 18.1917 32.6938C18.1648 32.7442 18.1367 32.7946 18.111 32.8454C16.8333 35.3827 17.0761 38.4203 18.5723 40.7232C18.137 38.4132 18.5221 35.9496 19.7263 33.8401C20.7968 31.9647 22.377 30.5037 24.2968 29.6139C25.8859 28.8772 26.9069 27.2447 26.8977 25.4548C26.8878 23.5204 27.4388 21.6187 28.4898 19.956C28.7026 19.6194 29.1468 19.5182 29.4819 19.73C29.8171 19.9419 29.9163 20.3866 29.7035 20.7232C28.8003 22.1521 28.3272 23.7842 28.3357 25.4421C28.3476 27.7963 26.9976 29.9471 24.8963 30.921C23.2506 31.6837 21.8943 32.9392 20.9738 34.5514C19.6149 36.9322 19.4671 39.8349 20.5465 42.2663L22.7699 38.7463C22.9827 38.4097 23.4269 38.3085 23.7621 38.5204C24.0972 38.7322 24.1964 39.1769 23.9837 39.5135L21.7586 43.0336C24.418 42.9654 26.9767 41.5863 28.5441 39.3376C29.0927 38.5506 29.5076 37.694 29.7777 36.7915C29.8918 36.4101 30.2926 36.1923 30.6727 36.3054C31.0537 36.4164 31.2689 36.8186 31.1546 37.1999C30.8403 38.2501 30.3584 39.2459 29.7215 40.1593C28.3326 42.1521 26.2723 43.5568 23.9989 44.1546C26.7208 44.5178 29.5688 43.4339 31.3129 41.1911C31.3479 41.1458 31.3812 41.0991 31.4152 41.0532C31.4551 40.9991 31.4962 40.946 31.5349 40.8908C31.5422 40.8805 31.5488 40.8695 31.556 40.8592C31.6502 40.7234 31.7373 40.585 31.8225 40.4454C31.8708 40.3666 31.9165 40.2865 31.9617 40.2066C32.0154 40.1114 32.0669 40.0156 32.1162 39.9184C32.1608 39.8305 32.2042 39.7425 32.2458 39.6534C32.2877 39.563 32.3273 39.4711 32.3657 39.3796C32.4062 39.2826 32.4463 39.1856 32.4827 39.0872C32.5149 39.0009 32.5437 38.9133 32.573 38.8255C32.6076 38.7217 32.6421 38.6178 32.6722 38.5127C32.6969 38.4262 32.7177 38.3393 32.7395 38.2521C32.7659 38.1454 32.7938 38.0389 32.8159 37.9314C32.835 37.8376 32.849 37.7428 32.865 37.6486C32.8821 37.5466 32.9013 37.4453 32.9143 37.3427C32.9305 37.2151 32.9395 37.0863 32.9496 36.9575C32.955 36.8871 32.9643 36.8167 32.9679 36.7455C32.9782 36.5391 32.9807 36.3312 32.9746 36.1225C32.9395 34.9117 33.2771 33.7549 33.9051 32.777C34.5179 31.8112 35.4074 31.0272 36.4988 30.5471C36.69 30.463 36.8764 30.3714 37.0589 30.2735C37.1207 30.2405 37.1789 30.2023 37.2396 30.1676C37.3525 30.103 37.4657 30.039 37.5751 29.9691C37.6618 29.9135 37.745 29.8526 37.8297 29.7937C37.9084 29.7388 37.9881 29.6852 38.0647 29.6277C38.1523 29.5616 38.2367 29.4912 38.3215 29.421C38.391 29.364 38.461 29.3077 38.5285 29.2483C38.6106 29.1761 38.6898 29.1 38.7687 29.0243C38.8353 28.9605 38.9016 28.8969 38.9657 28.8308C39.0392 28.7554 39.1102 28.6772 39.1804 28.5986C39.2463 28.5249 39.3114 28.4507 39.3747 28.3745C39.4382 28.2981 39.5 28.2202 39.5608 28.1414C39.626 28.0561 39.6902 27.9695 39.7523 27.8816C39.8062 27.8052 39.8595 27.7281 39.9111 27.6495C39.9988 27.5156 40.0852 27.3802 40.1654 27.2401C40.1736 27.2259 40.1826 27.2121 40.1906 27.1978C40.2177 27.1501 40.2426 27.1011 40.2681 27.0529C40.3014 26.9913 40.3349 26.9298 40.3665 26.8679C41.636 24.3442 41.4022 21.3259 39.9272 19.028C40.3813 21.4709 39.9019 24.0733 38.5028 26.2868C37.4515 27.9499 35.9702 29.2628 34.2189 30.084C33.0544 30.6299 32.1669 31.6375 31.7837 32.8479C31.6635 33.2274 31.2592 33.4388 30.8809 33.3199C30.8201 33.3009 30.7639 33.2746 30.7127 33.2422C30.444 33.0723 30.3123 32.7359 30.4131 32.4175C30.918 30.8226 32.0846 29.4966 33.6134 28.7797C35.1147 28.0759 36.3859 26.9485 37.2891 25.5196C38.8622 23.0308 39.0908 19.974 37.9266 17.4116L26.9277 34.8124C26.7149 35.149 26.2706 35.2502 25.9355 35.0383C25.6004 34.8265 25.5011 34.3818 25.7139 34.0452L36.6967 16.6693C35.2759 16.7031 33.8776 17.1114 32.6182 17.8646C32.3773 18.0086 32.0869 17.996 31.8655 17.8561C31.7734 17.7979 31.6928 17.7173 31.6331 17.6167C31.4306 17.2754 31.543 16.8331 31.8845 16.6288C32.6905 16.1466 33.5467 15.789 34.4291 15.5539C31.721 15.209 28.8954 16.2941 27.1613 18.5242C27.1262 18.5694 27.0929 18.6162 27.0589 18.6621C27.0191 18.7161 26.9779 18.7693 26.9392 18.8245C26.932 18.8347 26.9254 18.8458 26.9181 18.8561C26.8239 18.9919 26.7368 19.1303 26.6516 19.2699C26.6047 19.3495 26.5587 19.4294 26.5136 19.5098L26.5136 19.5097Z" fill="#F5F5F5"/>
</svg>
