<svg width="232" height="237" viewBox="0 0 232 237" fill="none" xmlns="http://www.w3.org/2000/svg">
<path d="M222.641 121.822C222.641 180.661 174.942 228.36 116.102 228.36C57.2629 228.36 9.56396 180.661 9.56396 121.822C9.56396 62.982 57.2629 15.2831 116.102 15.2831C174.942 15.2831 222.641 62.982 222.641 121.822Z" fill="#9A8E6C" stroke="#9A8E6C" stroke-width="17.2381" stroke-linecap="round" stroke-linejoin="round"/>
<path d="M131.547 109.661L133.1 107.591L135.861 105.002L139.657 102.242L145.523 97.7556L150.441 94.5638L154.841 91.8893L159.413 89.3011L165.625 86.5402L172.095 84.3835L175.201 83.9524L177.444 84.1248L178.565 84.9012C168.564 95.9527 158.337 106.948 147.421 117.771C147.817 118.553 147.258 120.171 149.319 119.496C159.858 108.769 170.181 97.8985 180.032 86.713L180.291 89.6459C180.193 91.2791 180.014 93.0749 179.687 95.1671L178.307 102.241L175.718 108.799L169.162 122.775L165.366 129.504L162.778 133.645L160.017 136.837L156.221 140.202L151.735 143.48L145.264 145.809C142.993 146.492 140.721 147.052 138.449 146.586L133.273 145.033L129.304 142.79C127.623 141.135 126.294 139.128 124.818 137.268C123.729 134.739 123.204 132.436 123.265 130.367L123.61 124.155C124.732 120.703 126.686 116.585 127.924 114.838L131.547 109.661Z" fill="white" stroke="white" stroke-width="0.278832" stroke-linecap="round" stroke-linejoin="round"/>
<path d="M92.9534 121.902L91.6222 123.656L89.2737 125.835L86.0578 128.145L81.084 131.904L76.9243 134.566L73.2054 136.791L69.3439 138.94L64.1109 141.209L58.6714 142.954L56.0705 143.272L54.2002 143.086L53.2766 142.399C61.8127 133.064 70.5356 123.781 79.8316 114.657C79.5137 113.978 80.0078 112.596 78.2753 113.141C69.2959 122.188 60.4945 131.363 52.0819 140.816L51.9141 138.289C52.0228 136.886 52.2024 135.344 52.5101 133.55L53.7803 127.489L56.0508 121.894L61.7587 109.984L65.0405 104.261L67.2707 100.744L69.6294 98.0449L72.8553 95.2156L76.6562 92.4722L82.0984 90.5787C84.007 90.0305 85.9135 89.587 87.803 90.0266L92.0998 91.4499L95.3768 93.4468C96.753 94.8988 97.8296 96.6474 99.0315 98.2719C99.899 100.466 100.299 102.456 100.214 104.234L99.8221 109.571C98.8281 112.521 97.128 116.03 96.0649 117.511L92.9534 121.902Z" fill="white" stroke="white" stroke-width="0.236357" stroke-linecap="round" stroke-linejoin="round"/>
<path d="M109.018 74.0367L108.236 72.2675L107.497 69.4906L106.956 65.941L105.99 60.3816L105.52 55.9128L105.207 51.9758L104.996 47.9487L105.158 42.7327L105.757 37.5413L106.404 35.253L107.16 33.7636L107.949 33.2516C111.624 43.8769 115.2 54.6384 118.472 65.8175C119.054 65.8063 119.855 66.7386 120.053 65.0894C116.728 54.2029 113.254 43.4168 109.455 32.8503L111.279 33.6603C112.224 34.2779 113.242 35.0067 114.393 35.9375L118.208 39.2738L121.363 43.2696L127.783 52.5035L130.689 57.3904L132.403 60.5717L133.502 63.5523L134.403 67.3052L135.051 71.5052L134.555 76.7548C134.301 78.5523 133.973 80.3085 133.034 81.7187L130.602 84.7671L128.109 86.7492C126.634 87.3513 125.051 87.5919 123.513 87.9838C121.688 87.8828 120.163 87.4684 118.947 86.7292L115.346 84.3976C113.615 82.4603 111.729 79.7246 111.049 78.2815L109.018 74.0367Z" fill="white" stroke="white" stroke-width="0.198992" stroke-linecap="round" stroke-linejoin="round"/>
<path d="M126.625 27.3628L125.461 26.736L123.892 25.4741L122.103 23.6313L119.236 20.8127L117.094 18.3735L115.262 16.1662L113.445 13.8467L111.324 10.5936L109.445 7.10753L108.82 5.35275L108.594 4.01985L108.796 3.26015C115.248 7.60535 121.705 12.0894 128.176 16.9994C128.482 16.6626 129.302 16.7702 128.709 15.6581C122.333 10.9555 115.92 6.39818 109.428 2.15905L110.741 1.61156C111.505 1.44761 112.354 1.30977 113.361 1.21775L116.802 1.06714L120.171 1.69189L127.494 3.63064L131.107 4.93732L133.366 5.88849L135.212 7.06872L137.279 8.82997L139.401 11.006L141.359 14.4686C141.984 15.7026 142.554 16.9531 142.651 18.3425L142.648 21.5741L142.161 24.1941C141.632 25.3992 140.891 26.4462 140.239 27.5594C139.226 28.5371 138.239 29.1547 137.28 29.3989L134.378 30.0369C132.637 29.849 130.476 29.2646 129.503 28.7779L126.625 27.3628Z" fill="white" stroke="white" stroke-width="0.149341" stroke-linecap="round" stroke-linejoin="round"/>
<path d="M108.64 194.038L107.4 192.408L106.07 189.785L104.878 186.379L102.861 181.06L101.624 176.744L100.663 172.927L99.8159 169.009L99.2688 163.876L99.2739 158.709L99.7591 156.381L100.496 154.82L101.415 154.213C107.573 164.136 113.626 174.204 119.356 184.723C120.087 184.636 121.23 185.441 121.242 183.799C115.486 173.574 109.559 163.467 103.254 153.619L105.666 154.17C106.945 154.649 108.331 155.227 109.915 155.986L115.198 158.747L119.744 162.242L129.158 170.435L133.52 174.836L136.137 177.725L137.95 180.499L139.624 184.057L141.045 188.087L141.178 193.297C141.116 195.092 140.958 196.857 139.978 198.364L137.356 201.675L134.504 203.95C132.734 204.736 130.776 205.183 128.896 205.772C126.585 205.916 124.605 205.713 122.968 205.151L118.099 203.347C115.64 201.679 112.872 199.249 111.807 197.926L108.64 194.038Z" fill="white" stroke="white" stroke-width="0.222724" stroke-linecap="round" stroke-linejoin="round"/>
</svg>
