<svg width="231" height="231" viewBox="0 0 231 231" fill="none" xmlns="http://www.w3.org/2000/svg">
<path d="M222.077 115.538C222.077 174.378 174.378 222.077 115.538 222.077C56.6989 222.077 9 174.378 9 115.538C9 56.6989 56.6989 9 115.538 9C174.378 9 222.077 56.6989 222.077 115.538Z" fill="#02A75B" stroke="#02A75B" stroke-width="17.2381" stroke-linecap="round" stroke-linejoin="round"/>
<path d="M42.6965 167.454L47.2929 170.699L51.9764 172.791L57.7491 174.533L62.6286 175.753L70.2965 176.973L75.3503 177.714L79.9903 177.823L85.8065 177.496L94.8686 175.927L102.188 174.708L108.157 173.226L118.831 170.547L124.843 168.782L133.513 165.82L140.44 163.707C142.669 162.96 144.644 162.593 146.648 162.182C148.788 161.687 151.096 161.488 153.467 161.398C156.838 161.347 159.364 161.546 162.398 162.204C164.286 162.614 166.174 163.323 168.062 164.077C169.979 165.095 171.908 166.016 173.769 167.475C175.615 168.607 176.992 170.051 178.518 171.396L184.095 177.147C185.988 179.52 188.191 181.816 189.671 184.292L191.61 186.405C191.827 186.35 192.038 186.252 192.198 185.795C192.866 186.367 193.176 186.998 193.505 187.625C192.866 187.609 192.227 187.675 191.588 187.778L189.366 187.277L184.835 186.514L178.17 186.449L171.525 186.906L162.834 188.475C159.722 189.196 156.47 190.268 153.249 191.263L137.325 196.665C130.645 199.508 123.468 201.5 116.587 203.985L106.545 205.902L97.2648 207.557L90.5118 208.342L79.5328 208.516L70.8193 207.296C68.4377 206.573 66.0559 205.858 63.6743 204.682C60.3856 203.346 58.0403 201.343 55.4836 199.454C52.7282 196.603 49.8192 193.643 48.4039 190.283L46.0948 185.839L44.156 179.936L43.5461 176.254L43.2846 171.745L43.11 170.351L42.6965 167.454Z" fill="#FEFEFE" stroke="#FEFEFE" stroke-width="0.278832" stroke-linecap="round" stroke-linejoin="round"/>
<path d="M54.7616 190.212L54.4175 188.327L54.3043 187.443L54.6813 185.471L55.5004 183.003L56.2398 181.832L57.5952 180.847L59.3204 179.922L61.2304 179.491L62.9556 179.429L65.4818 179.922L67.8231 180.985L70.3492 182.449L72.6289 184.482L74.3542 187.131L76.141 190.582L76.6953 193.847L76.6334 196.312L75.4628 199.392C75.175 199.754 74.8876 200.071 74.6001 200.316L74.2198 200.193L72.6284 201.364L71.2729 202.165L66.96 202.103L63.8177 201.117L61.1066 199.577L58.7654 197.544L56.9785 195.387L55.8079 193.108L55.2536 191.814L54.7616 190.212Z" fill="#02A75B" stroke="#02A75B" stroke-width="0.278832" stroke-linecap="round" stroke-linejoin="round"/>
<path d="M78.3777 191.907L78.0119 190.698C77.9238 190.164 77.5608 189.709 77.8335 189.073L77.8613 186.753C77.8947 185.634 78.44 184.451 78.7893 183.544C79.1172 182.989 79.6587 182.463 80.3347 182.025L81.2544 181.126C81.5717 180.801 82.1595 180.639 82.7619 180.485C83.4111 180.316 83.3861 180.187 84.9115 179.966L87.0506 179.992L89.2282 180.398C90.27 180.768 91.3118 180.981 92.3537 181.613L95.0976 183.316L97.0071 185.023L98.9501 187.454C99.7669 188.633 100.43 190.03 100.977 191.21C101.24 192.08 101.328 192.951 101.487 193.822C101.573 195.201 101.556 196.547 101.295 197.811C101.163 199.03 100.656 199.928 100.124 200.805C99.8366 201.166 99.5929 201.505 99.3053 201.75L98.6853 202.346L97.2682 203.059L95.3899 203.708C93.9668 204.094 92.5437 203.778 91.1205 203.799L87.8911 202.704C86.9834 202.196 85.7679 201.857 85.0712 201.033C84.4077 200.823 83.6193 199.547 82.8388 198.869L80.9431 196.843L79.8813 195.152L79.022 193.422L78.3777 191.907Z" fill="#02A75B" stroke="#02A75B" stroke-width="0.278832" stroke-linecap="round" stroke-linejoin="round"/>
<path d="M102.929 189.645L102.476 188.197L102.341 186.68C101.996 185.426 102.291 184.718 102.302 183.772L103.165 181.565L104.188 180.22C104.61 179.691 105.033 179.135 105.456 178.886C106.156 178.53 106.913 178.062 107.508 177.918L109.505 177.552L111.492 177.447C112.536 177.615 113.625 177.761 114.562 177.984C115.44 178.287 116.488 178.59 116.991 178.893C117.856 179.431 118.935 179.863 119.582 180.51C120.688 181.29 121.365 182.016 122.014 182.739C122.773 183.497 123.453 183.991 124.371 185.279C125.262 186.964 126.377 188.668 126.616 190.298C126.762 191.496 127.022 192.941 126.843 193.433C126.81 194.48 126.463 195.216 126.084 195.919C125.553 196.98 125.03 198.048 124.217 198.826C123.929 199.187 123.533 199.526 123.245 199.772L122.691 200.193L121.165 200.601L119.744 201.272C118.306 201.583 116.869 201.338 115.431 201.21L112.289 200.224L109.578 198.684L107.236 196.651L105.45 194.494L104.279 192.214L103.725 190.921L102.929 189.645Z" fill="#02A75B" stroke="#02A75B" stroke-width="0.278832" stroke-linecap="round" stroke-linejoin="round"/>
<path d="M125.254 181.013C124.95 180.175 124.907 179.284 124.889 178.388L124.838 176.327L125.172 175.292C125.568 174.169 125.965 173.673 126.361 172.911L127.384 171.697L128.739 170.711L130.465 169.787L132.375 169.356L134.1 169.294L136.626 169.787L138.967 170.588L141.515 171.681L144.056 173.453L146.326 175.928C147.51 177.291 147.896 178.21 148.614 179.313C149.098 180.475 149.695 181.647 149.626 182.753C149.796 184 149.726 184.845 149.738 185.828C149.378 187.01 149.015 188.082 148.306 189.148C148.019 189.509 147.513 190.197 147.226 190.443L146.192 191.234L145.276 191.817L142.635 192.422C141.18 192.581 139.696 192.611 138.126 192.251L134.657 191.156L131.619 189.464C130.614 188.995 130.095 188.249 129.474 187.561L127.818 185.513L126.626 183.669L125.897 182.397L125.254 181.013Z" fill="#02A75B" stroke="#02A75B" stroke-width="0.278832" stroke-linecap="round" stroke-linejoin="round"/>
<path d="M149.197 175.286L148.723 173.466L148.609 172.408C148.621 171.751 148.643 171.101 148.768 170.502C148.854 169.65 149.396 168.617 149.74 167.663L150.763 166.579L152.292 165.594C152.933 165.315 153.573 165.036 154.214 164.757L156.015 164.652L157.783 164.547L160.527 165.04C161.253 165.38 161.485 165.352 162.629 165.797C163.811 166.513 165.16 167.155 165.852 168.089C166.476 168.342 166.939 168.838 167.457 169.251L169.531 171.29C170.372 172.436 170.857 173.879 171.361 175.307C171.633 176.468 171.963 177.629 171.959 178.79C171.784 179.664 171.743 180.404 171.679 181.168L170.813 182.919C170.525 183.281 169.628 184.252 169.341 184.497L168.416 185.136L167.5 185.479L165.774 185.953L162.354 186.131L159.016 185.342L156.37 183.954L153.811 182.095L151.065 179.285L150.287 178.116L149.754 176.8L149.197 175.286Z" fill="#02A75B" stroke="#02A75B" stroke-width="0.278832" stroke-linecap="round" stroke-linejoin="round"/>
<path d="M78.3597 56.8182L80.3313 50.0407L81.9332 45.4813L84.2746 40.7987L86.8623 35.9928L90.1894 31.3102L92.9005 27.8598L94.8721 25.6417L97.7064 22.561L102.019 24.9024L106.825 28.3527L112.494 32.6657L116.56 36.9786L119.887 40.429L123.091 44.9884L125.925 48.9317L128.267 52.9982L129.869 56.9415L131.224 61.2544L131.964 65.4442L132.21 70.1268L131.964 74.4398L130.485 78.7527L128.883 83.0657L126.418 87.1322L123.954 90.2129L120.75 94.0329L117.546 97.2368L111.385 101.673C108.304 81.5459 105.811 61.4187 101.526 41.2916C103.055 60.4445 105.86 81.3001 108.304 101.673L104.977 100.564L102.143 99.9478L98.5689 98.3459L93.8863 95.8813L91.6683 94.5258L89.5734 92.9239L86.7392 90.7058L84.5211 88.3644L82.303 85.7767L80.0849 82.0798L77.8668 75.7953L77.3737 73.2075L76.7576 68.1552L77.2506 63.719L77.8667 59.406L78.3597 56.8182Z" fill="white" stroke="white" stroke-opacity="0.941176" stroke-width="0.278832" stroke-linecap="round" stroke-linejoin="round"/>
<path d="M107.195 119.541L59.1362 114.735L69.7337 116.953L79.5919 118.555L87.232 119.541L97.8295 121.266L106.455 122.252L104.114 126.072L101.28 129.892L97.7063 133.589L94.3792 136.3L90.5591 138.764L86.2462 140.243L82.4261 140.983H77.2506L72.6912 140.12L68.1318 138.764L61.7239 135.807L54.9465 131.494L49.8941 127.304L46.074 123.238L42.1308 118.309L39.6662 114.858L37.5714 111.654L40.652 108.943L45.5812 104.63L48.9083 102.166L52.2354 100.071L58.7665 96.8672L63.2027 94.7723L68.3782 93.54L74.6628 92.6774L79.8384 92.5542L84.6442 93.4168L88.7107 94.4026L93.3934 96.9904L97.5831 101.18L101.526 106.356L104.854 111.778L106.332 116.953L107.195 119.541Z" fill="white" stroke="white" stroke-opacity="0.941176" stroke-width="0.278832" stroke-linecap="round" stroke-linejoin="round"/>
<path d="M115.821 117.939L116.314 113.873V110.422L117.053 107.342L118.285 102.782L120.75 97.6066L123.954 92.9239L129.006 88.2413L133.935 85.6535L137.755 84.1748L143.177 83.4354L147.49 82.9425L153.035 83.0658L158.088 83.4354L163.756 84.4212L169.178 86.0232L174.107 87.8716L178.79 89.5968L183.719 92.6775L182.98 96.0046L181.131 100.194L178.297 106.972L175.216 111.901L172.629 115.351L169.055 120.28L165.851 123.977C164.541 125.415 163.124 126.113 161.168 127.551L156.732 130.508L152.789 132.357L148.599 133.712L144.286 134.205L139.111 133.959L134.305 132.48L128.513 129.892L123.461 126.565L119.148 123.115L116.93 120.28L136.4 112.64L146.135 108.82L158.088 104.014L167.7 99.9479L179.899 95.2562L168.069 99.2086L157.348 103.029L148.599 106.109L140.343 108.697L130.855 112.394L124.94 114.366L115.821 117.939Z" fill="white" stroke="white" stroke-opacity="0.941176" stroke-width="0.278832" stroke-linecap="round" stroke-linejoin="round"/>
<path d="M108.427 101.55L111.385 101.673L111.88 104.387L112.124 106.725L112.247 110.176L112.62 114.365L113.356 118.925L115.821 117.693L116.807 120.157L113.479 121.636L113.849 124.963L113.972 127.551V130.262V133.096L113.726 136.67L113.356 139.627L112.986 142.708L112.247 146.281L111.015 150.471L109.783 153.798L108.181 157.002L105.962 160.945L104.237 163.903L102.142 163.04L103.744 160.822L105.716 157.249L107.811 152.566L109.166 148.499L110.152 145.542L110.768 142.585L111.384 139.627C111.74 136.792 111.969 133.577 112.001 129.769L111.877 124.593L111.261 122.622L106.579 122.375L107.318 119.664L110.892 120.034L110.029 115.844L109.536 110.915L109.417 107.84L108.427 101.55Z" fill="white" stroke="white" stroke-opacity="0.941176" stroke-width="0.278832" stroke-linecap="round" stroke-linejoin="round"/>
</svg>
