<svg width="59" height="59" viewBox="0 0 59 59" fill="none" xmlns="http://www.w3.org/2000/svg">
<circle cx="29.192" cy="29.9338" r="29.0662" fill="#82104E"/>
<path d="M44.8289 14.819C43.5969 13.6963 41.8905 13.2483 40.2634 13.621C38.6366 13.9933 37.2972 15.1388 36.6803 16.6851C36.0633 18.2314 36.2477 19.981 37.173 21.3661L34.4177 24.4044L34.418 24.404C33.1708 23.6802 31.7118 23.4059 30.2859 23.627C28.8599 23.8481 27.5536 24.551 26.5855 25.618C26.1433 26.1192 25.7859 26.6882 25.526 27.303L20.9295 26.313H20.9299C20.8658 25.3365 20.4823 24.4082 19.8386 23.6695C19.1948 22.9308 18.3261 22.4232 17.3652 22.2237C16.1859 21.9727 14.9548 22.1992 13.9433 22.8531C12.9314 23.5073 12.2214 24.5353 11.9698 25.7109C11.7181 26.8865 11.9452 28.1141 12.6014 29.1229C13.2547 30.1339 14.2869 30.8424 15.4675 31.0895C15.7829 31.1573 16.1044 31.1914 16.427 31.1914C17.2451 31.1932 18.048 30.9716 18.7484 30.5503C19.449 30.1293 20.0201 29.5244 20.4 28.8021L24.9933 29.7914C24.9737 31.4562 25.6249 33.0593 26.8005 34.2417C27.9765 35.4238 29.5786 36.0865 31.2485 36.0815C31.4725 36.0705 31.6961 36.0482 31.9175 36.0134L33.1536 39.7693V39.7697C32.4387 40.3284 31.9545 41.1296 31.7928 42.0209C31.6308 42.9122 31.8031 43.8316 32.2763 44.6047C32.7498 45.3779 33.4915 45.9507 34.3602 46.2149C35.2293 46.4787 36.1653 46.4155 36.9905 46.0371C37.8162 45.6583 38.4731 44.991 38.8377 44.161C39.2019 43.3311 39.2479 42.3972 38.9669 41.5356V41.5342V41.5345C38.7313 40.8161 38.2805 40.1871 37.6756 39.732C37.0703 39.2766 36.3401 39.0174 35.5824 38.9887L34.3463 35.2335L34.3467 35.2331C34.9331 34.9151 35.4639 34.504 35.9189 34.0166C36.8866 32.9442 37.4546 31.5719 37.5272 30.1311C37.5998 28.6902 37.1726 27.2686 36.3177 26.1046L39.0667 23.0735C40.5418 23.8467 42.3034 23.8499 43.781 23.0817C45.2589 22.3139 46.2651 20.8724 46.4741 19.2239C46.683 17.5754 46.0686 15.9298 44.8289 14.819ZM17.5016 28.3263C17.0587 28.6156 16.5182 28.715 16.0013 28.6021L15.9998 28.6007V28.6011C15.4829 28.4907 15.031 28.1804 14.7438 27.7381C14.4561 27.2962 14.356 26.7584 14.466 26.243C14.5622 25.7979 14.8082 25.3989 15.1632 25.1127C15.5181 24.8263 15.9607 24.6697 16.4175 24.6687C16.5574 24.669 16.6966 24.6836 16.8337 24.7123C17.3507 24.8231 17.8025 25.1344 18.0898 25.577C18.3771 26.0197 18.4768 26.5582 18.3664 27.074C18.2578 27.5901 17.9463 28.0414 17.5016 28.3263ZM36.5401 42.3193C36.7355 42.9277 36.4009 43.579 35.7913 43.7764C35.498 43.8708 35.1793 43.8449 34.9052 43.705C34.631 43.5648 34.4238 43.322 34.3295 43.0299C34.1336 42.4218 34.4672 41.7705 35.0761 41.5724C35.1911 41.5358 35.3114 41.5167 35.4325 41.5163C35.937 41.5167 36.3841 41.8408 36.5401 42.3193ZM34.0254 32.312C33.3646 33.045 32.4389 33.4873 31.452 33.5409C30.4647 33.5948 29.4963 33.2565 28.7589 32.5995C28.0219 31.9428 27.5758 31.0213 27.5189 30.0374C27.4623 29.053 27.7991 28.0868 28.4556 27.3499C29.1125 26.613 30.0353 26.1657 31.0222 26.106C32.0092 26.0468 32.9794 26.3797 33.7203 27.0325L33.7363 27.0541L33.7719 27.0758C34.4975 27.7396 34.9309 28.6614 34.9782 29.6419C35.0255 30.6223 34.6833 31.5818 34.0254 32.312ZM43.304 20.2872C42.6955 20.9591 41.7738 21.257 40.8858 21.0678C39.9975 20.8786 39.2783 20.2314 38.9985 19.3699C38.7186 18.5084 38.9212 17.5638 39.5297 16.8915H39.5311H39.5307C39.9804 16.3907 40.6131 16.0904 41.2868 16.0581C41.3316 16.0556 41.375 16.0545 41.4199 16.0545V16.0541C42.0786 16.0552 42.7113 16.3111 43.1844 16.768C43.6576 17.2248 43.9346 17.8471 43.957 18.5035C43.9791 19.1598 43.7451 19.7991 43.304 20.2872Z" fill="#F5F5F5"/>
</svg>
