<svg width="59" height="59" viewBox="0 0 59 59" fill="none" xmlns="http://www.w3.org/2000/svg">
<circle cx="29.3597" cy="29.9338" r="29.0662" fill="#DA4752"/>
<path d="M40.7216 29.7017H17.7271C17.5396 29.6996 17.3524 29.6835 17.1674 29.6529C17.6541 41.1149 22.8369 43.8657 29.0177 46.056C29.0805 46.076 29.1463 46.084 29.2121 46.0802C29.2783 46.0853 29.3445 46.0772 29.4068 46.056C35.5873 43.8657 40.7705 41.1156 41.2571 29.6529C41.0802 29.6835 40.9011 29.6996 40.7216 29.7017ZM24.2003 40.2878C24.0845 40.4032 23.9253 40.4652 23.762 40.4584C23.6066 40.4601 23.4573 40.3985 23.3487 40.2878C22.0247 39.0006 21.0603 37.39 20.5502 35.6152C20.45 35.2995 20.624 34.9621 20.9397 34.8606C21.0908 34.8046 21.2592 34.8148 21.4026 34.8891C21.5461 34.9629 21.6517 35.0941 21.6937 35.2502C22.1562 36.8247 23.01 38.2566 24.1757 39.4118C24.2958 39.5243 24.3654 39.6805 24.37 39.8447C24.3747 40.0094 24.3136 40.1685 24.2003 40.2878ZM40.7227 28.4847H40.7223C40.9137 28.4902 41.1038 28.4571 41.282 28.3875C41.6579 28.2746 41.9868 28.0429 42.2193 27.7267C42.4519 27.4105 42.5758 27.0277 42.5715 26.6352V26.1484C42.5724 23.6246 41.5701 21.2038 39.7857 19.4192C38.0014 17.6346 35.581 16.6322 33.0575 16.633H25.3682C22.8448 16.6321 20.4243 17.6346 18.64 19.4192C16.8556 21.2038 15.8534 23.6245 15.8542 26.1484V26.6352C15.8538 27.0269 15.9785 27.408 16.2106 27.7233C16.4427 28.0387 16.7699 28.2717 17.1437 28.3875C17.3304 28.4571 17.5286 28.4902 17.7276 28.4847L40.7227 28.4847ZM36.2456 24.1041L37.365 22.9846L37.3646 22.985C37.5997 22.7494 37.9811 22.7494 38.2162 22.985C38.4513 23.2201 38.4513 23.6012 38.2162 23.8367L36.6101 25.443V25.4426C36.4977 25.5479 36.3504 25.6085 36.1964 25.6132H36.1476H36.148C35.9783 25.6013 35.8209 25.5224 35.7097 25.3942L34.4685 23.7879H34.4689C34.2606 23.5256 34.3043 23.1445 34.5661 22.9362C34.8283 22.7278 35.2094 22.7715 35.4177 23.0334L36.2456 24.1041ZM31.2567 19.7236C31.3815 19.6205 31.5427 19.5725 31.7035 19.5908C31.8643 19.609 32.0103 19.6922 32.1083 19.8212L32.9358 20.8678L34.031 19.7724C34.1468 19.6561 34.3042 19.5903 34.4689 19.5903C34.6331 19.5903 34.7909 19.6561 34.9068 19.7724C35.0231 19.8836 35.0888 20.0376 35.0888 20.1985C35.0888 20.3593 35.0231 20.513 34.9068 20.6242L33.3007 22.2059V22.2063C33.1972 22.3273 33.0465 22.3982 32.887 22.4007H32.8386C32.6646 22.3854 32.5055 22.2972 32.4007 22.1575L31.1595 20.5758C31.0556 20.4514 31.0072 20.2897 31.0254 20.1289C31.0437 19.9676 31.1273 19.8212 31.2567 19.7236ZM28.2881 23.0334L29.0909 24.1042L30.2103 22.9846L30.2108 22.985C30.4459 22.7495 30.8269 22.7495 31.0624 22.985C31.2975 23.2201 31.2975 23.6013 31.0624 23.8368L29.4809 25.4431L29.4804 25.4427C29.3587 25.5483 29.2038 25.6086 29.0425 25.6133H28.9937C28.8244 25.6014 28.667 25.5224 28.5558 25.3943L27.3147 23.788H27.3151C27.1233 23.5215 27.1653 23.1527 27.4122 22.9362C27.5412 22.8323 27.7059 22.7839 27.8705 22.8021C28.0352 22.8204 28.1854 22.904 28.2881 23.0334ZM23.957 19.7236C24.0813 19.6196 24.243 19.5712 24.4038 19.5895C24.5646 19.6082 24.711 19.6918 24.8086 19.8212L25.636 20.8678L26.7555 19.7728V19.7724C26.9906 19.5373 27.372 19.5373 27.6071 19.7724C27.8422 20.0075 27.8422 20.3891 27.6071 20.6242L26.001 22.2059V22.2063C25.8975 22.3273 25.7469 22.3982 25.5873 22.4007H25.5389C25.3666 22.3799 25.2096 22.2925 25.1006 22.1575L23.8594 20.5758H23.8598C23.7559 20.4514 23.7071 20.2897 23.7257 20.1289C23.744 19.9676 23.8275 19.8212 23.957 19.7236ZM20.2827 22.9362C20.4075 22.8327 20.5687 22.7847 20.7295 22.8029C20.8904 22.8216 21.0363 22.9048 21.1343 23.0334L21.9618 24.1041L23.0566 22.9846V22.985C23.1728 22.8683 23.3302 22.8029 23.4949 22.8029C23.6591 22.8029 23.8165 22.8683 23.9328 22.985C24.1513 23.2265 24.1513 23.5948 23.9328 23.8367L22.3267 25.443V25.4426C22.2049 25.5483 22.0501 25.6085 21.8888 25.6132H21.8646C21.6936 25.6068 21.5341 25.5271 21.4263 25.3942L20.161 23.7879H20.1614C19.9649 23.5176 20.0188 23.1408 20.2827 22.9362ZM29.8213 15.4164H28.6048V14.394C28.6048 14.0579 28.8772 13.7859 29.2128 13.7859C29.5489 13.7859 29.8213 14.0579 29.8213 14.394L29.8213 15.4164Z" fill="#F5F5F5"/>
</svg>
