<svg width="231" height="232" viewBox="0 0 231 232" fill="none" xmlns="http://www.w3.org/2000/svg">
<path d="M222.308 115.888C222.308 174.728 174.609 222.427 115.77 222.427C56.9301 222.427 9.2312 174.728 9.2312 115.888C9.2312 57.0486 56.9301 9.34973 115.77 9.34973C174.609 9.34973 222.308 57.0486 222.308 115.888Z" fill="#F47039" stroke="#F47039" stroke-width="17.2381" stroke-linecap="round" stroke-linejoin="round"/>
<path d="M77.7009 224.856L85.5694 212.098L93.6845 200.404L91.9269 199.349L90.5208 197.767L89.1148 193.725L89.3633 188.1L92.63 178.082L96.6725 170.349L100.539 164.724L101.242 169.47L101.594 178.609L101.335 185.464L100.715 191.967L105.285 187.046L110.909 181.597L113.897 178.609L112.315 176.149L112.047 173.182L112.667 169.997L113.681 167.598L116.006 162.615L120.225 156.815L122.861 153.827L125.74 150.659L129.22 142.519L132.451 133.136L131.208 138.293L129.282 144.694L127.045 151.032L125.864 159.794L124.684 166.132L123.317 171.042L134.067 163.585L132.886 162.031L132.451 159.918L132.824 156.625L134.875 152.275L140.654 145.502L145.874 140.841L147.614 139.536L151.715 132.576L155.071 125.741L152.523 131.955L150.099 136.802L148.359 140.158L146.682 147.49L144.569 153.58L142.207 158.924L153.517 153.642L152.336 151.716L152.15 149.354L153.579 145.812L155.443 143.14L159.358 139.163L163.149 136.367L166.567 134.192L167.312 133.633L169.922 130.153L172.656 126.362L174.272 124.001L175.639 121.64L173.402 125.927L170.606 130.401L168.12 134.13L165.945 139.847L163.708 145.005L161.347 149.044L159.607 151.405L165.843 149.388L173.775 147.117L174.667 146.938L175.19 146.869L175.266 146.744L174.609 145.366C174.609 145.172 174.558 144.948 174.552 144.771C174.533 144.241 174.562 143.793 174.777 143.082C175.307 141.705 175.976 140.665 177.2 139.584C178.493 138.45 179.756 137.224 181.159 136.422L184.105 134.55L184.938 134.053L187.446 130.898L188.813 129.096L189.869 127.543L187.757 130.898L185.085 134.627L184.339 135.621L182.635 139.039L181.323 141.623L179.554 144.445L177.598 146.453L181.064 145.736L185.337 145.03L189.303 144.537L195.133 143.886L189.789 144.694C185.802 145.093 182.139 146.086 178.498 147.117L182.475 148.174L185.892 149.665L187.695 150.411L191.237 150.97L196.208 152.151L190.615 151.094L187.819 150.908L184.339 151.591L179.119 152.151L175.701 151.778L173.899 150.97L172.594 149.541L172.346 148.919C169.435 149.435 166.678 150.643 163.876 151.646L157.68 154.326L159.918 154.636L165.262 155.755L168.679 156.873L173.775 158.551L175.95 158.738L180.983 159.421L185.085 160.229L188.192 161.037L182.848 160.167L176.82 159.545L173.589 159.483L170.109 160.788L164.64 161.969L158.923 162.653L155.133 162.404L152.647 161.658L150.721 160.229L149.478 158.427L144.258 161.223L139.1 164.455L143.077 164.517L148.856 165.387L153.952 166.319L158.364 167.437L162.093 167.313L165.635 167.375L170.109 167.748L172.346 167.872L174.521 168.183L168.058 167.997L157.805 168.618L154.511 169.861L151.529 171.166L144.693 173.216L139.597 173.9L136.055 173.714L133.694 173.154L132.016 172.098L130.587 170.544C126.754 171.961 124.532 174.81 122.136 177.504L126.175 177.194L130.587 177.131L134.813 177.318L139.162 177.691L141.586 178.188L144.755 177.691L148.484 177.256L152.274 176.883L155.568 176.634L160.353 176.572L155.443 177.069L147.862 178.126L142.456 179.306L137.795 182.165L131.892 185.086L127.356 186.888L122.633 188.193L117.972 188.441L115.487 187.882L113.871 187.198L112.877 186.453C109.009 189.606 106.221 193.841 103.121 197.762L107.098 196.768L112.131 195.774L116.854 195.09L120.334 194.717L123.503 194.407L126.361 193.412L130.836 191.859L135.248 190.616L139.411 189.56L143.077 188.69L138.293 190.243L133.383 191.859L128.288 193.847L124.187 195.649L122.882 196.333L116.73 201.615L112.131 205.219L106.663 208.388L102.81 210.19L100.014 210.874L97.0931 211.123L95.4153 210.812L94.1725 210.377C89.9446 215.692 87.338 221.33 84.727 226.968L77.7009 224.856Z" fill="white" stroke="white" stroke-width="0.278832" stroke-linecap="round" stroke-linejoin="round"/>
<path d="M48.2942 210.554L54.2261 214.289L56.2474 203.436L58.9278 192.055L62.0475 179.532L62.9703 179.884L65.4309 180.63L68.5507 180.675L70.7038 180.279L72.9008 179.532L74.8341 178.478L77.6024 176.808L80.854 174.084L83.8419 171.008L86.742 167.8L88.7632 165.032L90.8723 162.088L93.9482 157.298L97.1558 151.982L99.0013 148.598L100.32 146.006L108.492 138.624L113.546 134.581L119.346 130.055L122.685 127.683L120.049 129.308L115.435 132.34L109.283 136.515L104.274 140.425L101.066 142.93L99.7922 144.16L98.7377 144.907L97.9467 145.698L92.8057 148.027L88.0162 150.356L83.1828 152.816L78.7448 155.277L74.0432 158.221L70.528 160.55L66.5734 163.758L72.5492 146.006H73.0326L75.3614 146.928L77.119 147.192L80.9858 146.797L84.6767 145.259L88.0162 143.018L91.2678 140.206L95.2663 135.724L100.539 128.386L103.395 123.816L105.153 121.004L107.042 117.401L114.556 110.458L118.774 106.943L122.817 103.735L126.684 100.879L128.134 99.8684L125.102 101.758L119.741 105.273L115.743 108.085L111.48 111.161L107.833 114.149L106.076 115.643L100.583 118.06L95.3103 120.564L91.3996 122.63L88.2798 124.343L82.9191 127.639L78.613 130.758L78.5251 130.275L84.3692 116.785L86.4783 117.752L89.4662 118.235L93.7284 117.269L96.8482 115.775L99.4407 113.798L102.033 111.469L104.933 108.481L107.965 104.614L110.733 100.835L113.414 96.8366L116.006 92.4425L120.708 88.3561L125.014 84.9727L128.529 82.3802L130.814 80.7984L132.879 79.5241L135.428 77.7665L132.572 79.3923L129.364 81.3256L126.156 83.303L122.421 85.6318L118.203 88.7516L114.996 91.0804L107.086 94.288L101.33 96.9244L95.6179 99.9563L90.7844 103.12L98.6937 88.0046L99.8801 88.9712L101.945 89.7622L104.054 89.938L106.471 89.5425L109.415 88.1804L113.018 85.6318L117.764 80.4908L121.982 74.471L124.662 69.9891L126.728 66.386L130.111 63.2223L134.285 59.7949L137.141 57.5979L139.514 55.7964L142.766 53.5994L139.866 55.357L136.57 57.3343L133.714 59.3116L129.496 62.2995L126.815 64.4087L125.278 65.6829L120.268 67.88L115.479 70.1209L110.294 73.0649L107.042 75.1301L105.373 76.3604L113.765 63.3102L114.6 64.0572L116.182 65.0678L118.511 65.3753L120.927 65.0678L123.564 64.0572L127.387 61.4207L131.122 57.8176L133.275 55.313L136.878 50.5675L138.943 47.3598L139.338 46.8765L141.623 44.9432L145.182 42.4386L148.39 40.2415L150.851 38.6597L152.916 37.2536L154.278 36.4627L152.257 37.4294L149.049 39.0112L146.281 40.5491L143.469 42.3067L141.448 43.7128L140.129 44.5916L138.372 45.778L134.593 47.0962L129.847 48.9856L125.629 51.0069L122.158 52.8524L119.829 54.3024L131.605 38.7036L133.231 36.8142L130.155 38.6157L119.038 51.71L119.126 46.2174L118.203 40.9446L116.929 36.1551L115.742 32.0247L113.853 26.9716L113.282 20.9078L112.886 17.4365L111.964 12.5592L111.217 9L111.612 12.1198L112.095 16.1623L112.359 20.5563L112.623 26.5761L111.392 29.8716L110.514 34.046L109.371 39.5824L108.888 43.8886L108.976 48.5463L109.986 52.2812L111.48 54.7418L113.106 56.1919L114.556 56.807L115.215 57.0707L103.571 73.5044L103.22 68.0118L102.121 63.2223L100.979 59.048L99.3528 54.7858L97.5513 50.2599L96.0573 46.8326L95.3103 45.3826L94.4315 40.0219L93.5527 35.8475L92.7178 32.1126L91.883 28.8171L90.6966 25.0382L91.5754 28.7731L92.4102 33.5187L93.2451 39.0991L93.7284 45.075L93.8163 45.9977L92.7178 50.919L91.9269 55.2691L91.2238 61.1132V68.7149L91.7951 72.2301L93.1572 75.9211L95.3103 78.6893L96.8482 79.5242L97.9467 80.1393L98.7376 80.3151L99.3089 80.403L89.5981 97.0124L89.2466 92.9699L88.4556 89.0592L87.0495 83.6106L85.4677 78.5575L83.8419 74.1195L82.4798 70.6043L81.3373 67.88L80.5903 61.5087L79.7994 56.9828L78.9645 52.7206L77.91 48.1508L76.6796 43.4932L77.4266 47.7114L78.3054 53.1161L78.7888 57.8616L79.2281 63.1345L79.4918 66.7815L78.2615 71.2634L77.0311 76.5363L76.2402 80.7985L75.5372 86.8622L75.3614 91.5199L75.8008 96.1336L76.7235 99.7807L78.613 103.296L80.3706 105.141L82.0403 106.152L83.2706 106.635L84.3691 106.987L77.7342 120.564L75.7568 112.699L73.0325 105.053L71.0992 100.264L69.0779 95.6502L68.1112 93.5411L67.7157 92.7502L66.793 87.4334L65.1672 79.7878L64.2884 76.0968L63.4975 73.021L62.7505 70.4725L62.0035 68.0118L61.5202 66.2981L62.4869 70.6043L63.8051 76.668L64.7278 82.3363L65.343 86.8182L65.9142 91.9592L64.9475 95.826L63.893 101.406L62.9263 107.207L62.355 113.71V120.52L62.9702 125.09L64.4642 130.319L65.8263 132.692L67.3642 134.581L68.8143 135.724L69.9567 136.427L70.7476 136.822L66.0021 148.95L64.7278 143.501L62.7505 137.174L60.8171 131.901L58.7519 126.672L55.9398 120.608L54.314 117.181L53.4791 112.567L52.3367 107.294L51.4139 103.296L50.0518 98.1988L48.382 92.5744L47.0638 88.4879L48.2502 92.9699L49.8321 100.088L51.1503 107.206L52.073 114.325L52.4245 117.357L51.2382 123.113L50.1836 128.649L49.2169 135.899L48.7775 143.545L49.0411 148.774L49.4366 152.597L50.4912 157.035L52.2048 160.989L54.0064 163.494L56.467 165.691L58.8398 166.614L59.8065 166.965L56.5549 177.994L53.4791 188.672L50.7109 200.096L48.2942 210.554Z" fill="white" stroke="white" stroke-width="0.278832" stroke-linecap="round" stroke-linejoin="round"/>
</svg>
