<svg width="59" height="59" viewBox="0 0 59 59" fill="none" xmlns="http://www.w3.org/2000/svg">
<circle cx="29.3177" cy="29.9338" r="29.0662" fill="#00AE70"/>
<path d="M28.8014 24.4093C28.8014 24.4093 31.7095 15.9929 40.1391 15.6661C40.1391 15.6661 30.2801 18.7282 29.3018 29.4458H27.397C26.5146 22.3294 19.9168 20.2789 19.9168 20.2789C25.7674 20.5057 27.7865 26.3472 27.7865 26.3472C28.5793 14.517 15.8122 20.0734 15.8122 20.0734C15.8122 20.0734 18.228 21.2324 19.7242 25.0512C21.2215 28.8701 25.7113 27.5403 25.7113 27.5403C25.9581 28.0185 26.0304 28.7832 26.0378 29.4453H19.5113C18.8009 29.4453 18.2249 30.023 18.2249 30.7347L18.3682 32.2826L38.7902 32.2823L38.9327 30.7344C38.9327 30.0224 38.3572 29.4451 37.6474 29.4451L31.3242 29.4453C31.3006 28.3959 31.362 26.9603 31.7915 26.1284C31.7915 26.1284 38.2604 28.0438 40.4169 22.542C42.5732 17.0401 46.0528 15.3703 46.0528 15.3703C46.0525 15.3703 27.659 7.36541 28.8014 24.4089L28.8014 24.4093Z" fill="#F5F5F5"/>
<path d="M19.5879 45.3887C19.5879 46.0956 20.1603 46.6689 20.8639 46.6689H36.3029C37.0068 46.6689 37.579 46.0954 37.579 45.3887L38.7128 33.1634L18.4546 33.1636L19.5879 45.3887Z" fill="#F5F5F5"/>
</svg>
