<svg xmlns="http://www.w3.org/2000/svg" xmlnsXlink="http://www.w3.org/1999/xlink"
viewBox="0 0 1440 320" preserveAspectRatio="none" shape-rendering="auto">
<defs>
<path id="gentle-wave" fill="#00cba9" fill-opacity="1" d="M0,192L34.3,202.7C68.6,213,137,235,206,213.3C274.3,192,343,128,411,133.3C480,139,549,213,617,240C685.7,267,754,245,823,234.7C891.4,224,960,224,1029,229.3C1097.1,235,1166,245,1234,240C1302.9,235,1371,213,1406,202.7L1440,192L1440,320L1405.7,320C1371.4,320,1303,320,1234,320C1165.7,320,1097,320,1029,320C960,320,891,320,823,320C754.3,320,686,320,617,320C548.6,320,480,320,411,320C342.9,320,274,320,206,320C137.1,320,69,320,34,320L0,320Z"></path>

</defs>
<g>
<use xlinkHref="#gentle-wave" x="48" y="0" fill="rgba(255,255,255,0.7" />
<use xlinkHref="#gentle-wave" x="48" y="3" fill="rgba(255,255,255,0.5)" />
<use xlinkHref="#gentle-wave" x="48" y="5" fill="rgba(255,255,255,0.3)" />
<use xlinkHref="#gentle-wave" x="48" y="7" fill="#fff" />
</g>
</svg>